<?xml version="1.0" standalone="no"?>
<!DOCTYPE svg PUBLIC "-//W3C//DTD SVG 1.1//EN" "http://www.w3.org/Graphics/SVG/1.1/DTD/svg11.dtd" >
<svg>
<metadata>
Created by FontForge 20090622 at Tue Dec  4 13:08:57 2018
 By deploy user
Copyright &#194;&#169; 2016 by FontfabricLLC. All rights reserved.
</metadata>
<defs>
<font id="UniNeueBold" horiz-adv-x="600" >
  <font-face 
    font-family="Uni Neue Bold"
    font-weight="700"
    font-stretch="normal"
    units-per-em="1000"
    panose-1="0 0 0 0 0 0 0 0 0 0"
    ascent="750"
    descent="-250"
    x-height="518"
    cap-height="715"
    bbox="-193.125 -244 1060 986"
    underline-thickness="50"
    underline-position="-75"
    unicode-range="U+0020-U+25CA"
  />
<missing-glyph horiz-adv-x="216" 
 />
    <glyph glyph-name=".notdef" horiz-adv-x="216" 
 />
    <glyph glyph-name=".null" horiz-adv-x="0" 
 />
    <glyph glyph-name="nonmarkingreturn" horiz-adv-x="333" 
 />
    <glyph glyph-name="space" unicode=" " horiz-adv-x="216" 
 />
    <glyph glyph-name="exclam" unicode="!" horiz-adv-x="268" 
d="M172 196h-76q-15 0 -15 14l-8 308v182q0 15 14 15h93q15 0 15 -15v-182l-8 -308q0 -14 -15 -14zM210 66q0 -32 -22 -54t-54 -22q-33 0 -54.5 22t-21.5 54t21.5 54t54.5 22q32 0 54 -22t22 -54z" />
    <glyph glyph-name="quotedbl" unicode="&#x22;" horiz-adv-x="369" 
d="M172 699l-26 -220q-2 -14 -16 -14h-62q-13 0 -13 15l8 220q0 15 16 15h80q14 0 13 -16zM324 699l-26 -220q-2 -14 -16 -14h-61q-14 0 -14 15l8 220q0 15 16 15h80q16 0 13 -16z" />
    <glyph glyph-name="numbersign" unicode="#" horiz-adv-x="759" 
d="M198 0h-71q-17 0 -12 17l51 178h-126q-17 0 -12 16l18 60q3 12 15 12h130l39 144h-126q-17 0 -12 16l17 59q3 13 16 13h130l53 187q3 13 16 13h71q18 0 13 -17l-53 -183h137l54 187q3 13 16 13h71q17 0 12 -17l-52 -183h125q17 0 12 -17l-17 -59q-5 -12 -16 -12h-129
l-39 -144h125q17 0 12 -16l-17 -60q-3 -12 -16 -12h-129l-52 -182q-3 -13 -16 -13h-71q-17 0 -12 17l51 178h-137l-53 -182q-3 -13 -16 -13zM330 427l-39 -144h138l39 144h-138z" />
    <glyph glyph-name="dollar" unicode="$" horiz-adv-x="594" 
d="M309 419q44 -10 69.5 -17.5t64.5 -25t60 -38.5t37.5 -57t16.5 -82q0 -91 -60 -143.5t-153 -64.5v-77q0 -15 -14 -15h-68q-15 0 -15 15v76q-105 11 -205 95q-12 10 -2 21l49 68q9 12 20 3q97 -72 187 -75q57 0 98.5 25.5t41.5 73.5q0 21 -9 37t-21 26t-36.5 19t-42 13.5
t-50.5 11.5q-46 10 -81 23t-73 36.5t-59 62t-21 90.5q0 89 56 140.5t148 63.5v71q0 15 15 15h68q14 0 14 -15v-70q94 -10 189 -79q12 -7 4 -20l-47 -68q-8 -11 -21 -3q-82 56 -176 59q-61 0 -96 -26t-35 -71q0 -18 8 -32.5t19 -23.5t33 -17.5t39 -13t48 -11.5z" />
    <glyph glyph-name="percent" unicode="%" horiz-adv-x="768" 
d="M312 477q0 -64 -40 -97.5t-96 -33.5q-55 0 -95 33.5t-40 97.5v113q0 65 39.5 97.5t95.5 32.5q57 0 96.5 -32.5t39.5 -97.5v-113zM194 0h-72q-9 0 -12 5t2 13l440 681q6 10 18 10h73q8 0 11 -5.5t-2 -12.5l-440 -682q-5 -9 -18 -9zM125 483q0 -31 15 -45.5t36 -14.5
q22 0 37 14.5t15 45.5v99q0 32 -15 46.5t-37 14.5q-21 0 -36 -14.5t-15 -46.5v-99zM728 122q0 -64 -40 -97.5t-95 -33.5t-95 33.5t-40 97.5v113q0 64 39.5 97t95.5 33q57 0 96 -33t39 -97v-113zM541 128q0 -31 15 -45.5t37 -14.5q21 0 36.5 14.5t15.5 45.5v99
q0 31 -15.5 45.5t-36.5 14.5q-22 0 -37 -14.5t-15 -45.5v-99z" />
    <glyph glyph-name="ampersand" unicode="&#x26;" horiz-adv-x="616" 
d="M426 65q-79 -77 -174 -77q-89 0 -151.5 58.5t-62.5 150.5q0 67 35 114t96 87q-66 86 -66 160q0 72 53.5 120.5t131.5 48.5q77 0 126.5 -48.5t48.5 -123.5q-1 -63 -37 -106t-100 -82l98 -125q29 48 43 78q6 13 18 7l69 -31q12 -5 8 -20q-22 -56 -66 -126l103 -132
q5 -8 2 -13t-12 -5h-103q-13 0 -18 8zM149 198q0 -45 32 -75t79 -30q55 0 101 56l-126 164q-86 -54 -86 -115zM210 556q0 -40 50 -105q48 28 72 51t24 54q0 32 -18.5 53t-51.5 21t-54.5 -21.5t-21.5 -52.5z" />
    <glyph glyph-name="quotesingle" unicode="'" horiz-adv-x="217" 
d="M173 699l-27 -220q-2 -14 -16 -14h-61q-14 0 -14 15l8 220q0 15 16 15h80q15 0 14 -16z" />
    <glyph glyph-name="parenleft" unicode="(" horiz-adv-x="306" 
d="M277 -116h-84q-12 0 -18 10q-131 230 -131 462t131 462q6 10 18 10h84q19 0 11 -18q-62 -104 -97.5 -223t-35.5 -231q0 -230 133 -454q8 -18 -11 -18z" />
    <glyph glyph-name="parenright" unicode=")" horiz-adv-x="306" 
d="M113 -116h-84q-19 0 -11 18q133 224 133 454q0 112 -35.5 231t-97.5 223q-8 18 11 18h84q12 0 18 -10q131 -230 131 -462t-131 -462q-6 -10 -18 -10z" />
    <glyph glyph-name="asterisk" unicode="*" horiz-adv-x="457" 
d="M148 354l-58 42q-11 8 -4 20l61 84l-98 32q-14 6 -10 18l22 69q5 14 18 10l100 -33v104q0 15 14 15h71q15 0 15 -15v-104l99 32q13 4 18 -9l22 -68q5 -13 -8 -18l-100 -32l61 -84q7 -12 -3 -21l-57 -42q-12 -10 -20 3l-63 84l-60 -83q-8 -13 -20 -4z" />
    <glyph glyph-name="plus" unicode="+" 
d="M355 388h159q14 0 14 -14v-79q0 -15 -14 -15h-159v-160q0 -14 -15 -14h-81q-14 0 -14 14v160h-159q-14 0 -14 15v79q0 14 14 14h159v160q0 14 14 14h81q15 0 15 -14v-160z" />
    <glyph glyph-name="comma" unicode="," horiz-adv-x="238" 
d="M187 108l-73 -221q-3 -12 -17 -12h-70q-16 0 -13 17l57 220q3 13 16 13h88q17 0 12 -17z" />
    <glyph glyph-name="hyphen" unicode="-" horiz-adv-x="404" 
d="M327 245h-250q-15 0 -15 14v78q0 15 15 15h250q15 0 15 -15v-78q0 -14 -15 -14z" />
    <glyph glyph-name="period" unicode="." horiz-adv-x="238" 
d="M193 68q0 -32 -21 -52.5t-53 -20.5q-33 0 -53 20.5t-20 52.5q0 33 20 53.5t53 20.5q32 0 53 -20.5t21 -53.5z" />
    <glyph glyph-name="slash" unicode="/" horiz-adv-x="444" 
d="M418 698l-276 -687q-4 -11 -17 -11h-88q-8 0 -11 5t0 12l278 687q4 11 16 11h87q18 0 11 -17z" />
    <glyph glyph-name="zero" unicode="0" horiz-adv-x="615" 
d="M554 233q0 -122 -72.5 -183.5t-173.5 -61.5q-64 0 -118 23.5t-91.5 81t-37.5 140.5v253q0 120 73 180.5t174 60.5t173.5 -60.5t72.5 -180.5v-253zM178 229q0 -69 38 -98.5t92 -29.5t91.5 29.5t37.5 98.5v255q0 70 -37.5 100t-91.5 30t-92 -30t-38 -100v-255z" />
    <glyph glyph-name="one" unicode="1" horiz-adv-x="379" 
d="M284 0h-88q-15 0 -15 15v560l-106 -73q-11 -8 -20 5l-41 66q-8 11 4 21l171 116q6 5 18 5h77q14 0 14 -15v-685q0 -15 -14 -15z" />
    <glyph glyph-name="two" unicode="2" horiz-adv-x="562" 
d="M500 0h-449q-14 0 -14 15v60q0 11 7 18l203 211q70 73 104 121.5t34 96.5q0 40 -26 67.5t-79 27.5q-82 0 -160 -80q-10 -12 -20 1l-47 64q-8 10 1 20q97 105 226 105q99 0 161.5 -53t62.5 -150q0 -65 -33.5 -123t-105.5 -140q-61 -70 -149 -153h284q15 0 15 -15v-78
q0 -15 -15 -15z" />
    <glyph glyph-name="three" unicode="3" horiz-adv-x="569" 
d="M525 228q0 -110 -70 -175t-179 -65q-136 0 -244 94q-9 10 0 21l49 57q10 10 21 0q44 -32 81.5 -47t92.5 -15q59 0 94.5 34.5t35.5 98.5q0 121 -141 121q-31 0 -63 -7q-11 -3 -18 9l-19 41q-5 11 4 21l98 107q64 68 85 84h-271q-14 0 -14 15v78q0 15 14 15h408
q14 0 14 -15v-58q0 -9 -7 -18l-181 -192l1 -2q84 2 146.5 -52.5t62.5 -149.5z" />
    <glyph glyph-name="four" unicode="4" horiz-adv-x="576" 
d="M458 0h-87q-15 0 -15 15v132h-315q-15 0 -15 15v65q0 11 5 18l245 459q6 11 17 11h101q9 0 12 -5.5t-1 -12.5l-236 -443h187l2 139q2 14 15 14h85q15 0 15 -14v-139h61q15 0 15 -14v-78q0 -15 -15 -15h-61v-132q0 -15 -15 -15z" />
    <glyph glyph-name="five" unicode="5" horiz-adv-x="582" 
d="M541 237q0 -113 -67 -181t-182 -68q-137 0 -238 93q-8 10 0 21l55 60q9 10 21 -1q78 -61 163 -61q63 0 96.5 36.5t33.5 100.5q0 126 -129 126q-79 0 -128 -43q-10 -9 -20 -5l-68 23q-13 3 -13 17l13 345q0 15 15 15h394q15 0 15 -15v-80q0 -15 -15 -15h-296l-5 -166
q51 31 122 31q108 0 170.5 -61.5t62.5 -171.5z" />
    <glyph glyph-name="six" unicode="6" horiz-adv-x="598" 
d="M179 414q60 46 143 46q109 0 172 -59.5t63 -168.5q0 -108 -69.5 -176t-178.5 -68q-110 0 -179 66t-69 171v261q0 115 70 178t176 63q121 0 214 -71q11 -9 2 -21l-45 -64q-9 -12 -20 -3q-66 49 -150 49q-56 0 -92.5 -32.5t-36.5 -93.5v-77zM179 225q0 -57 35.5 -91
t95.5 -34t94 35t34 97q0 122 -124 122q-60 0 -97.5 -29.5t-37.5 -90.5v-9z" />
    <glyph glyph-name="seven" unicode="7" horiz-adv-x="534" 
d="M199 0h-102q-8 0 -11 5t1 13l277 584h-323q-15 0 -15 15v83q0 15 15 15h458q15 0 15 -15v-53q0 -8 -5 -18l-293 -618q-4 -11 -17 -11z" />
    <glyph glyph-name="eight" unicode="8" horiz-adv-x="620" 
d="M569 210q0 -105 -71 -163.5t-188 -58.5t-188.5 59t-71.5 163q0 54 25 99.5t73 68.5q-80 52 -80 152q0 83 68 140t174 57q105 0 173.5 -57t68.5 -140q0 -100 -81 -152q48 -23 73 -68.5t25 -99.5zM169 211q0 -51 38.5 -82.5t102.5 -31.5t102.5 31.5t38.5 82.5
q0 49 -38 77.5t-103 28.5t-103 -28.5t-38 -77.5zM185 524q0 -49 33 -76t92 -27t92 27t33 76q0 44 -33.5 69.5t-91.5 25.5q-59 0 -92 -25.5t-33 -69.5z" />
    <glyph glyph-name="nine" unicode="9" horiz-adv-x="599" 
d="M42 483q0 108 69.5 176t178.5 68t178.5 -66t69.5 -171v-261q0 -115 -70 -178t-176 -63q-121 0 -218 78q-11 9 -2 20l45 67q9 12 21 2q71 -55 153 -55q56 0 92 32t36 93v76q-59 -46 -142 -46q-108 0 -171.5 59.5t-63.5 168.5zM161 484q0 -123 128 -123q56 0 93 31t37 90v9
q0 57 -35.5 91.5t-94.5 34.5q-60 0 -94 -35.5t-34 -97.5z" />
    <glyph glyph-name="colon" unicode=":" horiz-adv-x="270" 
d="M208 457q0 -33 -20.5 -53t-53.5 -20q-32 0 -52 20t-20 53t20 53.5t52 20.5q33 0 53.5 -20.5t20.5 -53.5zM208 68q0 -34 -20.5 -54t-53.5 -20q-32 0 -52 20t-20 54q0 33 20 53t52 20q33 0 53.5 -20t20.5 -53z" />
    <glyph glyph-name="semicolon" unicode=";" horiz-adv-x="272" 
d="M110 -125h-70q-16 0 -13 17l57 229q3 13 16 13h88q8 0 11.5 -5t0.5 -12l-73 -229q-3 -13 -17 -13zM213 457q0 -32 -20.5 -52.5t-53.5 -20.5q-32 0 -52 20.5t-20 52.5t20 53t52 21q33 0 53.5 -21t20.5 -53z" />
    <glyph glyph-name="less" unicode="&#x3c;" 
d="M510 182v-95q0 -8 -5 -11.5t-13 0.5l-428 210q-10 6 -10 16v56q0 10 10 16l428 210q8 4 13 0.5t5 -11.5v-95q0 -13 -11 -18l-297 -130l297 -130q11 -5 11 -18z" />
    <glyph glyph-name="equal" unicode="=" 
d="M514 373h-428q-14 0 -14 15v79q0 15 14 15h428q14 0 14 -15v-79q0 -15 -14 -15zM514 183h-428q-14 0 -14 15v79q0 14 14 14h428q14 0 14 -14v-79q0 -15 -14 -15z" />
    <glyph glyph-name="greater" unicode="&#x3e;" 
d="M537 286l-429 -210q-7 -4 -12.5 -0.5t-5.5 11.5v95q0 13 12 18l296 130l-296 130q-12 5 -12 18v95q0 8 5.5 11.5t12.5 -0.5l429 -210q10 -6 10 -16v-56q0 -10 -10 -16z" />
    <glyph glyph-name="question" unicode="?" horiz-adv-x="495" 
d="M266 195h-85q-15 0 -15 14v52q0 39 18.5 68.5t45 48l53 36.5t45 44t18.5 59q0 46 -28.5 76.5t-87.5 30.5q-76 0 -136 -57q-13 -13 -21 2l-44 63q-7 10 2 20q33 31 86 53t116 22q95 0 161.5 -54.5t66.5 -154.5q0 -48 -18.5 -83t-45 -55.5t-53 -38.5t-45 -43t-18.5 -59v-30
q0 -14 -15 -14zM298 68q0 -32 -20.5 -52.5t-53.5 -20.5q-32 0 -52 20.5t-20 52.5t20 53t52 21q33 0 53.5 -21t20.5 -53z" />
    <glyph glyph-name="at" unicode="@" horiz-adv-x="916" 
d="M610 -73q-34 -18 -92 -29t-101 -11q-179 0 -271 100t-92 267v140q0 69 21 126.5t65 105t122.5 74.5t184.5 27q284 0 403 -180q5 -7 5 -18v-260q0 -91 -44 -140t-116 -49q-74 0 -117 36q-49 -38 -124 -38q-81 0 -132 53.5t-51 132.5v75q0 82 49.5 132t137.5 50
q102 0 171 -39q9 -8 9 -18v-240q0 -60 62 -58q63 1 63 85v263q-100 128 -312 128q-153 0 -227.5 -68.5t-74.5 -180.5v-139q0 -131 70.5 -205t197.5 -74q96 0 169 34q14 6 19 -9l13 -55q3 -14 -8 -18zM369 269q0 -52 24 -77t64 -25q54 0 84 27v222q-26 17 -81 17
q-42 0 -66.5 -26t-24.5 -69v-69z" />
    <glyph glyph-name="A" unicode="A" horiz-adv-x="640" 
d="M117 0h-98q-17 0 -12 17l240 686q5 12 16 12h114q11 0 16 -12l240 -686q5 -17 -12 -17h-98q-14 0 -17 12l-49 151h-274l-49 -151q-4 -12 -17 -12zM318 583l-101 -311h206l-101 311h-4z" />
    <glyph glyph-name="B" unicode="B" horiz-adv-x="645" 
d="M570 519q0 -97 -71 -140q102 -44 102 -165q0 -101 -65 -157.5t-180 -56.5h-260q-14 0 -14 15v685q0 15 14 15h260q101 0 157.5 -51.5t56.5 -144.5zM202 108h153q123 0 123 107q0 49 -31 77.5t-93 28.5h-152v-213zM448 517q0 44 -26.5 67t-69.5 23h-150v-181h150
q44 0 70 23t26 68z" />
    <glyph glyph-name="C" unicode="C" horiz-adv-x="593" 
d="M566 61q-94 -73 -230 -73q-120 0 -198 65t-78 190v228q0 125 78 190.5t196 65.5t214 -67q11 -8 3 -20l-47 -68q-7 -12 -21 -4q-65 45 -149 45q-72 0 -112.5 -38t-40.5 -105v-224q0 -68 40.5 -106t113.5 -38q94 0 166 52q13 9 20 -4l47 -68q8 -13 -2 -21z" />
    <glyph glyph-name="D" unicode="D" horiz-adv-x="673" 
d="M344 0h-248q-14 0 -14 15v685q0 15 14 15h248q127 0 198.5 -67.5t71.5 -196.5v-190q0 -127 -71.5 -194t-198.5 -67zM203 604v-491h141q145 0 145 147v192q0 152 -145 152h-141z" />
    <glyph glyph-name="E" unicode="E" horiz-adv-x="586" 
d="M203 308v-198h321q15 0 15 -14v-81q0 -15 -15 -15h-428q-14 0 -14 15v685q0 15 14 15h414q15 0 15 -15v-81q0 -14 -15 -14h-307v-187h281q15 0 15 -15v-80q0 -15 -15 -15h-281z" />
    <glyph glyph-name="F" unicode="F" horiz-adv-x="565" 
d="M536 700v-82q0 -14 -15 -14h-319v-208h277q14 0 14 -15v-80q0 -15 -14 -15h-277v-271q0 -15 -14 -15h-92q-14 0 -14 15v685q0 15 14 15h425q15 0 15 -15z" />
    <glyph glyph-name="G" unicode="G" horiz-adv-x="653" 
d="M592 92q-97 -104 -253 -104q-119 0 -199 66t-80 190v228q0 125 77.5 190t194.5 65q133 0 240 -67q14 -9 5 -21l-50 -69q-7 -11 -20 -4q-79 47 -176 47q-68 0 -109 -36.5t-41 -107.5v-224q0 -71 44.5 -107t113.5 -36q85 0 140 42v152h-134q-14 0 -14 15v78q0 15 14 15h238
q14 0 14 -15v-281q0 -12 -5 -16z" />
    <glyph glyph-name="H" unicode="H" horiz-adv-x="686" 
d="M484 417v283q0 15 14 15h92q14 0 14 -15v-685q0 -15 -14 -15h-92q-14 0 -14 15v291h-282v-291q0 -15 -14 -15h-92q-14 0 -14 15v685q0 15 14 15h92q14 0 14 -15v-283h282z" />
    <glyph glyph-name="I" unicode="I" horiz-adv-x="284" 
d="M202 700v-685q0 -15 -14 -15h-92q-14 0 -14 15v685q0 15 14 15h92q14 0 14 -15z" />
    <glyph glyph-name="J" unicode="J" horiz-adv-x="516" 
d="M438 243q0 -119 -63.5 -187t-161.5 -68q-109 0 -202 76q-10 7 -3 20l41 68q9 12 21 3q76 -53 142 -53q49 0 77 35t28 107v456q0 15 15 15h92q14 0 14 -15v-457z" />
    <glyph glyph-name="K" unicode="K" horiz-adv-x="623" 
d="M188 0h-92q-14 0 -14 15v685q0 15 14 15h92q14 0 14 -15v-290l250 296q9 9 18 9h117q10 0 12.5 -5.5t-3.5 -12.5l-265 -301l287 -378q6 -8 3 -13t-12 -5h-117q-13 0 -18 9l-222 299l-50 -54v-239q0 -15 -14 -15z" />
    <glyph glyph-name="L" unicode="L" horiz-adv-x="524" 
d="M497 0h-401q-14 0 -14 15v685q0 15 14 15h93q14 0 14 -15v-589h294q15 0 15 -14v-82q0 -15 -15 -15z" />
    <glyph glyph-name="M" unicode="M" horiz-adv-x="860" 
d="M187 0h-91q-14 0 -14 15v685q0 15 14 15h109q12 0 16 -11l122 -227q38 -71 85 -176h4q47 105 85 176l121 227q6 11 17 11h108q15 0 15 -15v-685q0 -15 -15 -15h-91q-14 0 -14 15v201q0 118 8 314l-3 1q-30 -65 -90 -185l-88 -171q-5 -11 -17 -11h-76q-12 0 -17 11
l-88 171q-60 120 -90 185l-3 -1q8 -196 8 -314v-201q0 -15 -15 -15z" />
    <glyph glyph-name="N" unicode="N" horiz-adv-x="706" 
d="M187 0h-91q-14 0 -14 15v685q0 15 14 15h101q11 0 18 -10l195 -340l100 -181l3 1q-9 128 -9 271v244q0 15 15 15h90q15 0 15 -15v-685q0 -15 -15 -15h-101q-11 0 -17 10l-189 313q-59 95 -107 197l-3 -1q9 -155 9 -275v-229q0 -15 -14 -15z" />
    <glyph glyph-name="O" unicode="O" horiz-adv-x="678" 
d="M620 266q0 -131 -74 -204.5t-207 -73.5t-207 73.5t-74 204.5v184q0 131 74 204t207 73t207 -73t74 -204v-184zM181 266q0 -80 40 -122t118 -42t118 42t40 122v183q0 165 -158 165t-158 -165v-183z" />
    <glyph glyph-name="P" unicode="P" horiz-adv-x="632" 
d="M96 715h253q118 0 184.5 -65t66.5 -179q0 -116 -66.5 -180.5t-184.5 -64.5h-147v-211q0 -15 -14 -15h-92q-14 0 -14 15v685q0 15 14 15zM202 338h133q73 0 107.5 32.5t34.5 100.5t-34.5 100t-107.5 32h-133v-265z" />
    <glyph glyph-name="Q" unicode="Q" horiz-adv-x="680" 
d="M626 8l-49 -48q-12 -12 -21 0l-62 65q-66 -37 -155 -37q-133 0 -207 73.5t-74 204.5v184q0 131 74 204t207 73t207 -73t74 -204v-184q0 -108 -52 -177l58 -60q10 -11 0 -21zM181 266q0 -162 156 -164q35 0 68 14l-70 74q-9 10 0 21l48 48q12 10 21 0l76 -78q17 39 17 85
v183q0 81 -40.5 123t-117.5 42q-158 0 -158 -165v-183z" />
    <glyph glyph-name="R" unicode="R" horiz-adv-x="637" 
d="M596 0h-113q-11 0 -17 10l-175 251h-89v-246q0 -15 -14 -15h-92q-14 0 -14 15v685q0 15 14 15h232q123 0 191.5 -60.5t68.5 -167.5q0 -82 -43.5 -137t-122.5 -76l183 -256q11 -18 -9 -18zM328 604h-126v-235h126q70 0 103.5 28.5t33.5 88.5q0 61 -33.5 89.5t-103.5 28.5z
" />
    <glyph glyph-name="S" unicode="S" horiz-adv-x="617" 
d="M579 203q0 -106 -78 -160.5t-196 -54.5q-134 0 -255 96q-10 10 -3 21l50 70q8 11 20 3q101 -73 193 -76q60 0 102.5 25.5t42.5 73.5q0 26 -12 44.5t-38 30.5t-48.5 18.5t-63.5 14.5q-243 51 -243 219q0 99 75.5 149t191.5 50q119 0 235 -79q13 -8 4 -20l-48 -69
q-7 -12 -21 -3q-85 55 -179 58q-64 0 -100 -23.5t-36 -64.5q0 -19 8 -33.5t19.5 -24t33.5 -18t40.5 -13.5t50.5 -12q36 -8 60.5 -15t57 -19t54.5 -28t42.5 -38t30.5 -53t10 -69z" />
    <glyph glyph-name="T" unicode="T" horiz-adv-x="577" 
d="M27 715h523q15 0 15 -15v-82q0 -14 -15 -14h-201v-589q0 -15 -14 -15h-92q-14 0 -14 15v589h-202q-15 0 -15 14v82q0 15 15 15z" />
    <glyph glyph-name="U" unicode="U" horiz-adv-x="698" 
d="M621 249q0 -119 -74.5 -190t-198.5 -71q-123 0 -197 71.5t-74 189.5v451q0 15 15 15h93q15 0 15 -15v-444q0 -75 38.5 -115.5t109.5 -40.5t110.5 40.5t39.5 115.5v444q0 15 15 15h93q15 0 15 -15v-451z" />
    <glyph glyph-name="V" unicode="V" horiz-adv-x="650" 
d="M386 0h-121q-11 0 -17 12l-242 686q-5 17 12 17h100q13 0 16 -12l131 -387q18 -53 58 -182h4l59 182l130 387q3 12 17 12h100q17 0 11 -17l-242 -686q-4 -12 -16 -12z" />
    <glyph glyph-name="W" unicode="W" horiz-adv-x="968" 
d="M321 0h-105q-13 0 -16 13l-189 685q-5 17 13 17h98q13 0 16 -13l83 -332q22 -86 48 -226h3q24 113 61 243l86 305q3 13 16 13h98q13 0 16 -13l87 -305q33 -116 60 -243h3q20 114 48 226l83 332q3 13 15 13h99q18 0 13 -17l-189 -685q-3 -13 -16 -13h-105q-13 0 -16 13
l-93 315q-32 107 -52 224h-4q-20 -113 -51 -224l-94 -315q-3 -13 -16 -13z" />
    <glyph glyph-name="X" unicode="X" horiz-adv-x="604" 
d="M373 358l213 -340q4 -8 1.5 -13t-10.5 -5h-112q-12 0 -18 11l-145 254l-145 -254q-6 -11 -18 -11h-111q-9 0 -12 5t2 13l213 340l-201 339q-4 7 -1 12.5t12 5.5h108q11 0 17 -11l136 -251l137 251q6 11 17 11h108q8 0 11 -5.5t-1 -12.5z" />
    <glyph glyph-name="Y" unicode="Y" horiz-adv-x="592" 
d="M342 0h-92q-15 0 -15 15v249l-230 433q-4 7 -1 12.5t12 5.5h105q12 0 16 -11l159 -329l158 329q4 11 17 11h105q8 0 11 -5.5t-1 -12.5l-229 -435v-247q0 -15 -15 -15z" />
    <glyph glyph-name="Z" unicode="Z" horiz-adv-x="606" 
d="M554 0h-503q-15 0 -15 15v57q0 12 5 19l355 513h-328q-15 0 -15 15v81q0 15 15 15h476q14 0 14 -15v-55q0 -12 -5 -18l-353 -516h354q14 0 14 -14v-82q0 -15 -14 -15z" />
    <glyph glyph-name="bracketleft" unicode="[" horiz-adv-x="305" 
d="M186 725v-739h71q15 0 15 -14v-74q0 -15 -15 -15h-168q-14 0 -14 15v915q0 15 14 15h168q15 0 15 -15v-73q0 -15 -15 -15h-71z" />
    <glyph glyph-name="backslash" unicode="\" horiz-adv-x="444" 
d="M301 11l-276 687q-7 17 11 17h87q12 0 16 -11l278 -687q3 -7 0 -12t-11 -5h-88q-13 0 -17 11z" />
    <glyph glyph-name="bracketright" unicode="]" horiz-adv-x="305" 
d="M119 -14v739h-71q-15 0 -15 15v73q0 15 15 15h168q14 0 14 -15v-915q0 -15 -14 -15h-168q-15 0 -15 15v74q0 14 15 14h71z" />
    <glyph glyph-name="asciicircum" unicode="^" 
d="M151 559h-103q-10 0 -12.5 5.5t3.5 12.5l203 237q8 8 18 8h80q9 0 17 -8l203 -237q6 -7 3.5 -12.5t-11.5 -5.5h-104q-11 0 -17 8l-131 157l-131 -157q-6 -8 -18 -8z" />
    <glyph glyph-name="underscore" unicode="_" horiz-adv-x="564" 
d="M533 -27v-76q0 -14 -15 -14h-472q-15 0 -15 14v76q0 15 15 15h472q15 0 15 -15z" />
    <glyph glyph-name="grave" unicode="`" horiz-adv-x="257" 
d="M184 591h-66q-12 0 -18 9l-100 132q-6 8 -3.5 13t11.5 5h88q12 0 18 -10l80 -131q5 -7 2 -12.5t-12 -5.5z" />
    <glyph glyph-name="a" unicode="a" horiz-adv-x="520" 
d="M59 477q77 53 196 53q97 0 152.5 -50.5t55.5 -152.5v-292q0 -12 -11 -17q-97 -30 -201 -30q-97 0 -160 40t-63 127q0 79 59.5 119.5t159.5 40.5q40 0 100 -8v19q0 54 -22.5 77.5t-77.5 23.5q-74 0 -128 -32q-12 -9 -20 4l-40 61q-7 11 0 17zM145 156q0 -34 29 -50.5
t77 -16.5q46 0 96 12v113q-54 8 -97 8q-105 0 -105 -66z" />
    <glyph glyph-name="b" unicode="b" horiz-adv-x="550" 
d="M178 508q52 22 108 22q96 0 157.5 -58t61.5 -154v-110q0 -109 -63 -164.5t-167 -55.5t-201 36q-12 4 -12 17v659q0 15 15 15h86q15 0 15 -15v-192zM272 92q57 0 86 27t29 88v111q0 109 -113 109q-55 0 -96 -26v-295q34 -14 94 -14z" />
    <glyph glyph-name="c" unicode="c" horiz-adv-x="472" 
d="M447 44q-79 -56 -177 -56q-104 0 -164 55t-60 147v139q0 92 60 146.5t163 54.5q87 0 164 -48q12 -8 4 -21l-39 -60q-8 -11 -21 -4q-50 29 -105 29q-53 0 -81.5 -25t-28.5 -72v-140q0 -46 28.5 -71.5t80.5 -25.5q61 0 116 36q14 8 21 -4l42 -60q8 -12 -3 -20z" />
    <glyph glyph-name="d" unicode="d" horiz-adv-x="549" 
d="M371 508v192q0 15 15 15h86q15 0 15 -15v-659q0 -13 -11 -17q-98 -36 -202 -36t-166.5 55t-62.5 165v110q0 96 61 154t157 58q57 0 108 -22zM162 207q0 -62 29.5 -89.5t85.5 -27.5q57 0 94 14v297q-39 26 -96 26q-113 0 -113 -109v-111z" />
    <glyph glyph-name="e" unicode="e" horiz-adv-x="524" 
d="M483 325v-101q0 -14 -15 -14h-304v-28q0 -45 28.5 -68.5t77.5 -23.5q73 0 141 46q12 8 20 -3l41 -55q10 -11 -3 -21q-87 -69 -203 -69q-92 0 -155.5 50.5t-63.5 144.5v142q0 103 64 154t156 51q91 0 153.5 -51t62.5 -154zM370 326q0 52 -29 77t-74 25q-103 0 -103 -102
v-26h206v26z" />
    <glyph glyph-name="f" unicode="f" horiz-adv-x="328" 
d="M306 623q-18 3 -45 3q-39 0 -60 -24.5t-21 -67.5v-23h115q15 0 15 -15v-72q0 -15 -15 -15h-115v-394q0 -15 -15 -15h-86q-15 0 -15 15v519q0 93 50.5 143t128.5 50q38 0 61 -4q14 -1 14 -16v-69q0 -15 -12 -15z" />
    <glyph glyph-name="g" unicode="g" horiz-adv-x="549" 
d="M487 33q0 -233 -222 -233q-115 0 -195 62q-10 7 -3 20l42 62q8 13 20 4q62 -45 135 -45q58 0 84 30t24 104q-50 -22 -111 -22q-94 0 -155 53t-61 154v94q0 111 63.5 162.5t167.5 51.5q108 0 200 -39q11 -4 11 -17v-441zM162 222q0 -105 110 -105q69 0 99 25v273
q-33 11 -93 11q-56 0 -86 -24.5t-30 -85.5v-94z" />
    <glyph glyph-name="h" unicode="h" horiz-adv-x="564" 
d="M180 513q49 17 108 17q98 0 158 -55.5t60 -170.5v-289q0 -15 -14 -15h-87q-15 0 -15 15v286q0 69 -28 97t-86 28q-60 0 -96 -18v-393q0 -15 -15 -15h-86q-15 0 -15 15v685q0 15 15 15h86q15 0 15 -15v-187z" />
    <glyph glyph-name="i" unicode="i" horiz-adv-x="242" 
d="M165 0h-87q-15 0 -15 15v489q0 14 15 14h87q14 0 14 -14v-489q0 -15 -14 -15zM187 654q0 -28 -18.5 -47t-46.5 -19t-47 19t-19 47t19 46.5t47 18.5t46.5 -18.5t18.5 -46.5z" />
    <glyph glyph-name="j" unicode="j" horiz-adv-x="250" 
d="M187 -8q0 -92 -43.5 -143t-123.5 -51q-27 0 -50 3q-14 2 -14 16v74q0 15 16 15q24 -2 33 -2q34 0 50 21.5t16 69.5v509q0 14 14 14h87q15 0 15 -14v-512zM195 653q0 -28 -19 -47t-47 -19t-46.5 19t-18.5 47t18.5 46.5t46.5 18.5q29 0 47.5 -18.5t18.5 -46.5z" />
    <glyph glyph-name="k" unicode="k" horiz-adv-x="509" 
d="M497 0h-106q-14 0 -19 9l-157 206l-35 -36v-164q0 -15 -15 -15h-86q-15 0 -15 15v685q0 15 15 15h86q15 0 15 -15v-380l176 191q6 7 18 7h103q10 0 12 -5t-4 -12l-193 -205l214 -278q5 -8 3 -13t-12 -5z" />
    <glyph glyph-name="l" unicode="l" horiz-adv-x="303" 
d="M284 -9q-26 -3 -57 -3q-80 0 -123.5 51t-43.5 143v518q0 15 15 15h86q15 0 15 -15v-514q0 -49 16 -70.5t50 -21.5q12 0 38 2q15 0 15 -15v-74q0 -15 -11 -16z" />
    <glyph glyph-name="m" unicode="m" horiz-adv-x="824" 
d="M400 484q74 46 151 46q97 0 156 -55.5t59 -157.5v-302q0 -15 -14 -15h-87q-14 0 -14 15v306q0 104 -103 104q-50 0 -88 -25q13 -39 13 -81v-304q0 -15 -15 -15h-86q-15 0 -15 15v306q0 105 -99 105q-43 0 -80 -11v-400q0 -15 -15 -15h-86q-15 0 -15 15v458q0 13 12 18
q89 39 181 39q86 0 145 -46z" />
    <glyph glyph-name="n" unicode="n" horiz-adv-x="562" 
d="M163 0h-86q-15 0 -15 15v458q0 13 11 18q90 39 199 39t170.5 -54.5t61.5 -169.5v-291q0 -15 -14 -15h-87q-15 0 -15 15v289q0 67 -29 94.5t-87 27.5q-52 0 -94 -11v-400q0 -15 -15 -15z" />
    <glyph glyph-name="o" unicode="o" horiz-adv-x="548" 
d="M502 190q0 -93 -62 -147.5t-166 -54.5t-166 54.5t-62 147.5v134q0 94 62 150t166 56t166 -56t62 -150v-134zM163 190q0 -98 111 -98q54 0 82.5 25t28.5 73v134q0 49 -29 75.5t-82 26.5q-54 0 -82.5 -26t-28.5 -76v-134z" />
    <glyph glyph-name="p" unicode="p" horiz-adv-x="550" 
d="M73 494q92 36 202 36q104 0 167 -55t63 -164v-110q0 -97 -62 -155t-159 -58q-55 0 -106 22v-185q0 -15 -15 -15h-86q-15 0 -15 15v653q0 12 11 16zM274 90q113 0 113 110v112q0 62 -29 89t-86 27q-60 0 -94 -14v-296q41 -28 96 -28z" />
    <glyph glyph-name="q" unicode="q" horiz-adv-x="549" 
d="M45 311q0 109 62.5 164t166.5 55q107 0 202 -35q11 -5 11 -17v-653q0 -15 -15 -15h-86q-15 0 -15 15v185q-51 -22 -106 -22q-97 0 -158.5 58t-61.5 155v110zM162 200q0 -110 113 -110q56 0 96 28v296q-34 14 -94 14q-57 0 -86 -27t-29 -89v-112z" />
    <glyph glyph-name="r" unicode="r" horiz-adv-x="379" 
d="M163 0h-86q-15 0 -15 15v460q0 13 11 17q78 38 175 38q51 0 102 -8q13 -1 13 -15v-72q0 -15 -16 -12q-25 4 -81 4q-55 0 -88 -14v-398q0 -15 -15 -15z" />
    <glyph glyph-name="s" unicode="s" horiz-adv-x="484" 
d="M453 154q0 -81 -59 -123.5t-153 -42.5q-114 0 -203 65q-12 7 -4 20l38 65q7 13 20 4q70 -51 151 -51q41 0 67 15t26 43q0 27 -24.5 39t-68.5 20q-28 5 -50 11t-52.5 19t-50.5 29.5t-34.5 44t-14.5 62.5q0 78 61.5 117.5t150.5 39.5t174 -46q13 -7 5 -20l-38 -64
q-8 -11 -20 -5q-61 33 -127 33q-43 0 -67 -15t-24 -40q0 -28 25.5 -40t85.5 -24q39 -7 65 -15t57.5 -25t47.5 -46t16 -70z" />
    <glyph glyph-name="t" unicode="t" horiz-adv-x="333" 
d="M176 181q0 -41 20.5 -64t58.5 -23q9 0 41 2q16 0 16 -14v-76q0 -15 -14 -16q-34 -2 -53 -2q-83 0 -134 45.5t-51 139.5v457q0 14 15 14h76q13 0 15 -13l9 -120h107q15 0 15 -14v-73q0 -14 -15 -14h-106v-229z" />
    <glyph glyph-name="u" unicode="u" horiz-adv-x="556" 
d="M392 518h87q15 0 15 -14v-458q0 -13 -11 -18q-91 -40 -196 -40q-107 0 -168 55t-61 170v291q0 14 15 14h87q14 0 14 -14v-289q0 -67 28.5 -95t84.5 -28t91 12v400q0 14 14 14z" />
    <glyph glyph-name="v" unicode="v" horiz-adv-x="516" 
d="M310 0h-105q-12 0 -17 12l-175 490q-3 7 0 11.5t11 4.5h93q14 0 17 -11l123 -387h2l123 387q3 11 16 11h94q16 0 11 -16l-176 -490q-5 -12 -17 -12z" />
    <glyph glyph-name="w" unicode="w" horiz-adv-x="766" 
d="M271 0h-100q-13 0 -16 13l-141 489q-5 16 11 16h90q13 0 16 -12l38 -164q6 -29 27.5 -117.5t23.5 -97.5h2q10 46 49 198l48 174q3 12 16 12h93q13 0 16 -12l49 -174q30 -119 48 -198h3l51 215l37 164q3 12 17 12h89q17 0 12 -16l-141 -489q-3 -13 -16 -13h-100
q-13 0 -16 13l-56 203q-26 98 -37 155h-4q-14 -66 -38 -155l-55 -203q-3 -13 -16 -13z" />
    <glyph glyph-name="x" unicode="x" horiz-adv-x="502" 
d="M323 260l161 -242q10 -18 -9 -18h-106q-12 0 -18 10l-100 170l-100 -170q-6 -10 -18 -10h-105q-20 0 -10 18l161 242l-152 241q-4 7 -1 12t11 5h101q11 0 18 -10l95 -167l95 167q7 10 18 10h101q8 0 11 -5t-1 -12z" />
    <glyph glyph-name="y" unicode="y" horiz-adv-x="558" 
d="M378 140v364q0 14 15 14h86q15 0 15 -14v-471q0 -233 -223 -233q-120 0 -196 63q-11 8 -3 20l43 61q8 13 19 5q67 -46 136 -46q56 0 84 29.5t25 100.5q-58 -18 -107 -18q-86 0 -150 53.5t-64 150.5v285q0 14 15 14h87q14 0 14 -14v-280q0 -54 32 -79t82 -25q51 -1 90 20z
" />
    <glyph glyph-name="z" unicode="z" horiz-adv-x="480" 
d="M431 0h-385q-15 0 -15 15v43q0 10 6 18l244 340h-220q-15 0 -15 14v74q0 14 15 14h365q15 0 15 -14v-40q0 -12 -6 -19l-245 -342h241q14 0 14 -15v-73q0 -15 -14 -15z" />
    <glyph glyph-name="braceleft" unicode="{" horiz-adv-x="324" 
d="M277 -117h-41q-68 0 -99 33t-31 107v176q0 94 -61 106q-14 2 -14 14v74q0 12 14 14q61 12 61 106v176q0 74 31 107t99 33h41q14 0 14 -15v-74q0 -15 -14 -15h-29q-36 0 -36 -45v-186q0 -48 -23 -87t-55 -51q32 -12 55 -51t23 -87v-186q0 -45 36 -45h29q14 0 14 -15v-74
q0 -15 -14 -15z" />
    <glyph glyph-name="bar" unicode="|" horiz-adv-x="258" 
d="M168 -139h-79q-14 0 -14 15v970q0 15 14 15h79q15 0 15 -15v-970q0 -15 -15 -15z" />
    <glyph glyph-name="braceright" unicode="}" horiz-adv-x="324" 
d="M88 -117h-41q-14 0 -14 15v74q0 15 14 15h29q36 0 36 45v186q0 48 23 87t55 51q-32 12 -55 51t-23 87v186q0 45 -36 45h-29q-14 0 -14 15v74q0 15 14 15h41q68 0 99 -33t31 -107v-176q0 -94 61 -106q14 -2 14 -14v-74q0 -12 -14 -14q-61 -12 -61 -106v-176
q0 -74 -31 -107t-99 -33z" />
    <glyph glyph-name="asciitilde" unicode="~" 
d="M529 322q-46 -66 -132 -66q-36 0 -102 27q-52 21 -75 21q-46 0 -73 -25q-11 -11 -21 -2l-51 44q-11 10 -3 21q43 63 131 63q39 0 101 -26q53 -21 76 -21q45 0 73 26q10 9 21 1l51 -44q11 -8 4 -19z" />
    <glyph glyph-name="exclamdown" unicode="&#xa1;" horiz-adv-x="258" 
d="M91 324h76q15 0 15 -14l8 -308v-182q0 -15 -14 -15h-93q-15 0 -15 15v182l8 308q0 14 15 14zM53 454q0 32 22 54t54 22q33 0 54.5 -22t21.5 -54t-21.5 -54t-54.5 -22q-32 0 -54 22t-22 54z" />
    <glyph glyph-name="cent" unicode="&#xa2;" horiz-adv-x="498" 
d="M416 124l42 -60q7 -12 -4 -20q-71 -50 -153 -55v-74q0 -15 -14 -15h-53q-14 0 -14 15v78q-78 14 -122 66.5t-44 130.5v139q0 78 44 130.5t122 66.5v74q0 15 14 15h53q14 0 14 -15v-71q73 -6 140 -47q12 -8 4 -21l-39 -60q-8 -11 -21 -4q-52 30 -105 30t-81.5 -25.5
t-28.5 -72.5v-140q0 -46 28.5 -71.5t80.5 -25.5q61 0 116 36q14 8 21 -4z" />
    <glyph glyph-name="sterling" unicode="&#xa3;" horiz-adv-x="555" 
d="M500 0h-439q-14 0 -14 15v69q0 12 14 14q62 11 60 104v121h-60q-14 0 -14 15v68q0 14 14 14h60v107q0 91 56 145.5t149 54.5q107 0 177 -56q10 -9 3 -21l-40 -56q-8 -12 -20 -3q-50 36 -119 36q-49 0 -76 -26.5t-27 -73.5v-107h173q15 0 15 -14v-68q0 -15 -15 -15h-173
v-121q0 -75 -40 -105h316q14 0 14 -14v-68q0 -15 -14 -15z" />
    <glyph glyph-name="currency" unicode="&#xa4;" horiz-adv-x="638" 
d="M453 142q-60 -37 -136 -37t-134 36l-53 -52q-10 -10 -20 0l-47 47q-10 10 0 21l52 51q-38 60 -38 138q0 74 37 135l-51 51q-11 10 0 21l47 47q10 10 20 0l52 -52q59 38 135 38q77 0 137 -38l52 52q10 10 21 0l46 -47q11 -10 0 -21l-52 -52q37 -60 37 -134t-37 -137
l52 -53q12 -10 0 -20l-46 -47q-11 -11 -21 0zM174 346q0 -65 40 -104.5t103 -39.5t104 40.5t40 103.5q-1 62 -41.5 102.5t-102.5 40.5q-63 0 -103 -40t-40 -103z" />
    <glyph glyph-name="yen" unicode="&#xa5;" horiz-adv-x="610" 
d="M473 715h99q9 0 12 -5.5t-1 -12.5l-185 -363h88q15 0 15 -15v-57q0 -14 -15 -14h-122v-57h122q15 0 15 -15v-56q0 -15 -15 -15h-122v-90q0 -15 -15 -15h-88q-14 0 -14 15v90h-124q-15 0 -15 15v56q0 15 15 15h124v57h-124q-15 0 -15 14v57q0 15 15 15h89l-185 363
q-4 7 -1 12.5t11 5.5h100q13 0 17 -11l151 -329l150 329q4 11 18 11z" />
    <glyph glyph-name="brokenbar" unicode="&#xa6;" horiz-adv-x="262" 
d="M170 416h-79q-14 0 -14 14v416q0 15 14 15h79q15 0 15 -15v-416q0 -14 -15 -14zM170 -139h-79q-14 0 -14 15v416q0 15 14 15h79q15 0 15 -15v-416q0 -15 -15 -15z" />
    <glyph glyph-name="section" unicode="&#xa7;" horiz-adv-x="515" 
d="M157 299q0 -39 35.5 -62t115.5 -45q56 22 56 81q0 37 -29.5 57.5t-109.5 49.5q-68 -24 -68 -81zM459 6q0 -89 -57.5 -139.5t-142.5 -50.5q-57 0 -111.5 25t-89.5 65q-10 10 -1 21l44 58q10 13 20 1q62 -64 137 -64q44 0 66.5 22.5t22.5 54.5q0 19 -8.5 33.5t-29 26.5
t-36.5 19t-47 18q-35 13 -52 20t-46 24t-43.5 34t-26.5 45t-12 62q0 90 89 140q-65 54 -65 137q0 85 59.5 127t139.5 42q81 0 154 -50q12 -9 3 -20l-39 -56q-7 -13 -21 -3q-44 28 -96 28q-88 0 -88 -69q0 -21 8.5 -36.5t28 -27.5t35.5 -18.5t46 -17.5q41 -15 63 -25
t52 -31.5t44 -53.5t14 -76q0 -95 -76 -138q62 -47 62 -127z" />
    <glyph glyph-name="dieresis" unicode="&#xa8;" horiz-adv-x="294" 
d="M123 653q0 -28 -17 -44.5t-44 -16.5t-44.5 16.5t-17.5 44.5q0 29 17.5 45.5t44.5 16.5t44 -16.5t17 -45.5zM328 653q0 -28 -17 -44.5t-44 -16.5t-44.5 16.5t-17.5 44.5q0 29 17 45.5t45 16.5q27 0 44 -16.5t17 -45.5z" />
    <glyph glyph-name="copyright" unicode="&#xa9;" horiz-adv-x="819" 
d="M771 358q0 -171 -103 -270.5t-257 -99.5q-156 0 -259.5 99.5t-103.5 270.5q0 170 104 269.5t259 99.5q154 0 257 -99.5t103 -269.5zM102 358q0 -151 87.5 -234.5t221.5 -83.5q132 0 219 83.5t87 234.5t-87 233.5t-219 82.5q-134 0 -221.5 -82.5t-87.5 -233.5zM549 208
q-49 -50 -137 -50q-64 0 -110 37t-46 107v115q0 70 45 107t109 37q79 0 135 -54q9 -9 1 -20l-31 -40q-9 -13 -20 -2q-38 36 -82 36q-29 0 -50 -16.5t-21 -46.5v-116q0 -31 20 -47.5t51 -16.5q53 0 91 31q12 12 20 -3l26 -39q7 -11 -1 -19z" />
    <glyph glyph-name="guillemotleft" unicode="&#xab;" horiz-adv-x="541" 
d="M281 71h-91q-12 0 -17 9l-135 201q-6 10 0 20l135 201q5 9 17 9h91q20 0 9 -18l-137 -202l137 -202q11 -18 -9 -18zM490 71h-91q-12 0 -17 9l-135 201q-6 10 0 20l135 201q5 9 17 9h91q20 0 9 -18l-137 -202l137 -202q11 -18 -9 -18z" />
    <glyph glyph-name="logicalnot" unicode="&#xac;" 
d="M508 160h-77q-15 0 -15 15v131h-336q-14 0 -14 15v79q0 14 14 14h428q14 0 14 -14v-225q0 -15 -14 -15z" />
    <glyph glyph-name="registered" unicode="&#xae;" horiz-adv-x="506" 
d="M461 519q0 -96 -59.5 -152t-148.5 -56t-148.5 56t-59.5 152q0 95 59.5 151.5t148.5 56.5t148.5 -56.5t59.5 -151.5zM87 519q0 -78 47.5 -122.5t119.5 -44.5q71 0 118 44.5t47 122.5q0 79 -47 123t-118 44q-72 0 -119.5 -44t-47.5 -123zM207 420h-9q-15 0 -15 15v172
q0 15 15 15h66q33 0 53.5 -16t20.5 -48q0 -52 -47 -62l43 -58q11 -18 -8 -18h-14q-12 0 -18 9l-45 64h-27v-58q0 -15 -15 -15zM222 586v-58h41q36 0 36 30q0 28 -36 28h-41z" />
    <glyph glyph-name="macron" unicode="&#xaf;" horiz-adv-x="305" 
d="M0 613v60q0 14 15 14h263q14 0 14 -14v-60q0 -15 -14 -15h-263q-15 0 -15 15z" />
    <glyph glyph-name="degree" unicode="&#xb0;" horiz-adv-x="381" 
d="M342 577q0 -69 -42.5 -110.5t-108.5 -41.5q-67 0 -109.5 41t-42.5 111q0 69 42.5 109.5t109.5 40.5q66 0 108.5 -40.5t42.5 -109.5zM116 576q0 -38 21 -58t54 -20t53.5 20t20.5 58q0 37 -20.5 57.5t-53.5 20.5t-54 -20.5t-21 -57.5z" />
    <glyph glyph-name="plusminus" unicode="&#xb1;" 
d="M340 202h-80q-15 0 -15 15v142h-159q-14 0 -14 14v79q0 14 14 14h159v142q0 15 15 15h80q15 0 15 -15v-142h159q14 0 14 -14v-79q0 -14 -14 -14h-159v-142q0 -15 -15 -15zM514 37h-428q-14 0 -14 14v77q0 15 14 15h428q14 0 14 -15v-77q0 -14 -14 -14z" />
    <glyph glyph-name="two.sups" unicode="&#xb2;" horiz-adv-x="327" 
d="M283 410h-244q-15 0 -15 15v42q0 11 8 18l116 109q21 21 31.5 32.5t20.5 29.5t10 33q0 38 -47 38q-42 0 -77 -33q-12 -11 -21 1l-27 37q-7 12 1 20q55 51 129 51q56 0 89.5 -30.5t33.5 -80.5q0 -40 -20.5 -73.5t-70.5 -81.5q-15 -14 -56 -49h139q15 0 15 -14v-49
q0 -15 -15 -15z" />
    <glyph glyph-name="three.sups" unicode="&#xb3;" horiz-adv-x="329" 
d="M302 534q0 -59 -39.5 -94.5t-100.5 -34.5q-78 1 -138 53q-10 10 -2 20l28 34q9 10 20 1q36 -31 90 -31q28 0 45 15.5t17 45.5q0 25 -17.5 39.5t-47.5 14.5q-16 0 -31 -3q-14 -2 -18 10l-8 18q-4 11 4 21l54 60q4 5 13 13t10 9h-127q-14 0 -14 15v43q0 15 14 15h221
q15 0 15 -15v-27q0 -8 -8 -18l-85 -92h8q43 -1 70 -33t27 -79z" />
    <glyph glyph-name="acute" unicode="&#xb4;" horiz-adv-x="285" 
d="M87 591h-66q-9 0 -12 5.5t2 12.5l80 131q6 10 18 10h88q9 0 11.5 -5t-3.5 -13l-100 -132q-6 -9 -18 -9z" />
    <glyph glyph-name="paragraph" unicode="&#xb6;" horiz-adv-x="683" 
d="M355 -139h-79q-15 0 -15 15v362q-108 0 -170.5 70.5t-62.5 168.5t63.5 168t176.5 70h317q15 0 15 -15v-824q0 -15 -15 -15h-79q-15 0 -15 15v732h-121v-732q0 -15 -15 -15z" />
    <glyph glyph-name="periodcentered" unicode="&#xb7;" horiz-adv-x="253" 
d="M200 312q0 -32 -21 -52.5t-53 -20.5q-33 0 -53 20.5t-20 52.5q0 33 20 53.5t53 20.5q32 0 53 -20.5t21 -53.5z" />
    <glyph glyph-name="cedilla" unicode="&#xb8;" horiz-adv-x="186" 
d="M208 -120q0 -42 -34.5 -64.5t-92.5 -22.5q-31 0 -57 9q-12 3 -12 17v30q0 15 17 12q22 -5 38 -5q53 0 53 31q0 28 -50 31q-12 0 -18 10q-2 6 2 14l22 51q4 11 17 11h34q19 0 12 -17l-15 -33q38 -3 61 -23t23 -51z" />
    <glyph glyph-name="one.sups" unicode="&#xb9;" horiz-adv-x="225" 
d="M162 410h-52q-15 0 -15 15v276l-36 -26q-11 -8 -19 4l-25 35q-8 12 3 20l83 58q7 6 18 6h43q15 0 15 -15v-358q0 -15 -15 -15z" />
    <glyph glyph-name="guillemotright" unicode="&#xbb;" horiz-adv-x="541" 
d="M142 71h-91q-20 0 -9 18l137 202l-137 202q-11 18 9 18h91q12 0 17 -9l135 -201q6 -10 0 -20l-135 -201q-5 -9 -17 -9zM351 71h-91q-20 0 -9 18l137 202l-137 202q-11 18 9 18h91q12 0 17 -9l135 -201q6 -10 0 -20l-135 -201q-5 -9 -17 -9z" />
    <glyph glyph-name="onequarter" unicode="&#xbc;" horiz-adv-x="842" 
d="M177 327h-52q-15 0 -15 15v276l-36 -26q-11 -8 -19 4l-25 35q-8 12 3 20l83 58q8 6 18 6h43q15 0 15 -15v-358q0 -15 -15 -15zM677 697l-495 -688q-6 -9 -18 -9h-59q-9 0 -12 5t2 13l496 688q6 9 17 9h60q9 0 11.5 -5.5t-2.5 -12.5zM758 0h-52q-15 0 -15 15v59h-167
q-15 0 -15 15v34q0 9 5 18l128 237q8 10 17 10h54q8 0 11 -5t-1 -13l-118 -218h86l1 60q2 15 15 15h51q15 0 15 -15v-60h25q15 0 15 -15v-48q0 -15 -15 -15h-25v-59q0 -15 -15 -15z" />
    <glyph glyph-name="onehalf" unicode="&#xbd;" horiz-adv-x="851" 
d="M177 327h-52q-15 0 -15 15v276l-36 -26q-11 -8 -19 4l-25 35q-8 12 3 20l83 58q8 6 18 6h43q15 0 15 -15v-358q0 -15 -15 -15zM665 697l-495 -688q-6 -9 -18 -9h-59q-9 0 -12 5t2 13l496 688q6 9 17 9h60q9 0 11.5 -5.5t-2.5 -12.5zM797 0h-244q-15 0 -15 15v42
q0 11 8 18l116 109q21 21 31.5 32.5t20.5 29.5t10 33q0 38 -47 38q-42 0 -77 -33q-12 -11 -21 1l-27 37q-7 12 1 20q55 51 129 51q56 0 89.5 -30.5t33.5 -80.5q0 -40 -20.5 -73.5t-70.5 -81.5q-15 -14 -56 -49h139q15 0 15 -14v-49q0 -15 -15 -15z" />
    <glyph glyph-name="threequarters" unicode="&#xbe;" horiz-adv-x="860" 
d="M314 451q0 -59 -39.5 -94.5t-100.5 -34.5q-78 1 -138 53q-9 9 -2 20l28 34q9 10 20 1q36 -31 90 -31q28 0 45 15.5t17 45.5q0 25 -17.5 39.5t-47.5 14.5q-16 0 -31 -3q-14 -2 -18 10l-8 18q-4 11 4 21l54 60q4 5 13 12.5t10 9.5h-127q-14 0 -14 15v43q0 15 14 15h221
q15 0 15 -15v-27q0 -8 -8 -18l-85 -92h8q43 -1 70 -33t27 -79zM732 697l-495 -688q-6 -9 -18 -9h-59q-9 0 -12 5t2 13l496 688q6 9 17 9h60q9 0 11.5 -5.5t-2.5 -12.5zM777 0h-52q-15 0 -15 15v59h-167q-15 0 -15 15v34q0 9 5 18l128 237q8 10 17 10h54q8 0 11 -5t-1 -13
l-118 -218h86l1 60q1 15 15 15h51q15 0 15 -15v-60h25q15 0 15 -15v-48q0 -15 -15 -15h-25v-59q0 -15 -15 -15z" />
    <glyph glyph-name="questiondown" unicode="&#xbf;" horiz-adv-x="490" 
d="M227 331h85q15 0 15 -14v-52q0 -39 -18.5 -68.5t-45 -48l-53 -36.5t-45 -44t-18.5 -59q0 -46 28.5 -76.5t87.5 -30.5q76 0 136 57q13 13 21 -2l44 -63q7 -10 -2 -20q-33 -31 -86 -53t-116 -22q-95 0 -161.5 54.5t-66.5 154.5q0 48 18.5 83t45 55.5t53 38.5t45 43t18.5 59
v30q0 14 15 14zM195 458q0 32 20.5 52.5t53.5 20.5q32 0 52 -20.5t20 -52.5t-20 -53t-52 -21q-33 0 -53.5 21t-20.5 53z" />
    <glyph glyph-name="Agrave" unicode="&#xc0;" horiz-adv-x="640" 
d="M117 0h-98q-17 0 -12 17l240 686q5 12 16 12h114q11 0 16 -12l240 -686q5 -17 -12 -17h-98q-14 0 -17 12l-49 151h-274l-49 -151q-4 -12 -17 -12zM318 583l-101 -311h206l-101 311h-4zM269 786l-125 133q-6 7 -3.5 12.5t12.5 5.5h96q12 0 18 -9l103 -132q11 -18 -10 -18
h-73q-11 0 -18 8z" />
    <glyph glyph-name="Aacute" unicode="&#xc1;" horiz-adv-x="640" 
d="M117 0h-98q-17 0 -12 17l240 686q5 12 16 12h114q11 0 16 -12l240 -686q5 -17 -12 -17h-98q-14 0 -17 12l-49 151h-274l-49 -151q-4 -12 -17 -12zM318 583l-101 -311h206l-101 311h-4zM480 919l-125 -133q-7 -8 -18 -8h-73q-21 0 -10 18l103 132q6 9 18 9h96
q10 0 12.5 -5.5t-3.5 -12.5z" />
    <glyph glyph-name="Acircumflex" unicode="&#xc2;" horiz-adv-x="640" 
d="M117 0h-98q-17 0 -12 17l240 686q5 12 16 12h114q11 0 16 -12l240 -686q5 -17 -12 -17h-98q-14 0 -17 12l-49 151h-274l-49 -151q-4 -12 -17 -12zM318 583l-101 -311h206l-101 311h-4zM238 778h-82q-9 0 -11.5 5t4.5 13l119 133q7 8 18 8h69q11 0 18 -8l119 -133
q6 -8 4 -13t-12 -5h-81q-11 0 -18 8l-65 71l-64 -71q-7 -8 -18 -8z" />
    <glyph glyph-name="Atilde" unicode="&#xc3;" horiz-adv-x="640" 
d="M117 0h-98q-17 0 -12 17l240 686q5 12 16 12h114q11 0 16 -12l240 -686q5 -17 -12 -17h-98q-14 0 -17 12l-49 151h-274l-49 -151q-4 -12 -17 -12zM318 583l-101 -311h206l-101 311h-4zM490 867q-10 -32 -35.5 -59.5t-59.5 -27.5q-27 0 -75 26q-42 23 -57 23
q-22 0 -38 -32q-7 -13 -20 -6l-48 26q-11 6 -6 19q12 33 36.5 58t57.5 25q31 0 75 -25q44 -24 61 -24q11 0 18 7t16 26q8 12 20 6l48 -27q12 -7 7 -15z" />
    <glyph glyph-name="Adieresis" unicode="&#xc4;" horiz-adv-x="640" 
d="M117 0h-98q-17 0 -12 17l240 686q5 12 16 12h114q11 0 16 -12l240 -686q5 -17 -12 -17h-98q-14 0 -17 12l-49 151h-274l-49 -151q-4 -12 -17 -12zM318 583l-101 -311h206l-101 311h-4zM280 850q0 -28 -18 -46t-46 -18t-46 18t-18 46t18 46t46 18t46 -18t18 -46zM489 850
q0 -28 -18.5 -46t-46.5 -18t-46 18t-18 46t18 46t46 18t46.5 -18t18.5 -46z" />
    <glyph glyph-name="Aring" unicode="&#xc5;" horiz-adv-x="640" 
d="M117 0h-98q-17 0 -12 17l240 686q5 12 16 12h114q11 0 16 -12l240 -686q5 -17 -12 -17h-98q-14 0 -17 12l-49 151h-274l-49 -151q-4 -12 -17 -12zM318 583l-101 -311h206l-101 311h-4zM438 872q0 -52 -33 -82.5t-84 -30.5q-53 0 -87 31t-34 83q0 51 34 82t87 31
q51 0 84 -31.5t33 -82.5zM269 872q0 -22 14 -35t37 -13q22 0 35.5 13t13.5 35t-13.5 35.5t-35.5 13.5q-23 0 -37 -13.5t-14 -35.5z" />
    <glyph glyph-name="AE" unicode="&#xc6;" horiz-adv-x="886" 
d="M521 305v-194h302q15 0 15 -15v-81q0 -15 -15 -15h-407q-15 0 -15 15v151h-199l-72 -155q-4 -11 -17 -11h-101q-8 0 -11 5t1 13l327 686q5 11 17 11h463q14 0 14 -15v-81q0 -14 -14 -14h-288v-190h262q15 0 15 -15v-80q0 -15 -15 -15h-262zM399 600l-148 -325h150v325h-2
z" />
    <glyph glyph-name="Ccedilla" unicode="&#xc7;" horiz-adv-x="593" 
d="M435 -119q0 -44 -35.5 -67.5t-94.5 -23.5q-31 0 -57 9q-12 3 -12 17v32q0 15 17 12q22 -5 38 -5q52 0 53 31q0 28 -52 31q-12 0 -18 10q-2 6 2 14l21 48q-106 10 -171.5 74.5t-65.5 179.5v228q0 125 78 190.5t196 65.5t214 -67q11 -8 3 -20l-47 -68q-7 -12 -21 -4
q-65 45 -149 45q-72 0 -112.5 -38t-40.5 -105v-224q0 -68 40.5 -106.5t113.5 -38.5q93 0 166 53q13 9 20 -4l47 -68q8 -13 -2 -21q-86 -67 -202 -73l-15 -35q39 -3 62.5 -22.5t23.5 -49.5z" />
    <glyph glyph-name="Egrave" unicode="&#xc8;" horiz-adv-x="586" 
d="M203 308v-198h321q15 0 15 -14v-81q0 -15 -15 -15h-428q-14 0 -14 15v685q0 15 14 15h414q15 0 15 -15v-81q0 -14 -15 -14h-307v-187h281q15 0 15 -15v-80q0 -15 -15 -15h-281zM272 786l-125 133q-6 7 -3.5 12.5t12.5 5.5h96q12 0 18 -9l103 -132q11 -18 -10 -18h-73
q-11 0 -18 8z" />
    <glyph glyph-name="Eacute" unicode="&#xc9;" horiz-adv-x="586" 
d="M203 308v-198h321q15 0 15 -14v-81q0 -15 -15 -15h-428q-14 0 -14 15v685q0 15 14 15h414q15 0 15 -15v-81q0 -14 -15 -14h-307v-187h281q15 0 15 -15v-80q0 -15 -15 -15h-281zM464 919l-125 -133q-7 -8 -18 -8h-73q-21 0 -10 18l103 132q6 9 18 9h96q10 0 12.5 -5.5
t-3.5 -12.5z" />
    <glyph glyph-name="Ecircumflex" unicode="&#xca;" horiz-adv-x="586" 
d="M203 308v-198h321q15 0 15 -14v-81q0 -15 -15 -15h-428q-14 0 -14 15v685q0 15 14 15h414q15 0 15 -15v-81q0 -14 -15 -14h-307v-187h281q15 0 15 -15v-80q0 -15 -15 -15h-281zM228 778h-82q-9 0 -11.5 5t4.5 13l119 133q7 8 18 8h69q11 0 18 -8l119 -133q6 -8 4 -13
t-12 -5h-81q-11 0 -18 8l-65 71l-64 -71q-7 -8 -18 -8z" />
    <glyph glyph-name="Edieresis" unicode="&#xcb;" horiz-adv-x="586" 
d="M203 308v-198h321q15 0 15 -14v-81q0 -15 -15 -15h-428q-14 0 -14 15v685q0 15 14 15h414q15 0 15 -15v-81q0 -14 -15 -14h-307v-187h281q15 0 15 -15v-80q0 -15 -15 -15h-281zM271 850q0 -28 -18 -46t-46 -18t-46 18t-18 46t18 46t46 18t46 -18t18 -46zM480 850
q0 -28 -18.5 -46t-46.5 -18t-46 18t-18 46t18 46t46 18t46.5 -18t18.5 -46z" />
    <glyph glyph-name="Igrave" unicode="&#xcc;" horiz-adv-x="284" 
d="M202 700v-685q0 -15 -14 -15h-92q-14 0 -14 15v685q0 15 14 15h92q14 0 14 -15zM96 786l-125 133q-6 7 -3.5 12.5t12.5 5.5h96q12 0 18 -9l103 -132q11 -18 -10 -18h-73q-11 0 -18 8z" />
    <glyph glyph-name="Iacute" unicode="&#xcd;" horiz-adv-x="284" 
d="M202 700v-685q0 -15 -14 -15h-92q-14 0 -14 15v685q0 15 14 15h92q14 0 14 -15zM303 919l-125 -133q-7 -8 -18 -8h-73q-21 0 -10 18l103 132q6 9 18 9h96q10 0 12.5 -5.5t-3.5 -12.5z" />
    <glyph glyph-name="Icircumflex" unicode="&#xce;" horiz-adv-x="285" 
d="M77 778h-76q-9 0 -11.5 5t2.5 13l100 132q6 9 17 9h63q10 0 18 -9l99 -132q5 -8 2.5 -13t-11.5 -5h-76q-12 0 -18 9l-45 67l-46 -67q-6 -9 -18 -9zM203 700v-685q0 -15 -15 -15h-91q-15 0 -15 15v685q0 15 15 15h91q15 0 15 -15z" />
    <glyph glyph-name="Idieresis" unicode="&#xcf;" horiz-adv-x="284" 
d="M188 0h-92q-14 0 -14 15v685q0 15 14 15h92q14 0 14 -15v-685q0 -15 -14 -15zM113 850q0 -28 -18 -46t-45 -18q-28 0 -46 18t-18 46t18 46t46 18q27 0 45 -18t18 -46zM300 850q0 -28 -18.5 -46t-46.5 -18t-46 18t-18 46t18 46t46 18t46.5 -18t18.5 -46z" />
    <glyph glyph-name="Eth" unicode="&#xd0;" horiz-adv-x="683" 
d="M106 715h248q127 0 198.5 -67.5t71.5 -196.5v-190q0 -128 -71.5 -194.5t-198.5 -66.5h-248q-15 0 -15 15v313h-63q-15 0 -15 15v50q0 14 15 14h63v293q0 15 15 15zM354 113q146 0 146 147v192q0 152 -146 152h-141v-197h141q15 0 15 -14v-50q0 -15 -15 -15h-141v-215h141
z" />
    <glyph glyph-name="Ntilde" unicode="&#xd1;" horiz-adv-x="706" 
d="M187 0h-91q-14 0 -14 15v685q0 15 14 15h101q11 0 18 -10l195 -340l100 -181l3 1q-9 128 -9 271v244q0 15 15 15h90q15 0 15 -15v-685q0 -15 -15 -15h-101q-11 0 -17 10l-189 313q-59 95 -107 197l-3 -1q9 -155 9 -275v-229q0 -15 -14 -15zM523 867q-10 -32 -35.5 -59.5
t-59.5 -27.5q-27 0 -75 26q-42 23 -57 23q-22 0 -38 -32q-7 -13 -20 -6l-48 26q-11 6 -6 19q12 33 36.5 58t57.5 25q31 0 75 -25q44 -24 61 -24q11 0 18 7t16 26q8 12 20 6l48 -27q12 -7 7 -15z" />
    <glyph glyph-name="Ograve" unicode="&#xd2;" horiz-adv-x="678" 
d="M620 266q0 -131 -74 -204.5t-207 -73.5t-207 73.5t-74 204.5v184q0 131 74 204t207 73t207 -73t74 -204v-184zM181 266q0 -80 40 -122t118 -42t118 42t40 122v183q0 165 -158 165t-158 -165v-183zM306 786l-125 133q-6 7 -3.5 12.5t12.5 5.5h96q12 0 18 -9l103 -132
q11 -18 -10 -18h-73q-11 0 -18 8z" />
    <glyph glyph-name="Oacute" unicode="&#xd3;" horiz-adv-x="678" 
d="M620 266q0 -131 -74 -204.5t-207 -73.5t-207 73.5t-74 204.5v184q0 131 74 204t207 73t207 -73t74 -204v-184zM181 266q0 -80 40 -122t118 -42t118 42t40 122v183q0 165 -158 165t-158 -165v-183zM484 919l-125 -133q-7 -8 -18 -8h-73q-21 0 -10 18l103 132q6 9 18 9h96
q10 0 12.5 -5.5t-3.5 -12.5z" />
    <glyph glyph-name="Ocircumflex" unicode="&#xd4;" horiz-adv-x="678" 
d="M620 266q0 -131 -74 -204.5t-207 -73.5t-207 73.5t-74 204.5v184q0 131 74 204t207 73t207 -73t74 -204v-184zM181 266q0 -80 40 -122t118 -42t118 42t40 122v183q0 165 -158 165t-158 -165v-183zM257 778h-82q-9 0 -11.5 5t4.5 13l119 133q7 8 18 8h69q11 0 18 -8
l119 -133q6 -8 4 -13t-12 -5h-81q-11 0 -18 8l-65 71l-64 -71q-7 -8 -18 -8z" />
    <glyph glyph-name="Otilde" unicode="&#xd5;" horiz-adv-x="678" 
d="M620 266q0 -131 -74 -204.5t-207 -73.5t-207 73.5t-74 204.5v184q0 131 74 204t207 73t207 -73t74 -204v-184zM181 266q0 -80 40 -122t118 -42t118 42t40 122v183q0 165 -158 165t-158 -165v-183zM509 867q-10 -32 -35.5 -59.5t-59.5 -27.5q-27 0 -75 26q-42 23 -57 23
q-22 0 -38 -32q-7 -13 -20 -6l-48 26q-11 6 -6 19q12 33 36.5 58t57.5 25q31 0 75 -25q44 -24 61 -24q11 0 18 7t16 26q8 12 20 6l48 -27q12 -7 7 -15z" />
    <glyph glyph-name="Odieresis" unicode="&#xd6;" horiz-adv-x="678" 
d="M620 266q0 -131 -74 -204.5t-207 -73.5t-207 73.5t-74 204.5v184q0 131 74 204t207 73t207 -73t74 -204v-184zM181 266q0 -80 40 -122t118 -42t118 42t40 122v183q0 165 -158 165t-158 -165v-183zM299 850q0 -28 -18 -46t-46 -18t-46 18t-18 46t18 46t46 18t46 -18
t18 -46zM508 850q0 -28 -18.5 -46t-46.5 -18t-46 18t-18 46t18 46t46 18t46.5 -18t18.5 -46z" />
    <glyph glyph-name="multiply" unicode="&#xd7;" 
d="M300 251l-153 -154q-11 -10 -21 0l-57 56q-10 11 0 21l154 155l-154 153q-10 10 0 21l57 56q10 10 21 0l153 -153l153 153q11 10 21 0l56 -56q11 -11 0 -21l-153 -153l153 -155q11 -10 0 -21l-56 -56q-10 -11 -21 0z" />
    <glyph glyph-name="Oslash" unicode="&#xd8;" horiz-adv-x="695" 
d="M175 -56h-70q-8 0 -11.5 5.5t0.5 12.5l48 91q-84 73 -84 211v186q0 131 76 204t213 73q78 0 135 -24l26 49q6 10 17 10h71q8 0 11 -5t-1 -12l-47 -90q78 -72 78 -205v-186q0 -130 -76.5 -203t-213.5 -73q-70 0 -127 20l-28 -53q-5 -11 -17 -11zM184 268q0 -58 22 -92
l222 422q-32 14 -81 14q-163 0 -163 -163v-181zM276 115q27 -11 71 -11q163 0 163 160v180q0 53 -17 84z" />
    <glyph glyph-name="Ugrave" unicode="&#xd9;" horiz-adv-x="698" 
d="M621 249q0 -119 -74.5 -190t-198.5 -71q-123 0 -197 71.5t-74 189.5v451q0 15 15 15h93q15 0 15 -15v-444q0 -75 38.5 -115.5t109.5 -40.5t110.5 40.5t39.5 115.5v444q0 15 15 15h93q15 0 15 -15v-451zM312 786l-125 133q-6 7 -3.5 12.5t12.5 5.5h96q12 0 18 -9l103 -132
q11 -18 -10 -18h-73q-11 0 -18 8z" />
    <glyph glyph-name="Uacute" unicode="&#xda;" horiz-adv-x="698" 
d="M621 249q0 -119 -74.5 -190t-198.5 -71q-123 0 -197 71.5t-74 189.5v451q0 15 15 15h93q15 0 15 -15v-444q0 -75 38.5 -115.5t109.5 -40.5t110.5 40.5t39.5 115.5v444q0 15 15 15h93q15 0 15 -15v-451zM498 919l-125 -133q-7 -8 -18 -8h-73q-21 0 -10 18l103 132
q6 9 18 9h96q10 0 12.5 -5.5t-3.5 -12.5z" />
    <glyph glyph-name="Ucircumflex" unicode="&#xdb;" horiz-adv-x="698" 
d="M621 249q0 -119 -74.5 -190t-198.5 -71q-123 0 -197 71.5t-74 189.5v451q0 15 15 15h93q15 0 15 -15v-444q0 -75 38.5 -115.5t109.5 -40.5t110.5 40.5t39.5 115.5v444q0 15 15 15h93q15 0 15 -15v-451zM267 778h-82q-9 0 -11.5 5t4.5 13l119 133q7 8 18 8h69q11 0 18 -8
l119 -133q6 -8 4 -13t-12 -5h-81q-11 0 -18 8l-65 71l-64 -71q-7 -8 -18 -8z" />
    <glyph glyph-name="Udieresis" unicode="&#xdc;" horiz-adv-x="698" 
d="M621 249q0 -119 -74.5 -190t-198.5 -71q-123 0 -197 71.5t-74 189.5v451q0 15 15 15h93q15 0 15 -15v-444q0 -75 38.5 -115.5t109.5 -40.5t110.5 40.5t39.5 115.5v444q0 15 15 15h93q15 0 15 -15v-451zM309 850q0 -28 -18 -46t-46 -18t-46 18t-18 46t18 46t46 18t46 -18
t18 -46zM518 850q0 -28 -18.5 -46t-46.5 -18t-46 18t-18 46t18 46t46 18t46.5 -18t18.5 -46z" />
    <glyph glyph-name="Yacute" unicode="&#xdd;" horiz-adv-x="592" 
d="M342 0h-92q-15 0 -15 15v249l-230 433q-4 7 -1 12.5t12 5.5h105q12 0 16 -11l159 -329l158 329q4 11 17 11h105q8 0 11 -5.5t-1 -12.5l-229 -435v-247q0 -15 -15 -15zM456 919l-125 -133q-7 -8 -18 -8h-73q-21 0 -10 18l103 132q6 9 18 9h96q10 0 12.5 -5.5t-3.5 -12.5z
" />
    <glyph glyph-name="Thorn" unicode="&#xde;" horiz-adv-x="650" 
d="M190 0h-94q-14 0 -14 15v685q0 15 14 15h94q15 0 15 -15v-85h145q119 0 187.5 -64.5t68.5 -177.5q0 -114 -68.5 -178.5t-187.5 -64.5h-145v-115q0 -15 -15 -15zM205 501v-257h140q71 0 102.5 32t31.5 97q0 128 -134 128h-140z" />
    <glyph glyph-name="germandbls" unicode="&#xdf;" horiz-adv-x="575" 
d="M507 522q0 -43 -19 -82.5t-58 -58.5q52 -24 79 -68.5t27 -101.5q0 -97 -63 -155t-153 -58q-47 0 -87 13q-12 5 -12 16v80q0 15 16 12q33 -9 69 -9q47 0 80 28.5t33 77.5q0 53 -31 78.5t-81 25.5h-71q-15 0 -15 14v75q0 14 15 14h67q38 0 62.5 27t24.5 72q0 104 -105 104
t-105 -114v-497q0 -15 -15 -15h-86q-15 0 -15 15v497q0 104 62.5 159.5t159.5 55.5t159 -53t62 -152z" />
    <glyph glyph-name="agrave" unicode="&#xe0;" horiz-adv-x="520" 
d="M59 477q77 53 196 53q97 0 152.5 -50.5t55.5 -152.5v-292q0 -12 -11 -17q-97 -30 -201 -30q-97 0 -160 40t-63 127q0 79 59.5 119.5t159.5 40.5q40 0 100 -8v19q0 54 -22.5 77.5t-77.5 23.5q-74 0 -128 -32q-12 -9 -20 4l-40 61q-7 11 0 17zM145 156q0 -34 29 -50.5
t77 -16.5q46 0 96 12v113q-54 8 -97 8q-105 0 -105 -66zM317 591h-66q-12 0 -18 9l-100 132q-6 8 -3.5 13t11.5 5h88q12 0 18 -10l80 -131q5 -7 2 -12.5t-12 -5.5z" />
    <glyph glyph-name="aacute" unicode="&#xe1;" horiz-adv-x="520" 
d="M59 477q77 53 196 53q97 0 152.5 -50.5t55.5 -152.5v-292q0 -12 -11 -17q-97 -30 -201 -30q-97 0 -160 40t-63 127q0 79 59.5 119.5t159.5 40.5q40 0 100 -8v19q0 54 -22.5 77.5t-77.5 23.5q-74 0 -128 -32q-12 -9 -20 4l-40 61q-7 11 0 17zM145 156q0 -34 29 -50.5
t77 -16.5q46 0 96 12v113q-54 8 -97 8q-105 0 -105 -66zM259 591h-66q-9 0 -12 5.5t2 12.5l80 131q6 10 18 10h88q9 0 11.5 -5t-3.5 -13l-100 -132q-6 -9 -18 -9z" />
    <glyph glyph-name="acircumflex" unicode="&#xe2;" horiz-adv-x="520" 
d="M59 477q77 53 196 53q97 0 152.5 -50.5t55.5 -152.5v-292q0 -12 -11 -17q-97 -30 -201 -30q-97 0 -160 40t-63 127q0 79 59.5 119.5t159.5 40.5q40 0 100 -8v19q0 54 -22.5 77.5t-77.5 23.5q-74 0 -128 -32q-12 -9 -20 4l-40 61q-7 11 0 17zM145 156q0 -34 29 -50.5
t77 -16.5q46 0 96 12v113q-54 8 -97 8q-105 0 -105 -66zM175 591h-71q-21 0 -8 18l113 132q7 9 18 9h59q12 0 18 -9l112 -132q13 -18 -7 -18h-71q-12 0 -18 8l-63 75l-65 -75q-8 -8 -17 -8z" />
    <glyph glyph-name="atilde" unicode="&#xe3;" horiz-adv-x="520" 
d="M59 477q77 53 196 53q97 0 152.5 -50.5t55.5 -152.5v-292q0 -12 -11 -17q-97 -30 -201 -30q-97 0 -160 40t-63 127q0 79 59.5 119.5t159.5 40.5q40 0 100 -8v19q0 54 -22.5 77.5t-77.5 23.5q-74 0 -128 -32q-12 -9 -20 4l-40 61q-7 11 0 17zM145 156q0 -34 29 -50.5
t77 -16.5q46 0 96 12v113q-54 8 -97 8q-105 0 -105 -66zM424 663q-11 -32 -36.5 -59t-59.5 -27q-27 0 -75 26q-42 23 -57 23q-20 0 -38 -32q-7 -13 -20 -7l-47 27q-12 6 -7 19q13 33 37 58t57 25q29 0 75 -26q46 -23 62 -23q17 0 34 32q7 13 20 7l47 -27q11 -6 8 -16z" />
    <glyph glyph-name="adieresis" unicode="&#xe4;" horiz-adv-x="520" 
d="M59 477q77 53 196 53q97 0 152.5 -50.5t55.5 -152.5v-292q0 -12 -11 -17q-97 -30 -201 -30q-97 0 -160 40t-63 127q0 79 59.5 119.5t159.5 40.5q40 0 100 -8v19q0 54 -22.5 77.5t-77.5 23.5q-74 0 -128 -32q-12 -9 -20 4l-40 61q-7 11 0 17zM145 156q0 -34 29 -50.5
t77 -16.5q46 0 96 12v113q-54 8 -97 8q-105 0 -105 -66zM215 653q0 -28 -17 -44.5t-44 -16.5t-44.5 16.5t-17.5 44.5q0 29 17.5 45.5t44.5 16.5t44 -16.5t17 -45.5zM420 653q0 -28 -17 -44.5t-44 -16.5t-44.5 16.5t-17.5 44.5q0 29 17 45.5t45 16.5q27 0 44 -16.5t17 -45.5z
" />
    <glyph glyph-name="aring" unicode="&#xe5;" horiz-adv-x="520" 
d="M59 477q77 53 196 53q97 0 152.5 -50.5t55.5 -152.5v-292q0 -12 -11 -17q-97 -30 -201 -30q-97 0 -160 40t-63 127q0 79 59.5 119.5t159.5 40.5q40 0 100 -8v19q0 54 -22.5 77.5t-77.5 23.5q-74 0 -128 -32q-12 -9 -20 4l-40 61q-7 11 0 17zM145 156q0 -34 29 -50.5
t77 -16.5q46 0 96 12v113q-54 8 -97 8q-105 0 -105 -66zM366 674q0 -50 -31 -79.5t-81 -29.5q-52 0 -85 30t-33 80t33 80.5t85 30.5q49 0 80.5 -31t31.5 -81zM203 674q0 -20 14 -33t36 -13q21 0 34 13t13 33q0 23 -12.5 36t-34.5 13q-23 0 -36.5 -13.5t-13.5 -35.5z" />
    <glyph glyph-name="ae" unicode="&#xe6;" horiz-adv-x="809" 
d="M554 -12q-81 0 -139 45q-69 -45 -171 -45q-89 0 -152.5 42.5t-63.5 124.5q0 78 59 118.5t154 40.5q50 0 99 -7v36q0 83 -100 83q-68 0 -130 -32q-12 -8 -20 5l-35 59q-7 12 4 20q84 52 185 52q92 0 156 -64q64 64 160 64q85 0 146 -50t61 -143v-110q0 -15 -15 -15h-298
v-27q0 -93 103 -93q82 0 136 47q11 9 21 -2l43 -57q7 -12 -1 -20q-78 -72 -202 -72zM144 157q0 -34 28.5 -51t70.5 -17q61 0 109 23q-12 27 -12 63v42q-52 6 -88 6q-108 0 -108 -66zM454 330v-29h202v31q0 48 -28 72.5t-72 24.5q-45 0 -73.5 -24.5t-28.5 -74.5z" />
    <glyph glyph-name="ccedilla" unicode="&#xe7;" horiz-adv-x="472" 
d="M361 -120q0 -42 -34.5 -64.5t-92.5 -22.5q-32 0 -57 9q-12 3 -12 17v30q0 15 17 12q22 -5 38 -5q53 0 53 31q0 28 -50 31q-12 0 -18 10q-2 6 2 14l21 49q-86 10 -134 63t-48 136v139q0 92 60 146.5t163 54.5q87 0 164 -48q12 -8 4 -21l-39 -60q-8 -11 -21 -4
q-50 29 -105 29q-53 0 -81.5 -25t-28.5 -72v-140q0 -46 28.5 -71.5t80.5 -25.5q61 0 116 36q14 8 21 -4l42 -60q8 -12 -3 -20q-71 -49 -155 -55v-2l-15 -33q38 -3 61 -23t23 -51z" />
    <glyph glyph-name="egrave" unicode="&#xe8;" horiz-adv-x="524" 
d="M483 325v-101q0 -14 -15 -14h-304v-28q0 -45 28.5 -68.5t77.5 -23.5q73 0 141 46q12 8 20 -3l41 -55q10 -11 -3 -21q-87 -69 -203 -69q-92 0 -155.5 50.5t-63.5 144.5v142q0 103 64 154t156 51q91 0 153.5 -51t62.5 -154zM370 326q0 52 -29 77t-74 25q-103 0 -103 -102
v-26h206v26zM318 591h-66q-12 0 -18 9l-100 132q-6 8 -3.5 13t11.5 5h88q12 0 18 -10l80 -131q5 -7 2 -12.5t-12 -5.5z" />
    <glyph glyph-name="eacute" unicode="&#xe9;" horiz-adv-x="524" 
d="M483 325v-101q0 -14 -15 -14h-304v-28q0 -45 28.5 -68.5t77.5 -23.5q73 0 141 46q12 8 20 -3l41 -55q10 -11 -3 -21q-87 -69 -203 -69q-92 0 -155.5 50.5t-63.5 144.5v142q0 103 64 154t156 51q91 0 153.5 -51t62.5 -154zM370 326q0 52 -29 77t-74 25q-103 0 -103 -102
v-26h206v26zM271 591h-66q-9 0 -12 5.5t2 12.5l80 131q6 10 18 10h88q9 0 11.5 -5t-3.5 -13l-100 -132q-6 -9 -18 -9z" />
    <glyph glyph-name="ecircumflex" unicode="&#xea;" horiz-adv-x="524" 
d="M483 325v-101q0 -14 -15 -14h-304v-28q0 -45 28.5 -68.5t77.5 -23.5q73 0 141 46q12 8 20 -3l41 -55q10 -11 -3 -21q-87 -69 -203 -69q-92 0 -155.5 50.5t-63.5 144.5v142q0 103 64 154t156 51q91 0 153.5 -51t62.5 -154zM370 326q0 52 -29 77t-74 25q-103 0 -103 -102
v-26h206v26zM185 591h-71q-21 0 -8 18l113 132q7 9 18 9h59q12 0 18 -9l112 -132q13 -18 -7 -18h-71q-12 0 -18 8l-63 75l-65 -75q-8 -8 -17 -8z" />
    <glyph glyph-name="edieresis" unicode="&#xeb;" horiz-adv-x="524" 
d="M483 325v-101q0 -14 -15 -14h-304v-28q0 -45 28.5 -68.5t77.5 -23.5q73 0 141 46q12 8 20 -3l41 -55q10 -11 -3 -21q-87 -69 -203 -69q-92 0 -155.5 50.5t-63.5 144.5v142q0 103 64 154t156 51q91 0 153.5 -51t62.5 -154zM370 326q0 52 -29 77t-74 25q-103 0 -103 -102
v-26h206v26zM223 653q0 -28 -17 -44.5t-44 -16.5t-44.5 16.5t-17.5 44.5q0 29 17.5 45.5t44.5 16.5t44 -16.5t17 -45.5zM428 653q0 -28 -17 -44.5t-44 -16.5t-44.5 16.5t-17.5 44.5q0 29 17 45.5t45 16.5q27 0 44 -16.5t17 -45.5z" />
    <glyph glyph-name="igrave" unicode="&#xec;" horiz-adv-x="242" 
d="M164 0h-86q-15 0 -15 15v489q0 14 15 14h86q15 0 15 -14v-489q0 -15 -15 -15zM174 591h-66q-12 0 -18 9l-100 132q-6 8 -3.5 13t11.5 5h88q12 0 18 -10l80 -131q5 -7 2 -12.5t-12 -5.5z" />
    <glyph glyph-name="iacute" unicode="&#xed;" horiz-adv-x="242" 
d="M164 0h-86q-15 0 -15 15v489q0 14 15 14h86q15 0 15 -14v-489q0 -15 -15 -15zM128 591h-66q-9 0 -12 5.5t2 12.5l80 131q6 10 18 10h88q9 0 11.5 -5t-3.5 -13l-100 -132q-6 -9 -18 -9z" />
    <glyph glyph-name="icircumflex" unicode="&#xee;" horiz-adv-x="242" 
d="M165 0h-87q-15 0 -15 15v489q0 14 15 14h87q14 0 14 -14v-489q0 -15 -14 -15zM58 591h-69q-9 0 -11.5 5.5t2.5 12.5l94 131q6 10 18 10h59q11 0 18 -10l94 -131q5 -7 2.5 -12.5t-11.5 -5.5h-69q-11 0 -18 9l-46 76l-45 -75q-8 -10 -18 -10z" />
    <glyph glyph-name="idieresis" unicode="&#xef;" horiz-adv-x="242" 
d="M164 0h-87q-14 0 -14 15v489q0 14 14 14h87q15 0 15 -14v-489q0 -15 -15 -15zM102 654q0 -26 -17 -43t-42 -17t-42.5 17t-17.5 43t17 43.5t43 17.5q25 0 42 -17.5t17 -43.5zM258 654q0 -26 -17.5 -43t-43.5 -17q-25 0 -42 17t-17 43t17 43.5t42 17.5q26 0 43.5 -17.5
t17.5 -43.5z" />
    <glyph glyph-name="eth" unicode="&#xf0;" horiz-adv-x="554" 
d="M434 675l-46 -34q110 -101 111 -271v-178q0 -94 -62 -149t-165 -55q-104 0 -166 55t-62 148v97q0 92 60 148t157 56q77 0 127 -45q-11 79 -84 133l-84 -62q-12 -8 -21 4l-21 28q-8 11 4 21l60 44q-52 23 -105 23q-15 0 -15 15v68q0 14 15 14q108 0 197 -53l62 46
q11 10 22 -3l20 -29q8 -12 -4 -21zM161 190q0 -98 111 -98q109 0 111 98v97q1 49 -28.5 76t-82.5 27q-54 0 -82.5 -26.5t-28.5 -76.5v-97z" />
    <glyph glyph-name="ntilde" unicode="&#xf1;" horiz-adv-x="562" 
d="M163 0h-86q-15 0 -15 15v458q0 13 11 18q90 39 199 39t170.5 -54.5t61.5 -169.5v-291q0 -15 -14 -15h-87q-15 0 -15 15v289q0 67 -29 94.5t-87 27.5q-52 0 -94 -11v-400q0 -15 -15 -15zM445 663q-11 -32 -36.5 -59t-59.5 -27q-27 0 -75 26q-42 23 -57 23q-20 0 -38 -32
q-7 -13 -20 -7l-47 27q-12 6 -7 19q13 33 37 58t57 25q29 0 75 -26q46 -23 62 -23q17 0 34 32q6 13 20 7l47 -27q11 -6 8 -16z" />
    <glyph glyph-name="ograve" unicode="&#xf2;" horiz-adv-x="548" 
d="M502 190q0 -93 -62 -147.5t-166 -54.5t-166 54.5t-62 147.5v134q0 94 62 150t166 56t166 -56t62 -150v-134zM163 190q0 -98 111 -98q54 0 82.5 25t28.5 73v134q0 49 -29 75.5t-82 26.5q-54 0 -82.5 -26t-28.5 -76v-134zM334 591h-66q-12 0 -18 9l-100 132q-6 8 -3.5 13
t11.5 5h88q12 0 18 -10l80 -131q5 -7 2 -12.5t-12 -5.5z" />
    <glyph glyph-name="oacute" unicode="&#xf3;" horiz-adv-x="548" 
d="M502 190q0 -93 -62 -147.5t-166 -54.5t-166 54.5t-62 147.5v134q0 94 62 150t166 56t166 -56t62 -150v-134zM163 190q0 -98 111 -98q54 0 82.5 25t28.5 73v134q0 49 -29 75.5t-82 26.5q-54 0 -82.5 -26t-28.5 -76v-134zM273 591h-66q-9 0 -12 5.5t2 12.5l80 131
q6 10 18 10h88q9 0 11.5 -5t-3.5 -13l-100 -132q-6 -9 -18 -9z" />
    <glyph glyph-name="ocircumflex" unicode="&#xf4;" horiz-adv-x="548" 
d="M502 190q0 -93 -62 -147.5t-166 -54.5t-166 54.5t-62 147.5v134q0 94 62 150t166 56t166 -56t62 -150v-134zM163 190q0 -98 111 -98q54 0 82.5 25t28.5 73v134q0 49 -29 75.5t-82 26.5q-54 0 -82.5 -26t-28.5 -76v-134zM193 591h-71q-21 0 -8 18l113 132q8 9 18 9h59
q12 0 18 -9l112 -132q13 -18 -7 -18h-71q-12 0 -18 8l-63 75l-65 -75q-8 -8 -17 -8z" />
    <glyph glyph-name="otilde" unicode="&#xf5;" horiz-adv-x="548" 
d="M502 190q0 -93 -62 -147.5t-166 -54.5t-166 54.5t-62 147.5v134q0 94 62 150t166 56t166 -56t62 -150v-134zM163 190q0 -98 111 -98q54 0 82.5 25t28.5 73v134q0 49 -29 75.5t-82 26.5q-54 0 -82.5 -26t-28.5 -76v-134zM443 663q-11 -32 -36.5 -59t-59.5 -27
q-27 0 -75 26q-42 23 -57 23q-20 0 -38 -32q-7 -13 -20 -7l-47 27q-12 6 -7 19q13 33 37 58t57 25q29 0 75 -26q46 -23 62 -23q17 0 34 32q6 13 20 7l47 -27q11 -6 8 -16z" />
    <glyph glyph-name="odieresis" unicode="&#xf6;" horiz-adv-x="548" 
d="M502 190q0 -93 -62 -147.5t-166 -54.5t-166 54.5t-62 147.5v134q0 94 62 150t166 56t166 -56t62 -150v-134zM163 190q0 -98 111 -98q54 0 82.5 25t28.5 73v134q0 49 -29 75.5t-82 26.5q-54 0 -82.5 -26t-28.5 -76v-134zM233 653q0 -28 -17 -44.5t-44 -16.5t-44.5 16.5
t-17.5 44.5q0 29 17.5 45.5t44.5 16.5t44 -16.5t17 -45.5zM438 653q0 -28 -17 -44.5t-44 -16.5t-44.5 16.5t-17.5 44.5q0 29 17 45.5t45 16.5q27 0 44 -16.5t17 -45.5z" />
    <glyph glyph-name="divide" unicode="&#xf7;" 
d="M514 281h-428q-14 0 -14 15v78q0 15 14 15h428q14 0 14 -15v-78q0 -15 -14 -15zM376 149q0 -32 -21 -53t-54 -21t-53 20.5t-20 53.5t20 54t53 21t54 -21t21 -54zM376 517q0 -33 -21 -53.5t-54 -20.5t-53 20.5t-20 53.5t20 53.5t53 20.5t54 -21t21 -53z" />
    <glyph glyph-name="oslash" unicode="&#xf8;" horiz-adv-x="548" 
d="M131 -60h-67q-9 0 -12 5t1 13l50 89q-57 54 -57 143v134q0 94 62 150t166 56q55 0 94 -14l31 57q7 10 18 10h67q20 0 11 -17l-53 -93q60 -58 60 -149v-134q0 -93 -62 -147.5t-166 -54.5q-52 0 -96 15l-30 -52q-6 -11 -17 -11zM163 199q0 -19 5 -37l147 260q-16 4 -41 4
q-53 0 -82 -26.5t-29 -76.5v-124zM274 91q54 0 82.5 25.5t28.5 74.5v125q0 20 -7 43l-147 -262q20 -6 43 -6z" />
    <glyph glyph-name="ugrave" unicode="&#xf9;" horiz-adv-x="556" 
d="M392 518h87q15 0 15 -14v-458q0 -13 -11 -18q-91 -40 -196 -40q-107 0 -168 55t-61 170v291q0 14 15 14h87q14 0 14 -14v-289q0 -67 28.5 -95t84.5 -28t91 12v400q0 14 14 14zM331 591h-66q-12 0 -18 9l-100 132q-6 8 -3.5 13t11.5 5h88q12 0 18 -10l80 -131
q5 -7 2 -12.5t-12 -5.5z" />
    <glyph glyph-name="uacute" unicode="&#xfa;" horiz-adv-x="556" 
d="M392 518h87q15 0 15 -14v-458q0 -13 -11 -18q-91 -40 -196 -40q-107 0 -168 55t-61 170v291q0 14 15 14h87q14 0 14 -14v-289q0 -67 28.5 -95t84.5 -28t91 12v400q0 14 14 14zM286 591h-66q-9 0 -12 5.5t2 12.5l80 131q6 10 18 10h88q9 0 11.5 -5t-3.5 -13l-100 -132
q-6 -9 -18 -9z" />
    <glyph glyph-name="ucircumflex" unicode="&#xfb;" horiz-adv-x="556" 
d="M392 518h87q15 0 15 -14v-458q0 -13 -11 -18q-91 -40 -196 -40q-107 0 -168 55t-61 170v291q0 14 15 14h87q14 0 14 -14v-289q0 -67 28.5 -95t84.5 -28t91 12v400q0 14 14 14zM199 591h-71q-21 0 -8 18l113 132q7 9 18 9h59q12 0 18 -9l112 -132q13 -18 -7 -18h-71
q-12 0 -18 8l-63 75l-65 -75q-8 -8 -17 -8z" />
    <glyph glyph-name="udieresis" unicode="&#xfc;" horiz-adv-x="556" 
d="M392 518h87q15 0 15 -14v-458q0 -13 -11 -18q-91 -40 -196 -40q-107 0 -168 55t-61 170v291q0 14 15 14h87q14 0 14 -14v-289q0 -67 28.5 -95t84.5 -28t91 12v400q0 14 14 14zM241 653q0 -28 -17 -44.5t-44 -16.5t-44.5 16.5t-17.5 44.5q0 29 17.5 45.5t44.5 16.5
t44 -16.5t17 -45.5zM446 653q0 -28 -17 -44.5t-44 -16.5t-44.5 16.5t-17.5 44.5q0 29 17 45.5t45 16.5q27 0 44 -16.5t17 -45.5z" />
    <glyph glyph-name="yacute" unicode="&#xfd;" horiz-adv-x="558" 
d="M378 140v364q0 14 15 14h86q15 0 15 -14v-471q0 -233 -223 -233q-120 0 -196 63q-11 8 -3 20l43 61q8 13 19 5q67 -46 136 -46q56 0 84 29.5t25 100.5q-58 -18 -107 -18q-86 0 -150 53.5t-64 150.5v285q0 14 15 14h87q14 0 14 -14v-280q0 -54 32 -79t82 -25q51 -1 90 20z
M284 591h-66q-9 0 -12 5.5t2 12.5l80 131q6 10 18 10h88q9 0 11.5 -5t-3.5 -13l-100 -132q-6 -9 -18 -9z" />
    <glyph glyph-name="thorn" unicode="&#xfe;" horiz-adv-x="551" 
d="M180 511q45 19 103 19q94 0 158.5 -51.5t64.5 -156.5v-126q0 -97 -66 -152.5t-158 -55.5q-57 0 -102 24v-186q0 -15 -15 -15h-86q-15 0 -15 15v868q0 15 15 15h86q15 0 15 -15v-183zM272 92q50 0 83.5 24t33.5 78v129q0 104 -117 104q-54 0 -92 -18v-295q39 -22 92 -22z
" />
    <glyph glyph-name="ydieresis" unicode="&#xff;" horiz-adv-x="558" 
d="M378 140v364q0 14 15 14h86q15 0 15 -14v-471q0 -233 -223 -233q-120 0 -196 63q-11 8 -3 20l43 61q8 13 19 5q67 -46 136 -46q56 0 84 29.5t25 100.5q-58 -18 -107 -18q-86 0 -150 53.5t-64 150.5v285q0 14 15 14h87q14 0 14 -14v-280q0 -54 32 -79t82 -25q51 -1 90 20z
M239 653q0 -28 -17 -44.5t-44 -16.5t-44.5 16.5t-17.5 44.5q0 29 17.5 45.5t44.5 16.5t44 -16.5t17 -45.5zM444 653q0 -28 -17 -44.5t-44 -16.5t-44.5 16.5t-17.5 44.5q0 29 17 45.5t45 16.5q27 0 44 -16.5t17 -45.5z" />
    <glyph glyph-name="Amacron" unicode="&#x100;" horiz-adv-x="640" 
d="M117 0h-98q-17 0 -12 17l240 686q5 12 16 12h114q11 0 16 -12l240 -686q5 -17 -12 -17h-98q-14 0 -17 12l-49 151h-274l-49 -151q-4 -12 -17 -12zM318 583l-101 -311h206l-101 311h-4zM462 791h-284q-15 0 -15 15v62q0 14 15 14h284q14 0 14 -14v-62q0 -15 -14 -15z" />
    <glyph glyph-name="amacron" unicode="&#x101;" horiz-adv-x="520" 
d="M59 477q77 53 196 53q97 0 152.5 -50.5t55.5 -152.5v-292q0 -12 -11 -17q-97 -30 -201 -30q-97 0 -160 40t-63 127q0 79 59.5 119.5t159.5 40.5q40 0 100 -8v19q0 54 -22.5 77.5t-77.5 23.5q-74 0 -128 -32q-12 -9 -20 4l-40 61q-7 11 0 17zM145 156q0 -34 29 -50.5
t77 -16.5q46 0 96 12v113q-54 8 -97 8q-105 0 -105 -66zM107 613v60q0 14 15 14h263q14 0 14 -14v-60q0 -15 -14 -15h-263q-15 0 -15 15z" />
    <glyph glyph-name="Abreve" unicode="&#x102;" horiz-adv-x="640" 
d="M117 0h-98q-17 0 -12 17l240 686q5 12 16 12h114q11 0 16 -12l240 -686q5 -17 -12 -17h-98q-14 0 -17 12l-49 151h-274l-49 -151q-4 -12 -17 -12zM318 583l-101 -311h206l-101 311h-4zM491 906q-8 -62 -52 -99t-119 -37t-119 36t-52 98q-3 12 12 16l63 15q13 3 17 -11
q14 -61 79 -61q67 0 79 61q4 14 17 11l63 -15q14 -3 12 -14z" />
    <glyph glyph-name="abreve" unicode="&#x103;" horiz-adv-x="520" 
d="M59 477q77 53 196 53q97 0 152.5 -50.5t55.5 -152.5v-292q0 -12 -11 -17q-97 -30 -201 -30q-97 0 -160 40t-63 127q0 79 59.5 119.5t159.5 40.5q40 0 100 -8v19q0 54 -22.5 77.5t-77.5 23.5q-74 0 -128 -32q-12 -9 -20 4l-40 61q-7 11 0 17zM145 156q0 -34 29 -50.5
t77 -16.5q46 0 96 12v113q-54 8 -97 8q-105 0 -105 -66zM414 720q-8 -62 -49.5 -98.5t-111.5 -36.5t-111 36t-49 97q-2 15 13 17l56 8q13 1 16 -12q13 -60 75 -60q61 0 75 60q3 13 17 12l55 -8q15 -2 14 -15z" />
    <glyph glyph-name="Aogonek" unicode="&#x104;" horiz-adv-x="640" 
d="M645 -183q-43 -19 -91 -19q-51 0 -79.5 23.5t-28.5 64.5q0 69 85 114h-8q-14 0 -17 12l-49 152h-274l-49 -152q-4 -12 -17 -12h-98q-17 0 -12 17l240 686q5 12 16 12h114q11 0 16 -12l240 -686q5 -17 -10 -17q-35 -14 -56 -37t-21 -43q0 -26 36 -26q22 0 43 6
q15 5 18 -10l12 -55q3 -14 -10 -18zM318 583l-101 -312h206l-101 312h-4z" />
    <glyph glyph-name="aogonek" unicode="&#x105;" horiz-adv-x="520" 
d="M462 334v-297q0 -12 -11 -18q-52 -21 -82.5 -48.5t-30.5 -50.5q0 -26 39 -26q22 0 41 6q15 6 18 -10l12 -53q3 -12 -9 -18q-45 -20 -90 -20q-105 0 -105 86q0 27 18.5 56.5t52.5 51.5q-35 -5 -65 -5q-46 0 -83.5 8.5t-70 27t-50.5 52.5t-18 82q0 78 59 117.5t159 39.5
q39 0 101 -8v26q0 48 -23 70.5t-77 22.5q-76 0 -128 -31q-12 -9 -20 4l-40 61q-7 13 3 20q76 50 192 50q96 0 152 -49.5t56 -146.5zM144 159q0 -69 106 -69q49 0 97 11v115q-41 6 -97 6q-106 0 -106 -63z" />
    <glyph glyph-name="Cacute" unicode="&#x106;" horiz-adv-x="593" 
d="M566 61q-94 -73 -230 -73q-120 0 -198 65t-78 190v228q0 125 78 190.5t196 65.5t214 -67q11 -8 3 -20l-47 -68q-7 -12 -21 -4q-65 45 -149 45q-72 0 -112.5 -38t-40.5 -105v-224q0 -68 40.5 -106t113.5 -38q94 0 166 52q13 9 20 -4l47 -68q8 -13 -2 -21zM483 919
l-125 -133q-7 -8 -18 -8h-73q-21 0 -10 18l103 132q6 9 18 9h96q10 0 12.5 -5.5t-3.5 -12.5z" />
    <glyph glyph-name="cacute" unicode="&#x107;" horiz-adv-x="472" 
d="M447 44q-79 -56 -177 -56q-104 0 -164 55t-60 147v139q0 92 60 146.5t163 54.5q87 0 164 -48q12 -8 4 -21l-39 -60q-8 -11 -21 -4q-50 29 -105 29q-53 0 -81.5 -25t-28.5 -72v-140q0 -46 28.5 -71.5t80.5 -25.5q61 0 116 36q14 8 21 -4l42 -60q8 -12 -3 -20zM261 591h-66
q-9 0 -12 5.5t2 12.5l80 131q6 10 18 10h88q9 0 11.5 -5t-3.5 -13l-100 -132q-6 -9 -18 -9z" />
    <glyph glyph-name="Cdotaccent" unicode="&#x10a;" horiz-adv-x="593" 
d="M566 61q-94 -73 -230 -73q-120 0 -198 65t-78 190v228q0 125 78 190.5t196 65.5t214 -67q11 -8 3 -20l-47 -68q-7 -12 -21 -4q-65 45 -149 45q-72 0 -112.5 -38t-40.5 -105v-224q0 -68 40.5 -106t113.5 -38q94 0 166 52q13 9 20 -4l47 -68q8 -13 -2 -21zM398 845
q0 -29 -20.5 -50t-50.5 -21t-51 21t-21 50t21 50t51 21t50.5 -21t20.5 -50z" />
    <glyph glyph-name="cdotaccent" unicode="&#x10b;" horiz-adv-x="472" 
d="M447 44q-79 -56 -177 -56q-104 0 -164 55t-60 147v139q0 92 60 146.5t163 54.5q87 0 164 -48q12 -8 4 -21l-39 -60q-8 -11 -21 -4q-50 29 -105 29q-53 0 -81.5 -25t-28.5 -72v-140q0 -46 28.5 -71.5t80.5 -25.5q61 0 116 36q14 8 21 -4l42 -60q8 -12 -3 -20zM320 654
q0 -27 -18 -45.5t-46 -18.5t-46.5 18.5t-18.5 45.5q0 28 18.5 46t46.5 18t46 -18t18 -46z" />
    <glyph glyph-name="Ccaron" unicode="&#x10c;" horiz-adv-x="593" 
d="M566 61q-94 -73 -230 -73q-120 0 -198 65t-78 190v228q0 125 78 190.5t196 65.5t214 -67q11 -8 3 -20l-47 -68q-7 -12 -21 -4q-65 45 -149 45q-72 0 -112.5 -38t-40.5 -105v-224q0 -68 40.5 -106t113.5 -38q94 0 166 52q13 9 20 -4l47 -68q8 -13 -2 -21zM160 947h82
q11 0 18 -8l64 -71l65 71q7 8 18 8h81q10 0 12 -5.5t-4 -12.5l-119 -133q-7 -8 -18 -8h-69q-11 0 -18 8l-119 133q-7 7 -4.5 12.5t11.5 5.5z" />
    <glyph glyph-name="ccaron" unicode="&#x10d;" horiz-adv-x="472" 
d="M447 44q-79 -56 -177 -56q-104 0 -164 55t-60 147v139q0 92 60 146.5t163 54.5q87 0 164 -48q12 -8 4 -21l-39 -60q-8 -11 -21 -4q-50 29 -105 29q-53 0 -81.5 -25t-28.5 -72v-140q0 -46 28.5 -71.5t80.5 -25.5q61 0 116 36q14 8 21 -4l42 -60q8 -12 -3 -20zM109 759h71
q9 0 17 -8l65 -75l63 75q6 8 18 8h71q20 0 7 -18l-112 -132q-6 -9 -18 -9h-59q-10 0 -18 9l-113 132q-13 18 8 18z" />
    <glyph glyph-name="Dcaron" unicode="&#x10e;" horiz-adv-x="673" 
d="M344 0h-248q-14 0 -14 15v685q0 15 14 15h248q127 0 198.5 -67.5t71.5 -196.5v-190q0 -127 -71.5 -194t-198.5 -67zM203 604v-491h141q145 0 145 147v192q0 152 -145 152h-141zM157 947h82q11 0 18 -8l64 -71l65 71q7 8 18 8h81q10 0 12 -5.5t-4 -12.5l-119 -133
q-7 -8 -18 -8h-69q-11 0 -18 8l-119 133q-7 7 -4.5 12.5t11.5 5.5z" />
    <glyph glyph-name="dcaron" unicode="&#x10f;" horiz-adv-x="569" 
d="M263 531q55 0 108 -23v192q0 15 15 15h86q15 0 15 -15v-659q0 -13 -11 -17q-98 -36 -202 -36t-166.5 55t-62.5 165v110q0 96 61 154.5t157 58.5zM529 553l34 149q3 13 17 13h70q17 0 12 -17l-52 -149q-4 -12 -17 -12h-52q-15 0 -12 16zM162 207q0 -62 29.5 -89.5
t85.5 -27.5q57 0 94 14v297q-40 27 -96 27q-113 0 -113 -110v-111z" />
    <glyph glyph-name="Dcroat" unicode="&#x110;" horiz-adv-x="683" 
d="M106 715h248q127 0 198.5 -67.5t71.5 -196.5v-190q0 -128 -71.5 -194.5t-198.5 -66.5h-248q-15 0 -15 15v313h-63q-15 0 -15 15v50q0 14 15 14h63v293q0 15 15 15zM354 113q146 0 146 147v192q0 152 -146 152h-141v-197h141q15 0 15 -14v-50q0 -15 -15 -15h-141v-215h141
z" />
    <glyph glyph-name="dcroat" unicode="&#x111;" horiz-adv-x="549" 
d="M487 650h62q15 0 15 -15v-45q0 -14 -15 -14h-62v-535q0 -13 -11 -17q-98 -36 -202 -36t-166.5 55t-62.5 165v92q0 97 61 155t157 58q57 0 108 -22v85h-116q-15 0 -15 14v45q0 15 15 15h116v50q0 15 15 15h86q15 0 15 -15v-50zM162 207q0 -62 29.5 -89.5t85.5 -27.5
q57 0 94 14v280q-40 27 -96 27q-113 0 -113 -110v-94z" />
    <glyph glyph-name="Emacron" unicode="&#x112;" horiz-adv-x="586" 
d="M203 308v-198h321q15 0 15 -14v-81q0 -15 -15 -15h-428q-14 0 -14 15v685q0 15 14 15h414q15 0 15 -15v-81q0 -14 -15 -14h-307v-187h281q15 0 15 -15v-80q0 -15 -15 -15h-281zM452 791h-284q-15 0 -15 15v62q0 14 15 14h284q14 0 14 -14v-62q0 -15 -14 -15z" />
    <glyph glyph-name="emacron" unicode="&#x113;" horiz-adv-x="524" 
d="M483 325v-101q0 -14 -15 -14h-304v-28q0 -45 28.5 -68.5t77.5 -23.5q73 0 141 46q12 8 20 -3l41 -55q10 -11 -3 -21q-87 -69 -203 -69q-92 0 -155.5 50.5t-63.5 144.5v142q0 103 64 154t156 51q91 0 153.5 -51t62.5 -154zM370 326q0 52 -29 77t-74 25q-103 0 -103 -102
v-26h206v26zM120 613v60q0 14 15 14h263q14 0 14 -14v-60q0 -15 -14 -15h-263q-15 0 -15 15z" />
    <glyph glyph-name="Edotaccent" unicode="&#x116;" horiz-adv-x="586" 
d="M203 308v-198h321q15 0 15 -14v-81q0 -15 -15 -15h-428q-14 0 -14 15v685q0 15 14 15h414q15 0 15 -15v-81q0 -14 -15 -14h-307v-187h281q15 0 15 -15v-80q0 -15 -15 -15h-281zM378 845q0 -29 -20.5 -50t-50.5 -21t-51 21t-21 50t21 50t51 21t50.5 -21t20.5 -50z" />
    <glyph glyph-name="edotaccent" unicode="&#x117;" horiz-adv-x="524" 
d="M483 325v-101q0 -14 -15 -14h-304v-28q0 -45 28.5 -68.5t77.5 -23.5q73 0 141 46q12 8 20 -3l41 -55q10 -11 -3 -21q-87 -69 -203 -69q-92 0 -155.5 50.5t-63.5 144.5v142q0 103 64 154t156 51q91 0 153.5 -51t62.5 -154zM370 326q0 52 -29 77t-74 25q-103 0 -103 -102
v-26h206v26zM329 654q0 -27 -18 -45.5t-46 -18.5t-46.5 18.5t-18.5 45.5q0 28 18.5 46t46.5 18t46 -18t18 -46z" />
    <glyph glyph-name="Eogonek" unicode="&#x118;" horiz-adv-x="585" 
d="M493 -106q22 0 43 6q14 5 18 -10l11 -55q3 -14 -9 -18q-44 -19 -91 -19q-51 0 -79.5 23.5t-28.5 64.5q0 32 22.5 62t63.5 52h-347q-14 0 -14 15v685q0 15 14 15h413q15 0 15 -15v-81q0 -14 -15 -14h-307v-188h281q15 0 15 -15v-80q0 -15 -15 -15h-281v-197h322
q14 0 14 -14v-84q0 -11 -11 -17q-32 -15 -51 -35.5t-19 -39.5q0 -26 36 -26z" />
    <glyph glyph-name="eogonek" unicode="&#x119;" horiz-adv-x="520" 
d="M410 -179q-44 -23 -93 -23q-48 0 -75.5 21.5t-27.5 64.5q0 52 64 104h-13q-91 0 -155 50t-64 143v149q0 99 64 150t154 51q91 0 152.5 -50t61.5 -151v-105q0 -15 -14 -15h-301v-28q0 -93 105 -93q85 0 138 45q11 8 20 -2l42 -55q9 -12 -2 -21q-24 -17 -78 -47
q-36 -23 -58 -47t-22 -41q0 -28 33 -28q16 0 38 8q13 7 19 -8l19 -53q5 -13 -7 -19zM163 330v-29h205v30q0 51 -30 75t-76 24q-44 0 -71.5 -24t-27.5 -76z" />
    <glyph glyph-name="Ecaron" unicode="&#x11a;" horiz-adv-x="586" 
d="M203 308v-198h321q15 0 15 -14v-81q0 -15 -15 -15h-428q-14 0 -14 15v685q0 15 14 15h414q15 0 15 -15v-81q0 -14 -15 -14h-307v-187h281q15 0 15 -15v-80q0 -15 -15 -15h-281zM146 947h82q11 0 18 -8l64 -71l65 71q7 8 18 8h81q10 0 12 -5.5t-4 -12.5l-119 -133
q-7 -8 -18 -8h-69q-11 0 -18 8l-119 133q-7 7 -4.5 12.5t11.5 5.5z" />
    <glyph glyph-name="ecaron" unicode="&#x11b;" horiz-adv-x="524" 
d="M483 325v-101q0 -14 -15 -14h-304v-28q0 -45 28.5 -68.5t77.5 -23.5q73 0 141 46q12 8 20 -3l41 -55q10 -11 -3 -21q-87 -69 -203 -69q-92 0 -155.5 50.5t-63.5 144.5v142q0 103 64 154t156 51q91 0 153.5 -51t62.5 -154zM370 326q0 52 -29 77t-74 25q-103 0 -103 -102
v-26h206v26zM118 750h71q9 0 17 -8l65 -75l63 75q6 8 18 8h71q20 0 7 -18l-112 -132q-6 -9 -18 -9h-59q-11 0 -18 9l-113 132q-13 18 8 18z" />
    <glyph glyph-name="Gbreve" unicode="&#x11e;" horiz-adv-x="653" 
d="M592 92q-97 -104 -253 -104q-119 0 -199 66t-80 190v228q0 125 77.5 190t194.5 65q133 0 240 -67q14 -9 5 -21l-50 -69q-7 -11 -20 -4q-79 47 -176 47q-68 0 -109 -36.5t-41 -107.5v-224q0 -71 44.5 -107t113.5 -36q85 0 140 42v152h-134q-14 0 -14 15v78q0 15 14 15h238
q14 0 14 -15v-281q0 -12 -5 -16zM500 906q-8 -62 -52 -99t-119 -37t-119 36t-52 98q-3 12 12 16l63 15q13 3 17 -11q14 -61 79 -61q67 0 79 61q4 14 17 11l63 -15q14 -3 12 -14z" />
    <glyph glyph-name="gbreve" unicode="&#x11f;" horiz-adv-x="549" 
d="M487 33q0 -233 -222 -233q-115 0 -195 62q-10 7 -3 20l42 62q8 13 20 4q62 -45 135 -45q58 0 84 30t24 104q-50 -22 -111 -22q-94 0 -155 53t-61 154v94q0 111 63.5 162.5t167.5 51.5q108 0 200 -39q11 -4 11 -17v-441zM162 222q0 -105 110 -105q69 0 99 25v273
q-33 11 -93 11q-56 0 -86 -24.5t-30 -85.5v-94zM435 720q-8 -62 -49.5 -98.5t-111.5 -36.5t-111 36t-49 97q-2 15 13 17l56 8q13 1 16 -12q13 -60 75 -60t75 60q3 13 17 12l55 -8q15 -2 14 -15z" />
    <glyph glyph-name="Gdotaccent" unicode="&#x120;" horiz-adv-x="653" 
d="M592 92q-97 -104 -253 -104q-119 0 -199 66t-80 190v228q0 125 77.5 190t194.5 65q133 0 240 -67q14 -9 5 -21l-50 -69q-7 -11 -20 -4q-79 47 -176 47q-68 0 -109 -36.5t-41 -107.5v-224q0 -71 44.5 -107t113.5 -36q85 0 140 42v152h-134q-14 0 -14 15v78q0 15 14 15h238
q14 0 14 -15v-281q0 -12 -5 -16zM400 845q0 -29 -20.5 -50t-50.5 -21t-51 21t-21 50t21 50t51 21t50.5 -21t20.5 -50z" />
    <glyph glyph-name="gdotaccent" unicode="&#x121;" horiz-adv-x="549" 
d="M487 33q0 -233 -222 -233q-115 0 -195 62q-10 7 -3 20l42 62q8 13 20 4q62 -45 135 -45q58 0 84 30t24 104q-50 -22 -111 -22q-94 0 -155 53t-61 154v94q0 111 63.5 162.5t167.5 51.5q108 0 200 -39q11 -4 11 -17v-441zM162 222q0 -105 110 -105q69 0 99 25v273
q-33 11 -93 11q-56 0 -86 -24.5t-30 -85.5v-94zM339 654q0 -27 -18 -45.5t-46 -18.5t-46.5 18.5t-18.5 45.5q0 28 18.5 46t46.5 18t46 -18t18 -46z" />
    <glyph glyph-name="uni0122" unicode="&#x122;" horiz-adv-x="653" 
d="M592 92q-97 -104 -253 -104q-119 0 -199 66t-80 190v228q0 125 77.5 190t194.5 65q133 0 240 -67q14 -9 5 -21l-50 -69q-7 -11 -20 -4q-79 47 -176 47q-68 0 -109 -36.5t-41 -107.5v-224q0 -71 44.5 -107t113.5 -36q85 0 140 42v152h-134q-14 0 -14 15v78q0 15 14 15h238
q14 0 14 -15v-281q0 -12 -5 -16zM330 -244h-55q-7 0 -11.5 4.5t-2.5 11.5l35 145q3 13 17 13h76q7 0 10.5 -5t1.5 -12l-54 -145q-5 -12 -17 -12z" />
    <glyph glyph-name="uni0123" unicode="&#x123;" horiz-adv-x="549" 
d="M487 33q0 -233 -222 -233q-115 0 -195 62q-10 7 -3 20l42 62q8 13 20 4q62 -45 135 -45q58 0 84 30t24 104q-50 -22 -111 -22q-94 0 -155 53t-61 154v94q0 111 63.5 162.5t167.5 51.5q108 0 200 -39q11 -4 11 -17v-441zM162 222q0 -105 110 -105q69 0 99 25v273
q-33 11 -93 11q-56 0 -86 -24.5t-30 -85.5v-94zM298 591h-77q-8 0 -11 5t0 12l59 140q5 12 18 12h54q17 0 12 -17l-39 -140q-3 -12 -16 -12z" />
    <glyph glyph-name="Hbar" unicode="&#x126;" horiz-adv-x="703" 
d="M612 626h55q14 0 14 -15v-49q0 -15 -14 -15h-55v-532q0 -15 -15 -15h-91q-15 0 -15 15v292h-279v-292q0 -15 -15 -15h-91q-15 0 -15 15v532h-55q-15 0 -15 15v49q0 15 15 15h55v74q0 15 15 15h91q15 0 15 -15v-74h279v74q0 15 15 15h91q15 0 15 -15v-74zM212 417h279v130
h-279v-130z" />
    <glyph glyph-name="hbar" unicode="&#x127;" horiz-adv-x="565" 
d="M180 495q51 17 109 17q97 0 157.5 -56t60.5 -171v-270q0 -15 -15 -15h-87q-14 0 -14 15v267q0 69 -28.5 98t-85.5 29q-54 0 -97 -19v-375q0 -15 -14 -15h-87q-15 0 -15 15v561h-62q-14 0 -14 14v45q0 15 14 15h62v50q0 15 15 15h87q14 0 14 -15v-50h117q15 0 15 -15v-45
q0 -14 -15 -14h-117v-81z" />
    <glyph glyph-name="Imacron" unicode="&#x12a;" horiz-adv-x="285" 
d="M10 810v60q0 15 15 15h236q14 0 14 -15v-60q0 -15 -14 -15h-236q-15 0 -15 15zM203 700v-685q0 -15 -15 -15h-91q-15 0 -15 15v685q0 15 15 15h91q15 0 15 -15z" />
    <glyph glyph-name="imacron" unicode="&#x12b;" horiz-adv-x="242" 
d="M223 599h-204q-15 0 -15 14v60q0 15 15 15h204q14 0 14 -15v-60q0 -14 -14 -14zM164 0h-86q-15 0 -15 15v489q0 14 15 14h86q15 0 15 -14v-489q0 -15 -15 -15z" />
    <glyph glyph-name="Iogonek" unicode="&#x12e;" horiz-adv-x="284" 
d="M172 -106q22 0 43 6q15 5 18 -10l12 -55q3 -13 -10 -18q-44 -19 -91 -19q-51 0 -79.5 23.5t-28.5 64.5q0 69 62 114q-16 0 -16 15v685q0 15 14 15h92q14 0 14 -15v-685q0 -15 -12 -15q-25 -15 -40 -38t-15 -42q0 -26 37 -26z" />
    <glyph glyph-name="iogonek" unicode="&#x12f;" horiz-adv-x="242" 
d="M222 -179q-43 -21 -98 -21q-107 0 -107 95q0 57 65 105h-5q-14 0 -14 15v489q0 14 14 14h87q15 0 15 -14v-489q0 -15 -17 -15q-53 -37 -53 -74q0 -31 41 -31q19 0 48 8q15 5 18 -9l13 -55q3 -14 -7 -18zM187 650q0 -28 -19 -47t-47 -19t-47 19t-19 47t19 46.5t47 18.5
q29 0 47.5 -18.5t18.5 -46.5z" />
    <glyph glyph-name="Idotaccent" unicode="&#x130;" horiz-adv-x="284" 
d="M202 700v-685q0 -15 -14 -15h-92q-14 0 -14 15v685q0 15 14 15h92q14 0 14 -15zM214 845q0 -29 -20.5 -50t-50.5 -21t-51 21t-21 50t21 50t51 21t50.5 -21t20.5 -50z" />
    <glyph glyph-name="dotlessi" unicode="&#x131;" horiz-adv-x="242" 
d="M164 0h-86q-15 0 -15 15v489q0 14 15 14h86q15 0 15 -14v-489q0 -15 -15 -15z" />
    <glyph glyph-name="IJ" unicode="&#x132;" horiz-adv-x="804" 
d="M202 700v-685q0 -15 -14 -15h-92q-14 0 -14 15v685q0 15 14 15h92q14 0 14 -15zM727 243q0 -119 -63.5 -187t-161.5 -68q-109 0 -202 76q-10 7 -3 20l41 68q9 12 21 3q76 -53 142 -53q49 0 77 35t28 107v456q0 15 15 15h92q14 0 14 -15v-457z" />
    <glyph glyph-name="ij" unicode="&#x133;" horiz-adv-x="533" 
d="M165 0h-87q-15 0 -15 15v489q0 14 15 14h87q14 0 14 -14v-489q0 -15 -14 -15zM187 654q0 -28 -18.5 -47t-46.5 -19t-47 19t-19 47t19 46.5t47 18.5t46.5 -18.5t18.5 -46.5zM470 -8q0 -92 -43.5 -143t-123.5 -51q-27 0 -50 3q-14 2 -14 16v74q0 15 16 15q24 -2 33 -2
q34 0 50 21.5t16 69.5v509q0 14 14 14h87q15 0 15 -14v-512zM478 653q0 -28 -19 -47t-47 -19t-46.5 19t-18.5 47t18.5 46.5t46.5 18.5q29 0 47.5 -18.5t18.5 -46.5z" />
    <glyph glyph-name="uni0136" unicode="&#x136;" horiz-adv-x="623" 
d="M188 0h-92q-14 0 -14 15v685q0 15 14 15h92q14 0 14 -15v-290l250 296q9 9 18 9h117q10 0 12.5 -5.5t-3.5 -12.5l-265 -301l287 -378q6 -8 3 -13t-12 -5h-117q-13 0 -18 9l-222 299l-50 -54v-239q0 -15 -14 -15zM325 -244h-55q-7 0 -11.5 4.5t-2.5 11.5l35 145
q3 13 17 13h76q7 0 10.5 -5t1.5 -12l-54 -145q-4 -12 -17 -12z" />
    <glyph glyph-name="uni0137" unicode="&#x137;" horiz-adv-x="509" 
d="M497 0h-106q-14 0 -19 9l-157 206l-35 -36v-164q0 -15 -15 -15h-86q-15 0 -15 15v685q0 15 15 15h86q15 0 15 -15v-380l176 191q6 7 18 7h103q10 0 12 -5t-4 -12l-193 -205l214 -278q5 -8 3 -13t-12 -5zM263 -244h-52q-16 0 -13 15l35 140q3 13 16 13h71q8 0 11 -5t0 -12
l-51 -140q-6 -11 -17 -11z" />
    <glyph glyph-name="Lacute" unicode="&#x139;" horiz-adv-x="524" 
d="M497 0h-401q-14 0 -14 15v685q0 15 14 15h93q14 0 14 -15v-589h294q15 0 15 -14v-82q0 -15 -15 -15zM312 919l-125 -133q-7 -8 -18 -8h-73q-21 0 -10 18l103 132q6 9 18 9h96q10 0 12.5 -5.5t-3.5 -12.5z" />
    <glyph glyph-name="lacute" unicode="&#x13a;" horiz-adv-x="303" 
d="M284 -9q-26 -3 -57 -3q-80 0 -123.5 51t-43.5 143v518q0 15 15 15h86q15 0 15 -15v-514q0 -49 16 -70.5t50 -21.5q12 0 38 2q15 0 15 -15v-74q0 -15 -11 -16zM290 919l-125 -133q-7 -8 -18 -8h-73q-21 0 -10 18l103 132q6 9 18 9h96q10 0 12.5 -5.5t-3.5 -12.5z" />
    <glyph glyph-name="uni013B" unicode="&#x13b;" horiz-adv-x="524" 
d="M497 0h-401q-14 0 -14 15v685q0 15 14 15h93q14 0 14 -15v-589h294q15 0 15 -14v-82q0 -15 -15 -15zM300 -244h-55q-7 0 -11.5 4.5t-2.5 11.5l35 145q3 13 17 13h76q7 0 10.5 -5t1.5 -12l-54 -145q-5 -12 -17 -12z" />
    <glyph glyph-name="uni013C" unicode="&#x13c;" horiz-adv-x="303" 
d="M284 -9q-26 -3 -57 -3q-80 0 -123.5 51t-43.5 143v518q0 15 15 15h86q15 0 15 -15v-514q0 -49 16 -70.5t50 -21.5q12 0 38 2q15 0 15 -15v-74q0 -15 -11 -16zM181 -244h-52q-16 0 -13 15l35 140q3 13 16 13h71q8 0 11 -5t0 -12l-51 -140q-6 -11 -17 -11z" />
    <glyph glyph-name="Lcaron" unicode="&#x13d;" horiz-adv-x="524" 
d="M359 534h-63q-15 0 -12 17l40 151q3 13 15 13h77q17 0 12 -17l-52 -152q-3 -12 -17 -12zM497 0h-401q-14 0 -14 15v685q0 15 14 15h93q14 0 14 -15v-589h294q15 0 15 -14v-82q0 -15 -15 -15z" />
    <glyph glyph-name="lcaron" unicode="&#x13e;" horiz-adv-x="320" 
d="M280 -9q-26 -3 -53 -3q-80 0 -123.5 51t-43.5 143v518q0 15 15 15h87q14 0 14 -15v-515q0 -48 16 -69.5t50 -21.5q11 0 33 2q16 0 16 -14v-75q0 -14 -11 -16zM290 547h-54q-17 0 -13 16l35 139q3 13 16 13h73q16 0 11 -17l-51 -140q-5 -11 -17 -11z" />
    <glyph glyph-name="Ldot" unicode="&#x13f;" horiz-adv-x="524" 
d="M497 0h-401q-14 0 -14 15v685q0 15 14 15h93q14 0 14 -15v-589h294q15 0 15 -14v-82q0 -15 -15 -15zM438 353q0 -32 -21 -52.5t-53 -20.5q-33 0 -53 20.5t-20 52.5q0 33 20 53.5t53 20.5q32 0 53 -20.5t21 -53.5z" />
    <glyph glyph-name="ldot" unicode="&#x140;" horiz-adv-x="337" 
d="M277 -9q-24 -3 -50 -3q-80 0 -123.5 51t-43.5 143v518q0 15 14 15h87q15 0 15 -15v-515q0 -48 15.5 -69.5t50.5 -21.5q9 0 31 2q16 0 16 -15v-74q0 -15 -12 -16zM353 379q0 -29 -18 -47.5t-48 -18.5t-48.5 18.5t-18.5 47.5q0 30 18.5 49t48.5 19t48 -19t18 -49z" />
    <glyph glyph-name="Lslash" unicode="&#x141;" horiz-adv-x="553" 
d="M232 341v-230h294q15 0 15 -14v-82q0 -15 -15 -15h-400q-15 0 -15 15v249l-81 -52q-7 -5 -12.5 -2t-5.5 11v75q0 11 10 18l89 57v329q0 15 15 15h91q15 0 15 -15v-251l119 75q7 5 12.5 2t5.5 -11v-75q0 -11 -10 -18z" />
    <glyph glyph-name="lslash" unicode="&#x142;" horiz-adv-x="365" 
d="M313 -9q-24 -3 -50 -3q-81 0 -124 51t-43 143v60l-54 -37q-7 -5 -12 -2t-5 12v74q0 9 9 17l62 43v351q0 15 14 15h87q15 0 15 -15v-271l91 64q7 5 12.5 2t5.5 -11v-74q0 -10 -10 -18l-99 -70v-137q0 -48 15.5 -69.5t50.5 -21.5q9 0 31 2q16 0 16 -15v-74q0 -15 -12 -16z
" />
    <glyph glyph-name="Nacute" unicode="&#x143;" horiz-adv-x="706" 
d="M187 0h-91q-14 0 -14 15v685q0 15 14 15h101q11 0 18 -10l195 -340l100 -181l3 1q-9 128 -9 271v244q0 15 15 15h90q15 0 15 -15v-685q0 -15 -15 -15h-101q-11 0 -17 10l-189 313q-59 95 -107 197l-3 -1q9 -155 9 -275v-229q0 -15 -14 -15zM509 919l-125 -133
q-7 -8 -18 -8h-73q-21 0 -10 18l103 132q6 9 18 9h96q10 0 12.5 -5.5t-3.5 -12.5z" />
    <glyph glyph-name="nacute" unicode="&#x144;" horiz-adv-x="562" 
d="M163 0h-86q-15 0 -15 15v458q0 13 11 18q90 39 199 39t170.5 -54.5t61.5 -169.5v-291q0 -15 -14 -15h-87q-15 0 -15 15v289q0 67 -29 94.5t-87 27.5q-52 0 -94 -11v-400q0 -15 -15 -15zM280 591h-66q-9 0 -12 5.5t2 12.5l80 131q6 10 18 10h88q9 0 11.5 -5t-3.5 -13
l-100 -132q-6 -9 -18 -9z" />
    <glyph glyph-name="uni0145" unicode="&#x145;" horiz-adv-x="706" 
d="M187 0h-91q-14 0 -14 15v685q0 15 14 15h101q11 0 18 -10l195 -340l100 -181l3 1q-9 128 -9 271v244q0 15 15 15h90q15 0 15 -15v-685q0 -15 -15 -15h-101q-11 0 -17 10l-189 313q-59 95 -107 197l-3 -1q9 -155 9 -275v-229q0 -15 -14 -15zM346 -244h-55q-7 0 -11.5 4.5
t-2.5 11.5l35 145q3 13 17 13h76q7 0 10.5 -5t1.5 -12l-54 -145q-5 -12 -17 -12z" />
    <glyph glyph-name="uni0146" unicode="&#x146;" horiz-adv-x="562" 
d="M163 0h-86q-15 0 -15 15v458q0 13 11 18q90 39 199 39t170.5 -54.5t61.5 -169.5v-291q0 -15 -14 -15h-87q-15 0 -15 15v289q0 67 -29 94.5t-87 27.5q-52 0 -94 -11v-400q0 -15 -15 -15zM273 -244h-52q-16 0 -13 15l35 140q3 13 16 13h71q8 0 11 -5t0 -12l-51 -140
q-6 -11 -17 -11z" />
    <glyph glyph-name="Ncaron" unicode="&#x147;" horiz-adv-x="706" 
d="M187 0h-91q-14 0 -14 15v685q0 15 14 15h101q11 0 18 -10l195 -340l100 -181l3 1q-9 128 -9 271v244q0 15 15 15h90q15 0 15 -15v-685q0 -15 -15 -15h-101q-11 0 -17 10l-189 313q-59 95 -107 197l-3 -1q9 -155 9 -275v-229q0 -15 -14 -15zM191 947h82q11 0 18 -8l64 -71
l65 71q7 8 18 8h81q10 0 12 -5.5t-4 -12.5l-119 -133q-7 -8 -18 -8h-69q-11 0 -18 8l-119 133q-7 7 -4.5 12.5t11.5 5.5z" />
    <glyph glyph-name="ncaron" unicode="&#x148;" horiz-adv-x="562" 
d="M163 0h-86q-15 0 -15 15v458q0 13 11 18q90 39 199 39t170.5 -54.5t61.5 -169.5v-291q0 -15 -14 -15h-87q-15 0 -15 15v289q0 67 -29 94.5t-87 27.5q-52 0 -94 -11v-400q0 -15 -15 -15zM125 759h71q9 0 17 -8l65 -75l63 75q6 8 18 8h71q20 0 7 -18l-112 -132
q-6 -9 -18 -9h-59q-11 0 -18 9l-113 132q-13 18 8 18z" />
    <glyph glyph-name="Eng" unicode="&#x14a;" horiz-adv-x="706" 
d="M504 456v244q0 15 15 15h90q15 0 15 -15v-705q0 -197 -166 -197q-24 0 -47 3q-13 1 -13 16v75q0 15 16 15q22 -2 29 -2q60 0 65 87l-206 332q-61 98 -107 196l-3 -1q9 -155 9 -275v-229q0 -15 -14 -15h-91q-14 0 -14 15v685q0 15 14 15h101q11 0 18 -10l195 -340
l100 -181l3 1q-9 128 -9 271z" />
    <glyph glyph-name="eng" unicode="&#x14b;" horiz-adv-x="562" 
d="M504 -1q0 -199 -163 -199q-24 0 -45 3q-14 1 -14 16v73q0 16 15 14q12 -1 29 -1q62 0 62 97v302q0 67 -29 95t-87 28q-55 0 -94 -12v-400q0 -15 -15 -15h-86q-15 0 -15 15v458q0 13 10 17q91 41 200 41t170.5 -55t61.5 -170v-307z" />
    <glyph glyph-name="Omacron" unicode="&#x14c;" horiz-adv-x="678" 
d="M620 266q0 -131 -74 -204.5t-207 -73.5t-207 73.5t-74 204.5v184q0 131 74 204t207 73t207 -73t74 -204v-184zM181 266q0 -80 40 -122t118 -42t118 42t40 122v183q0 165 -158 165t-158 -165v-183zM481 791h-284q-15 0 -15 15v62q0 14 15 14h284q14 0 14 -14v-62
q0 -15 -14 -15z" />
    <glyph glyph-name="omacron" unicode="&#x14d;" horiz-adv-x="548" 
d="M502 190q0 -93 -62 -147.5t-166 -54.5t-166 54.5t-62 147.5v134q0 94 62 150t166 56t166 -56t62 -150v-134zM163 190q0 -98 111 -98q54 0 82.5 25t28.5 73v134q0 49 -29 75.5t-82 26.5q-54 0 -82.5 -26t-28.5 -76v-134zM128 613v60q0 14 15 14h263q14 0 14 -14v-60
q0 -15 -14 -15h-263q-15 0 -15 15z" />
    <glyph glyph-name="Ohungarumlaut" unicode="&#x150;" horiz-adv-x="678" 
d="M620 266q0 -131 -74 -204.5t-207 -73.5t-207 73.5t-74 204.5v184q0 131 74 204t207 73t207 -73t74 -204v-184zM181 266q0 -80 40 -122t118 -42t118 42t40 122v183q0 165 -158 165t-158 -165v-183zM256 778h-74q-19 0 -8 18l97 131q6 10 18 10h91q9 0 11.5 -5.5
t-3.5 -12.5l-115 -133q-8 -8 -17 -8zM453 778h-71q-10 0 -12 5t4 13l104 132q6 9 19 9h91q10 0 12.5 -5.5t-3.5 -12.5l-126 -134q-6 -7 -18 -7z" />
    <glyph glyph-name="ohungarumlaut" unicode="&#x151;" horiz-adv-x="548" 
d="M502 190q0 -93 -62 -147.5t-166 -54.5t-166 54.5t-62 147.5v134q0 94 62 150t166 56t166 -56t62 -150v-134zM163 190q0 -98 111 -98q54 0 82.5 25t28.5 73v134q0 49 -29 75.5t-82 26.5q-54 0 -82.5 -26t-28.5 -76v-134zM199 591h-50q-8 0 -11 5.5t1 12.5l69 130
q6 11 17 11h69q8 0 11 -5.5t-2 -12.5l-86 -132q-6 -9 -18 -9zM360 591h-50q-8 0 -11 5.5t1 12.5l79 131q6 10 17 10h69q9 0 12 -5t-3 -13l-97 -132q-6 -9 -17 -9z" />
    <glyph glyph-name="OE" unicode="&#x152;" horiz-adv-x="967" 
d="M500 0q-15 0 -15 15v28q-65 -55 -154 -55q-116 0 -194 68.5t-78 202.5v201q0 133 78 200t194 67q88 0 154 -57v30q0 15 15 15h391q15 0 15 -15v-84q0 -15 -15 -15h-287v-185h262q14 0 14 -15v-83q0 -15 -14 -15h-262v-189h302q14 0 14 -15v-84q0 -15 -14 -15h-406z
M183 259q0 -82 42.5 -121t108.5 -39q64 0 105.5 39t41.5 121v200q0 83 -41 120t-106 37q-67 0 -109 -37t-42 -120v-200z" />
    <glyph glyph-name="oe" unicode="&#x153;" horiz-adv-x="862" 
d="M604 -12q-103 0 -162 65q-60 -65 -168 -65q-104 0 -166 54.5t-62 147.5v134q0 94 62 150.5t166 56.5q105 0 168 -68q59 68 164 68q90 0 152.5 -51.5t62.5 -154.5v-101q0 -14 -14 -14h-305v-28q0 -44 28.5 -67.5t77.5 -23.5q76 0 139 47q13 8 21 -4l44 -56q8 -11 -3 -21
q-89 -69 -205 -69zM163 190q0 -98 111 -98q54 0 82.5 25t28.5 73v134q0 49 -29 76t-82 27q-54 0 -82.5 -26.5t-28.5 -76.5v-134zM502 326v-26h207v26q0 52 -29 77.5t-75 25.5q-47 0 -75 -25t-28 -78z" />
    <glyph glyph-name="Racute" unicode="&#x154;" horiz-adv-x="637" 
d="M596 0h-113q-11 0 -17 10l-175 251h-89v-246q0 -15 -14 -15h-92q-14 0 -14 15v685q0 15 14 15h232q123 0 191.5 -60.5t68.5 -167.5q0 -82 -43.5 -137t-122.5 -76l183 -256q11 -18 -9 -18zM328 604h-126v-235h126q70 0 103.5 28.5t33.5 88.5q0 61 -33.5 89.5t-103.5 28.5z
M468 919l-125 -133q-7 -8 -18 -8h-73q-21 0 -10 18l103 132q6 9 18 9h96q10 0 12.5 -5.5t-3.5 -12.5z" />
    <glyph glyph-name="racute" unicode="&#x155;" horiz-adv-x="379" 
d="M163 0h-86q-15 0 -15 15v460q0 13 11 17q78 38 175 38q51 0 102 -8q13 -1 13 -15v-72q0 -15 -16 -12q-25 4 -81 4q-55 0 -88 -14v-398q0 -15 -15 -15zM218 591h-66q-9 0 -12 5.5t2 12.5l80 131q6 10 18 10h88q9 0 11.5 -5t-3.5 -13l-100 -132q-6 -9 -18 -9z" />
    <glyph glyph-name="uni0156" unicode="&#x156;" horiz-adv-x="637" 
d="M596 0h-113q-11 0 -17 10l-175 251h-89v-246q0 -15 -14 -15h-92q-14 0 -14 15v685q0 15 14 15h232q123 0 191.5 -60.5t68.5 -167.5q0 -82 -43.5 -137t-122.5 -76l183 -256q11 -18 -9 -18zM328 604h-126v-235h126q70 0 103.5 28.5t33.5 88.5q0 61 -33.5 89.5t-103.5 28.5z
M318 -244h-55q-7 0 -11.5 4.5t-2.5 11.5l35 145q3 13 17 13h76q7 0 10.5 -5t1.5 -12l-54 -145q-5 -12 -17 -12z" />
    <glyph glyph-name="uni0157" unicode="&#x157;" horiz-adv-x="379" 
d="M163 0h-86q-15 0 -15 15v460q0 13 11 17q78 38 175 38q51 0 102 -8q13 -1 13 -15v-72q0 -15 -16 -12q-25 4 -81 4q-55 0 -88 -14v-398q0 -15 -15 -15zM117 -244h-52q-16 0 -13 15l35 140q3 13 16 13h71q8 0 11 -5t0 -12l-51 -140q-6 -11 -17 -11z" />
    <glyph glyph-name="Rcaron" unicode="&#x158;" horiz-adv-x="637" 
d="M596 0h-113q-11 0 -17 10l-175 251h-89v-246q0 -15 -14 -15h-92q-14 0 -14 15v685q0 15 14 15h232q123 0 191.5 -60.5t68.5 -167.5q0 -82 -43.5 -137t-122.5 -76l183 -256q11 -18 -9 -18zM328 604h-126v-235h126q70 0 103.5 28.5t33.5 88.5q0 61 -33.5 89.5t-103.5 28.5z
M149 937h82q11 0 18 -8l64 -71l65 71q7 8 18 8h81q10 0 12 -5.5t-4 -12.5l-119 -133q-7 -8 -18 -8h-69q-11 0 -18 8l-119 133q-7 7 -4.5 12.5t11.5 5.5z" />
    <glyph glyph-name="rcaron" unicode="&#x159;" horiz-adv-x="379" 
d="M163 0h-86q-15 0 -15 15v460q0 13 11 17q78 38 175 38q51 0 102 -8q13 -1 13 -15v-72q0 -15 -16 -12q-25 4 -81 4q-55 0 -88 -14v-398q0 -15 -15 -15zM66 750h71q9 0 17 -8l65 -75l63 75q6 8 18 8h71q20 0 7 -18l-112 -132q-6 -9 -18 -9h-59q-11 0 -18 9l-113 132
q-13 18 8 18z" />
    <glyph glyph-name="Sacute" unicode="&#x15a;" horiz-adv-x="617" 
d="M579 203q0 -106 -78 -160.5t-196 -54.5q-134 0 -255 96q-10 10 -3 21l50 70q8 11 20 3q101 -73 193 -76q60 0 102.5 25.5t42.5 73.5q0 26 -12 44.5t-38 30.5t-48.5 18.5t-63.5 14.5q-243 51 -243 219q0 99 75.5 149t191.5 50q119 0 235 -79q13 -8 4 -20l-48 -69
q-7 -12 -21 -3q-85 55 -179 58q-64 0 -100 -23.5t-36 -64.5q0 -19 8 -33.5t19.5 -24t33.5 -18t40.5 -13.5t50.5 -12q36 -8 60.5 -15t57 -19t54.5 -28t42.5 -38t30.5 -53t10 -69zM462 919l-125 -133q-7 -8 -18 -8h-73q-21 0 -10 18l103 132q6 9 18 9h96q10 0 12.5 -5.5
t-3.5 -12.5z" />
    <glyph glyph-name="sacute" unicode="&#x15b;" horiz-adv-x="484" 
d="M453 154q0 -81 -59 -123.5t-153 -42.5q-114 0 -203 65q-12 7 -4 20l38 65q7 13 20 4q70 -51 151 -51q41 0 67 15t26 43q0 27 -24.5 39t-68.5 20q-28 5 -50 11t-52.5 19t-50.5 29.5t-34.5 44t-14.5 62.5q0 78 61.5 117.5t150.5 39.5t174 -46q13 -7 5 -20l-38 -64
q-8 -11 -20 -5q-61 33 -127 33q-43 0 -67 -15t-24 -40q0 -28 25.5 -40t85.5 -24q39 -7 65 -15t57.5 -25t47.5 -46t16 -70zM248 591h-66q-9 0 -12 5.5t2 12.5l80 131q6 10 18 10h88q9 0 11.5 -5t-3.5 -13l-100 -132q-6 -9 -18 -9z" />
    <glyph glyph-name="Scedilla" unicode="&#x15e;" horiz-adv-x="617" 
d="M423 -119q0 -44 -35.5 -67.5t-94.5 -23.5q-31 0 -57 9q-12 3 -12 17v32q0 15 17 12q22 -5 38 -5q52 0 53 31q0 28 -52 31q-12 0 -18 10q-2 6 2 14l21 48q-121 4 -235 95q-10 10 -3 21l50 70q8 11 20 3q98 -71 193 -74q60 0 102.5 24.5t42.5 72.5q0 26 -12 44.5t-38 30.5
t-48.5 18.5t-63.5 14.5q-243 51 -243 219q0 99 75.5 149t191.5 50q119 0 235 -79q13 -8 4 -20l-48 -69q-7 -12 -21 -3q-85 55 -179 58q-64 0 -100 -23.5t-36 -64.5q0 -19 8 -33.5t19.5 -24t33.5 -18t40.5 -13.5t50.5 -12q36 -8 60.5 -15t57 -19t54.5 -28t42.5 -38t30.5 -53
t10 -69q0 -95 -63 -148.5t-163 -63.5l-16 -38q39 -3 62.5 -22.5t23.5 -49.5z" />
    <glyph glyph-name="scedilla" unicode="&#x15f;" horiz-adv-x="484" 
d="M348 -120q0 -42 -34.5 -64.5t-92.5 -22.5q-31 0 -57 9q-12 3 -12 17v30q0 15 17 12q22 -5 38 -5q53 0 53 31q0 28 -50 31q-12 0 -18 10q-2 6 2 14l20 47q-99 8 -176 64q-12 7 -4 20l38 65q7 13 20 4q70 -51 151 -51q41 0 67 15t26 43q0 27 -24.5 39t-68.5 20
q-28 5 -50 11t-52.5 19t-50.5 29.5t-34.5 44t-14.5 62.5q0 78 61.5 117.5t150.5 39.5t174 -46q13 -7 5 -20l-38 -64q-8 -11 -20 -5q-61 33 -127 33q-43 0 -67 -15t-24 -40q0 -28 25.5 -40t85.5 -24q39 -7 65 -15t57.5 -25t47.5 -46t16 -70q0 -72 -47 -113.5t-126 -50.5v-1
q-1 -1 -1 -2l-15 -33q38 -3 61 -23t23 -51z" />
    <glyph glyph-name="Scaron" unicode="&#x160;" horiz-adv-x="617" 
d="M579 203q0 -106 -78 -160.5t-196 -54.5q-134 0 -255 96q-10 10 -3 21l50 70q8 11 20 3q101 -73 193 -76q60 0 102.5 25.5t42.5 73.5q0 26 -12 44.5t-38 30.5t-48.5 18.5t-63.5 14.5q-243 51 -243 219q0 99 75.5 149t191.5 50q119 0 235 -79q13 -8 4 -20l-48 -69
q-7 -12 -21 -3q-85 55 -179 58q-64 0 -100 -23.5t-36 -64.5q0 -19 8 -33.5t19.5 -24t33.5 -18t40.5 -13.5t50.5 -12q36 -8 60.5 -15t57 -19t54.5 -28t42.5 -38t30.5 -53t10 -69zM144 947h82q11 0 18 -8l64 -71l65 71q7 8 18 8h81q10 0 12 -5.5t-4 -12.5l-119 -133
q-7 -8 -18 -8h-69q-11 0 -18 8l-119 133q-7 7 -4.5 12.5t11.5 5.5z" />
    <glyph glyph-name="scaron" unicode="&#x161;" horiz-adv-x="484" 
d="M453 154q0 -81 -59 -123.5t-153 -42.5q-114 0 -203 65q-12 7 -4 20l38 65q7 13 20 4q70 -51 151 -51q41 0 67 15t26 43q0 27 -24.5 39t-68.5 20q-28 5 -50 11t-52.5 19t-50.5 29.5t-34.5 44t-14.5 62.5q0 78 61.5 117.5t150.5 39.5t174 -46q13 -7 5 -20l-38 -64
q-8 -11 -20 -5q-61 33 -127 33q-43 0 -67 -15t-24 -40q0 -28 25.5 -40t85.5 -24q39 -7 65 -15t57.5 -25t47.5 -46t16 -70zM89 750h71q9 0 17 -8l65 -75l63 75q6 8 18 8h71q20 0 7 -18l-112 -132q-6 -9 -18 -9h-59q-10 0 -18 9l-113 132q-13 18 8 18z" />
    <glyph glyph-name="uni0162" unicode="&#x162;" horiz-adv-x="577" 
d="M273 -244h-55q-7 0 -11.5 4.5t-2.5 11.5l35 145q3 13 17 13h76q7 0 10.5 -5t1.5 -12l-54 -145q-4 -12 -17 -12zM27 715h523q15 0 15 -15v-82q0 -14 -15 -14h-201v-589q0 -15 -14 -15h-92q-14 0 -14 15v589h-202q-15 0 -15 14v82q0 15 15 15z" />
    <glyph glyph-name="uni0163" unicode="&#x163;" horiz-adv-x="333" 
d="M172 -244h-52q-16 0 -13 15l35 140q3 13 16 13h71q8 0 11 -5t0 -12l-51 -140q-6 -11 -17 -11zM176 181q0 -41 20.5 -64t58.5 -23q9 0 41 2q16 0 16 -14v-76q0 -15 -14 -16q-34 -2 -53 -2q-83 0 -134 45.5t-51 139.5v457q0 14 15 14h76q13 0 15 -13l9 -120h107
q15 0 15 -14v-73q0 -14 -15 -14h-106v-229z" />
    <glyph glyph-name="Tcaron" unicode="&#x164;" horiz-adv-x="577" 
d="M27 715h523q15 0 15 -15v-82q0 -14 -15 -14h-201v-589q0 -15 -14 -15h-92q-14 0 -14 15v589h-202q-15 0 -15 14v82q0 15 15 15zM125 937h82q11 0 18 -8l64 -71l65 71q7 8 18 8h81q10 0 12 -5.5t-4 -12.5l-119 -133q-7 -8 -18 -8h-69q-11 0 -18 8l-119 133q-7 7 -4.5 12.5
t11.5 5.5z" />
    <glyph glyph-name="tcaron" unicode="&#x165;" horiz-adv-x="333" 
d="M299 -7q-25 -3 -54 -3q-84 0 -134.5 44.5t-50.5 138.5v457q0 14 15 14h76q13 0 15 -13l9 -120h107q15 0 15 -14v-73q0 -14 -15 -14h-106v-229q0 -85 79 -85q9 0 41 2q16 0 16 -14v-76q0 -13 -13 -15zM288 579h-52q-16 0 -12 16l34 140q3 13 17 13h70q19 0 12 -17
l-52 -140q-5 -12 -17 -12z" />
    <glyph glyph-name="Tbar" unicode="&#x166;" horiz-adv-x="585" 
d="M339 0h-92q-15 0 -15 15v277h-99q-14 0 -14 15v49q0 15 14 15h99v233h-199q-15 0 -15 14v82q0 15 15 15h519q15 0 15 -15v-82q0 -14 -15 -14h-198v-233h99q14 0 14 -15v-49q0 -15 -14 -15h-99v-277q0 -15 -15 -15z" />
    <glyph glyph-name="tbar" unicode="&#x167;" horiz-adv-x="342" 
d="M308 -8q-34 -2 -53 -2q-84 0 -135 44.5t-51 138.5v66h-38q-14 0 -14 14v45q0 14 14 14h38v318q0 14 15 14h76q13 0 15 -13l9 -120h107q15 0 15 -14v-73q0 -14 -15 -14h-106v-98h65q15 0 15 -14v-45q0 -14 -15 -14h-65v-58q0 -85 79 -85q9 0 41 2q16 0 16 -14v-76
q0 -15 -13 -16z" />
    <glyph glyph-name="Umacron" unicode="&#x16a;" horiz-adv-x="698" 
d="M621 249q0 -119 -74.5 -190t-198.5 -71q-123 0 -197 71.5t-74 189.5v451q0 15 15 15h93q15 0 15 -15v-444q0 -75 38.5 -115.5t109.5 -40.5t110.5 40.5t39.5 115.5v444q0 15 15 15h93q15 0 15 -15v-451zM491 791h-284q-15 0 -15 15v62q0 14 15 14h284q14 0 14 -14v-62
q0 -15 -14 -15z" />
    <glyph glyph-name="umacron" unicode="&#x16b;" horiz-adv-x="556" 
d="M392 518h87q15 0 15 -14v-458q0 -13 -11 -18q-91 -40 -196 -40q-107 0 -168 55t-61 170v291q0 14 15 14h87q14 0 14 -14v-289q0 -67 28.5 -95t84.5 -28t91 12v400q0 14 14 14zM134 613v60q0 14 15 14h263q14 0 14 -14v-60q0 -15 -14 -15h-263q-15 0 -15 15z" />
    <glyph glyph-name="Uring" unicode="&#x16e;" horiz-adv-x="698" 
d="M621 249q0 -119 -74.5 -190t-198.5 -71q-123 0 -197 71.5t-74 189.5v451q0 15 15 15h93q15 0 15 -15v-444q0 -75 38.5 -115.5t109.5 -40.5t110.5 40.5t39.5 115.5v444q0 15 15 15h93q15 0 15 -15v-451zM467 872q0 -52 -33 -82.5t-84 -30.5q-53 0 -87 31t-34 83
q0 51 34 82t87 31q51 0 84 -31.5t33 -82.5zM298 872q0 -22 14 -35t37 -13q22 0 35.5 13t13.5 35t-13 35.5t-36 13.5t-37 -13.5t-14 -35.5z" />
    <glyph glyph-name="uring" unicode="&#x16f;" horiz-adv-x="556" 
d="M392 518h87q15 0 15 -14v-458q0 -13 -11 -18q-91 -40 -196 -40q-107 0 -168 55t-61 170v291q0 14 15 14h87q14 0 14 -14v-289q0 -67 28.5 -95t84.5 -28t91 12v400q0 14 14 14zM393 674q0 -50 -31 -79.5t-81 -29.5q-52 0 -85 30t-33 80t33 80.5t85 30.5q49 0 80.5 -31
t31.5 -81zM230 674q0 -20 14 -33t36 -13t34.5 13t12.5 33q0 23 -12.5 36t-34.5 13q-23 0 -36.5 -13.5t-13.5 -35.5z" />
    <glyph glyph-name="Uhungarumlaut" unicode="&#x170;" horiz-adv-x="698" 
d="M621 249q0 -119 -74.5 -190t-198.5 -71q-123 0 -197 71.5t-74 189.5v451q0 15 15 15h93q15 0 15 -15v-444q0 -75 38.5 -115.5t109.5 -40.5t110.5 40.5t39.5 115.5v444q0 15 15 15h93q15 0 15 -15v-451zM262 778h-74q-19 0 -8 18l97 131q6 10 18 10h91q9 0 11.5 -5.5
t-3.5 -12.5l-115 -133q-8 -8 -17 -8zM459 778h-71q-10 0 -12 5t4 13l104 132q6 9 19 9h91q10 0 12.5 -5.5t-3.5 -12.5l-126 -134q-6 -7 -18 -7z" />
    <glyph glyph-name="uhungarumlaut" unicode="&#x171;" horiz-adv-x="556" 
d="M392 518h87q15 0 15 -14v-458q0 -13 -11 -18q-91 -40 -196 -40q-107 0 -168 55t-61 170v291q0 14 15 14h87q14 0 14 -14v-289q0 -67 28.5 -95t84.5 -28t91 12v400q0 14 14 14zM208 591h-50q-8 0 -11 5.5t1 12.5l69 130q5 11 17 11h69q8 0 11 -5.5t-2 -12.5l-86 -132
q-6 -9 -18 -9zM369 591h-50q-8 0 -11 5.5t1 12.5l79 131q6 10 17 10h69q9 0 12 -5t-3 -13l-97 -132q-6 -9 -17 -9z" />
    <glyph glyph-name="Uogonek" unicode="&#x172;" horiz-adv-x="701" 
d="M508 -179q-47 -22 -112 -22q-46 0 -75 21.5t-29 55.5q0 65 73 114v1q-1 0 -6.5 -0.5t-8.5 -0.5q-117 0 -195 65.5t-78 193.5v451q0 15 15 15h94q14 0 14 -15v-451q0 -73 42.5 -109t107.5 -36q66 0 108.5 36t42.5 109v451q0 15 15 15h94q14 0 14 -15v-451
q0 -93 -34.5 -143t-87.5 -80q-104 -57 -104 -104q0 -29 39 -29q23 0 47 7q14 6 17 -9l13 -53q3 -13 -6 -17z" />
    <glyph glyph-name="uogonek" unicode="&#x173;" horiz-adv-x="556" 
d="M460 -181q-39 -19 -91 -19q-55 0 -85.5 23.5t-30.5 64.5q0 57 62 100h-16q-111 0 -176 52t-65 153v311q0 14 15 14h87q14 0 14 -14v-312q0 -100 118 -100q53 0 86 14v398q0 14 14 14h87q15 0 15 -14v-459q0 -12 -12 -17q-133 -49 -133 -103q0 -30 41 -30q25 0 45 8
q15 5 18 -10l16 -56q3 -14 -9 -18z" />
    <glyph glyph-name="Wcircumflex" unicode="&#x174;" horiz-adv-x="968" 
d="M321 0h-105q-13 0 -16 13l-189 685q-5 17 13 17h98q13 0 16 -13l83 -332q22 -86 48 -226h3q24 113 61 243l86 305q3 13 16 13h98q13 0 16 -13l87 -305q33 -116 60 -243h3q20 114 48 226l83 332q3 13 15 13h99q18 0 13 -17l-189 -685q-3 -13 -16 -13h-105q-13 0 -16 13
l-93 315q-32 107 -52 224h-4q-20 -113 -51 -224l-94 -315q-3 -13 -16 -13zM402 778h-82q-9 0 -11.5 5t4.5 13l119 133q7 8 18 8h69q11 0 18 -8l119 -133q6 -8 4 -13t-12 -5h-81q-11 0 -18 8l-65 71l-64 -71q-7 -8 -18 -8z" />
    <glyph glyph-name="wcircumflex" unicode="&#x175;" horiz-adv-x="766" 
d="M271 0h-100q-13 0 -16 13l-141 489q-5 16 11 16h90q13 0 16 -12l38 -164q6 -29 27.5 -117.5t23.5 -97.5h2q10 46 49 198l48 174q3 12 16 12h93q13 0 16 -12l49 -174q30 -119 48 -198h3l51 215l37 164q3 12 17 12h89q17 0 12 -16l-141 -489q-3 -13 -16 -13h-100
q-13 0 -16 13l-56 203q-26 98 -37 155h-4q-14 -66 -38 -155l-55 -203q-3 -13 -16 -13zM301 591h-71q-21 0 -8 18l113 132q7 9 18 9h59q12 0 18 -9l112 -132q13 -18 -7 -18h-71q-12 0 -18 8l-63 75l-65 -75q-8 -8 -17 -8z" />
    <glyph glyph-name="Ycircumflex" unicode="&#x176;" horiz-adv-x="592" 
d="M342 0h-92q-15 0 -15 15v249l-230 433q-4 7 -1 12.5t12 5.5h105q12 0 16 -11l159 -329l158 329q4 11 17 11h105q8 0 11 -5.5t-1 -12.5l-229 -435v-247q0 -15 -15 -15zM214 778h-82q-9 0 -11.5 5t4.5 13l119 133q7 8 18 8h69q11 0 18 -8l119 -133q6 -8 4 -13t-12 -5h-81
q-11 0 -18 8l-65 71l-64 -71q-7 -8 -18 -8z" />
    <glyph glyph-name="ycircumflex" unicode="&#x177;" horiz-adv-x="558" 
d="M378 140v364q0 14 15 14h86q15 0 15 -14v-471q0 -233 -223 -233q-120 0 -196 63q-11 8 -3 20l43 61q8 13 19 5q67 -46 136 -46q56 0 84 29.5t25 100.5q-58 -18 -107 -18q-86 0 -150 53.5t-64 150.5v285q0 14 15 14h87q14 0 14 -14v-280q0 -54 32 -79t82 -25q51 -1 90 20z
M195 591h-71q-21 0 -8 18l113 132q7 9 18 9h59q12 0 18 -9l112 -132q13 -18 -7 -18h-71q-12 0 -18 8l-63 75l-65 -75q-8 -8 -17 -8z" />
    <glyph glyph-name="Ydieresis" unicode="&#x178;" horiz-adv-x="592" 
d="M342 0h-92q-15 0 -15 15v249l-230 433q-4 7 -1 12.5t12 5.5h105q12 0 16 -11l159 -329l158 329q4 11 17 11h105q8 0 11 -5.5t-1 -12.5l-229 -435v-247q0 -15 -15 -15zM256 850q0 -28 -18 -46t-46 -18t-46 18t-18 46t18 46t46 18t46 -18t18 -46zM465 850q0 -28 -18.5 -46
t-46.5 -18t-46 18t-18 46t18 46t46 18t46.5 -18t18.5 -46z" />
    <glyph glyph-name="Zacute" unicode="&#x179;" horiz-adv-x="606" 
d="M554 0h-503q-15 0 -15 15v57q0 12 5 19l355 513h-328q-15 0 -15 15v81q0 15 15 15h476q14 0 14 -15v-55q0 -12 -5 -18l-353 -516h354q14 0 14 -14v-82q0 -15 -14 -15zM463 919l-125 -133q-7 -8 -18 -8h-73q-21 0 -10 18l103 132q6 9 18 9h96q10 0 12.5 -5.5t-3.5 -12.5z
" />
    <glyph glyph-name="zacute" unicode="&#x17a;" horiz-adv-x="480" 
d="M431 0h-385q-15 0 -15 15v43q0 10 6 18l244 340h-220q-15 0 -15 14v74q0 14 15 14h365q15 0 15 -14v-40q0 -12 -6 -19l-245 -342h241q14 0 14 -15v-73q0 -15 -14 -15zM246 591h-66q-9 0 -12 5.5t2 12.5l80 131q6 10 18 10h88q9 0 11.5 -5t-3.5 -13l-100 -132
q-6 -9 -18 -9z" />
    <glyph glyph-name="Zdotaccent" unicode="&#x17b;" horiz-adv-x="606" 
d="M554 0h-503q-15 0 -15 15v57q0 12 5 19l355 513h-328q-15 0 -15 15v81q0 15 15 15h476q14 0 14 -15v-55q0 -12 -5 -18l-353 -516h354q14 0 14 -14v-82q0 -15 -14 -15zM374 845q0 -29 -20.5 -50t-50.5 -21t-51 21t-21 50t21 50t51 21t50.5 -21t20.5 -50z" />
    <glyph glyph-name="zdotaccent" unicode="&#x17c;" horiz-adv-x="480" 
d="M431 0h-385q-15 0 -15 15v43q0 10 6 18l244 340h-220q-15 0 -15 14v74q0 14 15 14h365q15 0 15 -14v-40q0 -12 -6 -19l-245 -342h241q14 0 14 -15v-73q0 -15 -14 -15zM303 654q0 -27 -18 -45.5t-46 -18.5t-46.5 18.5t-18.5 45.5q0 28 18.5 46t46.5 18t46 -18t18 -46z" />
    <glyph glyph-name="Zcaron" unicode="&#x17d;" horiz-adv-x="606" 
d="M554 0h-503q-15 0 -15 15v57q0 12 5 19l355 513h-328q-15 0 -15 15v81q0 15 15 15h476q14 0 14 -15v-55q0 -12 -5 -18l-353 -516h354q14 0 14 -14v-82q0 -15 -14 -15zM140 947h82q11 0 18 -8l64 -71l65 71q7 8 18 8h81q10 0 12 -5.5t-4 -12.5l-119 -133q-7 -8 -18 -8h-69
q-11 0 -18 8l-119 133q-7 7 -4.5 12.5t11.5 5.5z" />
    <glyph glyph-name="zcaron" unicode="&#x17e;" horiz-adv-x="480" 
d="M431 0h-385q-15 0 -15 15v43q0 10 6 18l244 340h-220q-15 0 -15 14v74q0 14 15 14h365q15 0 15 -14v-40q0 -12 -6 -19l-245 -342h241q14 0 14 -15v-73q0 -15 -14 -15zM95 759h71q9 0 17 -8l65 -75l63 75q6 8 18 8h71q20 0 7 -18l-112 -132q-6 -9 -18 -9h-59q-10 0 -18 9
l-113 132q-13 18 8 18z" />
    <glyph glyph-name="florin" unicode="&#x192;" horiz-adv-x="467" 
d="M219 20q-12 -67 -47.5 -107.5t-110.5 -40.5q-34 0 -66 11q-13 5 -9 19l16 63q3 13 18 10q20 -2 28 -2q25 0 38 16t19 53l49 259h-72q-15 0 -15 15v76q0 14 15 14h90l35 177q28 144 155 144q44 0 83 -11q13 -3 10 -17l-13 -61q-3 -13 -17 -10q-22 4 -38 4q-56 0 -69 -74
l-29 -152h88q15 0 15 -14v-76q0 -15 -15 -15h-107z" />
    <glyph glyph-name="uni0218" unicode="&#x218;" horiz-adv-x="617" 
d="M579 203q0 -106 -78 -160.5t-196 -54.5q-134 0 -255 96q-10 10 -3 21l50 70q8 11 20 3q101 -73 193 -76q60 0 102.5 25.5t42.5 73.5q0 26 -12 44.5t-38 30.5t-48.5 18.5t-63.5 14.5q-243 51 -243 219q0 99 75.5 149t191.5 50q119 0 235 -79q13 -8 4 -20l-48 -69
q-7 -12 -21 -3q-85 55 -179 58q-64 0 -100 -23.5t-36 -64.5q0 -19 8 -33.5t19.5 -24t33.5 -18t40.5 -13.5t50.5 -12q36 -8 60.5 -15t57 -19t54.5 -28t42.5 -38t30.5 -53t10 -69zM310 -244h-55q-7 0 -11.5 4.5t-2.5 11.5l35 145q3 13 17 13h76q7 0 10.5 -5t1.5 -12l-54 -145
q-5 -12 -17 -12z" />
    <glyph glyph-name="uni0219" unicode="&#x219;" horiz-adv-x="484" 
d="M453 154q0 -81 -59 -123.5t-153 -42.5q-114 0 -203 65q-12 7 -4 20l38 65q7 13 20 4q70 -51 151 -51q41 0 67 15t26 43q0 27 -24.5 39t-68.5 20q-28 5 -50 11t-52.5 19t-50.5 29.5t-34.5 44t-14.5 62.5q0 78 61.5 117.5t150.5 39.5t174 -46q13 -7 5 -20l-38 -64
q-8 -11 -20 -5q-61 33 -127 33q-43 0 -67 -15t-24 -40q0 -28 25.5 -40t85.5 -24q39 -7 65 -15t57.5 -25t47.5 -46t16 -70zM230 -244h-52q-16 0 -13 15l35 140q3 13 16 13h71q8 0 11 -5t0 -12l-51 -140q-6 -11 -17 -11z" />
    <glyph glyph-name="uni021A" unicode="&#x21a;" horiz-adv-x="577" 
d="M27 715h523q15 0 15 -15v-82q0 -14 -15 -14h-201v-589q0 -15 -14 -15h-92q-14 0 -14 15v589h-202q-15 0 -15 14v82q0 15 15 15zM273 -244h-55q-7 0 -11.5 4.5t-2.5 11.5l35 145q3 13 17 13h76q7 0 10.5 -5t1.5 -12l-54 -145q-4 -12 -17 -12z" />
    <glyph glyph-name="uni021B" unicode="&#x21b;" horiz-adv-x="333" 
d="M176 181q0 -41 20.5 -64t58.5 -23q9 0 41 2q16 0 16 -14v-76q0 -15 -14 -16q-34 -2 -53 -2q-83 0 -134 45.5t-51 139.5v457q0 14 15 14h76q13 0 15 -13l9 -120h107q15 0 15 -14v-73q0 -14 -15 -14h-106v-229zM179 -244h-52q-16 0 -13 15l35 140q3 13 16 13h71q8 0 11 -5
t0 -12l-51 -140q-6 -11 -17 -11z" />
    <glyph glyph-name="uni0237" unicode="&#x237;" horiz-adv-x="250" 
d="M187 -8q0 -92 -43.5 -143t-123.5 -51q-27 0 -50 3q-14 2 -14 16v74q0 15 16 15q24 -2 33 -2q34 0 50 21.5t16 69.5v509q0 14 14 14h87q15 0 15 -14v-512z" />
    <glyph glyph-name="circumflex" unicode="&#x2c6;" horiz-adv-x="351" 
d="M98 591h-71q-21 0 -8 18l113 132q8 9 18 9h59q12 0 18 -9l112 -132q13 -18 -7 -18h-71q-12 0 -18 8l-63 75l-65 -75q-8 -8 -17 -8z" />
    <glyph glyph-name="caron" unicode="&#x2c7;" horiz-adv-x="289" 
d="M27 759h71q9 0 17 -8l65 -75l63 75q6 8 18 8h71q20 0 7 -18l-112 -132q-6 -9 -18 -9h-59q-10 0 -18 9l-113 132q-13 18 8 18z" />
    <glyph glyph-name="breve" unicode="&#x2d8;" horiz-adv-x="252" 
d="M322 720q-8 -62 -49.5 -98.5t-111.5 -36.5t-111 36t-49 97q-2 15 13 17l56 8q13 1 16 -12q13 -60 75 -60q61 0 75 60q3 13 17 12l55 -8q15 -2 14 -15z" />
    <glyph glyph-name="dotaccent" unicode="&#x2d9;" horiz-adv-x="122" 
d="M131 654q0 -27 -18 -45.5t-46 -18.5t-46.5 18.5t-18.5 45.5q0 28 18.5 46t46.5 18t46 -18t18 -46z" />
    <glyph glyph-name="ring" unicode="&#x2da;" horiz-adv-x="240" 
d="M229 674q0 -50 -31 -79.5t-81 -29.5q-52 0 -85 30t-33 80t33 80.5t85 30.5q49 0 80.5 -31t31.5 -81zM66 674q0 -20 14 -33t36 -13t34.5 13t12.5 33q0 23 -12.5 36t-34.5 13q-23 0 -36.5 -13.5t-13.5 -35.5z" />
    <glyph glyph-name="ogonek" unicode="&#x2db;" horiz-adv-x="240" 
d="M219 -183q-43 -19 -91 -19q-51 0 -79.5 23.5t-28.5 64.5q0 30 20 59t56 50q9 5 18 5h52q7 0 9.5 -2t1 -5.5t-7.5 -6.5q-49 -32 -49 -66q0 -26 36 -26q22 0 43 6q15 5 18 -10l12 -55q3 -14 -10 -18z" />
    <glyph glyph-name="tilde" unicode="&#x2dc;" horiz-adv-x="358" 
d="M352 663q-11 -32 -36.5 -59t-59.5 -27q-27 0 -75 26q-42 23 -57 23q-20 0 -38 -32q-7 -13 -20 -7l-47 27q-12 6 -7 19q13 33 37 58t57 25q29 0 75 -26q46 -23 62 -23q17 0 34 32q7 13 20 7l47 -27q11 -6 8 -16z" />
    <glyph glyph-name="hungarumlaut" unicode="&#x2dd;" horiz-adv-x="305" 
d="M62 591h-50q-8 0 -11 5.5t1 12.5l69 130q5 11 17 11h69q8 0 11 -5.5t-2 -12.5l-86 -132q-6 -9 -18 -9zM223 591h-50q-8 0 -11 5.5t1 12.5l79 131q6 10 17 10h69q9 0 12 -5t-3 -13l-97 -132q-6 -9 -17 -9z" />
    <glyph glyph-name="gravecomb" unicode="&#x300;" horiz-adv-x="217" 
d="M205 591h-66q-12 0 -18 9l-100 132q-6 8 -3.5 13t11.5 5h88q12 0 18 -10l80 -131q5 -7 2 -12.5t-12 -5.5z" />
    <glyph glyph-name="acutecomb" unicode="&#x301;" horiz-adv-x="219" 
d="M87 591h-66q-9 0 -12 5.5t2 12.5l80 131q6 10 18 10h88q9 0 11.5 -5t-3.5 -13l-100 -132q-6 -9 -18 -9z" />
    <glyph glyph-name="uni0302" unicode="&#x302;" horiz-adv-x="358" 
d="M98 591h-71q-21 0 -8 18l113 132q8 9 18 9h59q12 0 18 -9l112 -132q13 -18 -7 -18h-71q-12 0 -18 8l-63 75l-65 -75q-8 -8 -17 -8z" />
    <glyph glyph-name="tildecomb" unicode="&#x303;" horiz-adv-x="363" 
d="M352 663q-11 -32 -36.5 -59t-59.5 -27q-27 0 -75 26q-42 23 -57 23q-20 0 -38 -32q-7 -13 -20 -7l-47 27q-12 6 -7 19q13 33 37 58t57 25q29 0 75 -26q46 -23 62 -23q17 0 34 32q7 13 20 7l47 -27q11 -6 8 -16z" />
    <glyph glyph-name="uni0304" unicode="&#x304;" horiz-adv-x="292" 
d="M0 613v60q0 14 15 14h263q14 0 14 -14v-60q0 -15 -14 -15h-263q-15 0 -15 15z" />
    <glyph glyph-name="uni0306" unicode="&#x306;" horiz-adv-x="323" 
d="M322 720q-8 -62 -49.5 -98.5t-111.5 -36.5t-111 36t-49 97q-2 15 13 17l56 8q13 1 16 -12q13 -60 75 -60q61 0 75 60q3 13 17 12l55 -8q15 -2 14 -15z" />
    <glyph glyph-name="uni0307" unicode="&#x307;" horiz-adv-x="132" 
d="M131 654q0 -27 -18 -45.5t-46 -18.5t-46.5 18.5t-18.5 45.5q0 28 18.5 46t46.5 18t46 -18t18 -46z" />
    <glyph glyph-name="uni0308" unicode="&#x308;" horiz-adv-x="328" 
d="M123 653q0 -28 -17 -44.5t-44 -16.5t-44.5 16.5t-17.5 44.5q0 29 17.5 45.5t44.5 16.5t44 -16.5t17 -45.5zM328 653q0 -28 -17 -44.5t-44 -16.5t-44.5 16.5t-17.5 44.5q0 29 17 45.5t45 16.5q27 0 44 -16.5t17 -45.5z" />
    <glyph glyph-name="uni030A" unicode="&#x30a;" horiz-adv-x="230" 
d="M229 674q0 -50 -31 -79.5t-81 -29.5q-52 0 -85 30t-33 80t33 80.5t85 30.5q49 0 80.5 -31t31.5 -81zM66 674q0 -20 14 -33t36 -13t34.5 13t12.5 33q0 23 -12.5 36t-34.5 13q-23 0 -36.5 -13.5t-13.5 -35.5z" />
    <glyph glyph-name="uni030B" unicode="&#x30b;" horiz-adv-x="341" 
d="M62 591h-50q-8 0 -11 5.5t1 12.5l69 130q5 11 17 11h69q8 0 11 -5.5t-2 -12.5l-86 -132q-6 -9 -18 -9zM223 591h-50q-8 0 -11 5.5t1 12.5l79 131q6 10 17 10h69q9 0 12 -5t-3 -13l-97 -132q-6 -9 -17 -9z" />
    <glyph glyph-name="uni030C" unicode="&#x30c;" horiz-adv-x="329" 
d="M27 749h71q9 0 17 -8l65 -75l63 75q6 8 18 8h71q20 0 7 -18l-112 -132q-6 -9 -18 -9h-59q-10 0 -18 9l-113 132q-13 18 8 18z" />
    <glyph glyph-name="uni0312" unicode="&#x312;" horiz-adv-x="158" 
d="M97 591h-77q-8 0 -11 5t0 12l59 140q5 12 18 12h54q17 0 12 -17l-39 -140q-3 -12 -16 -12z" />
    <glyph glyph-name="uni0326" unicode="&#x326;" horiz-adv-x="149" 
d="M70 -244h-52q-16 0 -13 15l35 140q3 13 16 13h71q8 0 11 -5t0 -12l-51 -140q-6 -11 -17 -11z" />
    <glyph glyph-name="uni0327" unicode="&#x327;" horiz-adv-x="212" 
d="M208 -120q0 -42 -34.5 -64.5t-92.5 -22.5q-31 0 -57 9q-12 3 -12 17v30q0 15 17 12q22 -5 38 -5q53 0 53 31q0 28 -50 31q-12 0 -18 10q-2 6 2 14l22 51q4 11 17 11h34q19 0 12 -17l-15 -33q38 -3 61 -23t23 -51z" />
    <glyph glyph-name="uni0328" unicode="&#x328;" horiz-adv-x="211" 
d="M199 -183q-43 -19 -91 -19q-51 0 -79.5 23.5t-28.5 64.5q0 30 20 59t56 50q9 5 18 5h52q7 0 9.5 -2t1 -5.5t-7.5 -6.5q-49 -32 -49 -66q0 -26 36 -26q22 0 43 6q15 5 18 -10l12 -55q3 -14 -10 -18z" />
    <glyph glyph-name="uni0335" unicode="&#x335;" horiz-adv-x="346" 
d="M331 574h-316q-15 0 -15 15v51q0 14 15 14h316q15 0 15 -14v-51q0 -15 -15 -15z" />
    <glyph glyph-name="uni0336" unicode="&#x336;" horiz-adv-x="537" 
d="M0 239v51q0 15 15 15h507q15 0 15 -15v-51q0 -14 -15 -14h-507q-15 0 -15 14z" />
    <glyph glyph-name="uni0337" unicode="&#x337;" horiz-adv-x="293" 
d="M8 338l267 237q7 6 12.5 3.5t5.5 -12.5v-72q0 -10 -9 -18l-266 -237q-8 -7 -13 -4.5t-5 12.5v73q0 10 8 18z" />
    <glyph glyph-name="uni0338" unicode="&#x338;" horiz-adv-x="571" 
d="M119 -45h-77q-9 0 -12 5.5t1 12.5l409 770q4 11 16 11h78q8 0 11 -5t-1 -13l-408 -771q-6 -10 -17 -10z" />
    <glyph glyph-name="tonos" unicode="&#x384;" horiz-adv-x="219" 
d="M87 591h-66q-9 0 -12 5.5t2 12.5l80 131q6 10 18 10h88q9 0 11.5 -5t-3.5 -13l-100 -132q-6 -9 -18 -9z" />
    <glyph glyph-name="dieresistonos" unicode="&#x385;" horiz-adv-x="396" 
d="M193 597h-49q-19 0 -12 17l45 129q3 12 17 12h71q8 0 11 -5t-1 -12l-65 -131q-4 -10 -17 -10zM113 668q0 -25 -15.5 -40.5t-40.5 -15.5q-24 0 -40 15.5t-16 40.5q0 26 15.5 41t40.5 15t40.5 -15t15.5 -41zM395 668q0 -25 -15.5 -40.5t-39.5 -15.5q-25 0 -41 15.5
t-16 40.5q0 26 16 41t41 15q24 0 39.5 -15t15.5 -41z" />
    <glyph glyph-name="Alphatonos" unicode="&#x386;" horiz-adv-x="699" 
d="M101 556h-66q-9 0 -12 5t2 13l80 131q6 10 18 10h88q9 0 11.5 -5.5t-3.5 -12.5l-100 -132q-6 -9 -18 -9zM176 0h-98q-17 0 -12 17l240 686q4 12 16 12h114q12 0 16 -12l240 -686q5 -17 -12 -17h-98q-14 0 -17 12l-49 151h-274l-49 -151q-5 -12 -17 -12zM377 583
l-101 -311h206l-101 311h-4z" />
    <glyph glyph-name="Epsilontonos" unicode="&#x388;" horiz-adv-x="770" 
d="M82 556h-66q-9 0 -12 5t2 13l80 131q6 10 18 10h88q9 0 11.5 -5.5t-3.5 -12.5l-100 -132q-6 -9 -18 -9zM387 308v-198h321q15 0 15 -14v-81q0 -15 -15 -15h-428q-14 0 -14 15v685q0 15 14 15h414q15 0 15 -15v-81q0 -14 -15 -14h-307v-187h281q15 0 15 -15v-80
q0 -15 -15 -15h-281z" />
    <glyph glyph-name="Etatonos" unicode="&#x389;" horiz-adv-x="863" 
d="M82 556h-66q-9 0 -12 5t2 13l80 131q6 10 18 10h88q9 0 11.5 -5.5t-3.5 -12.5l-100 -132q-6 -9 -18 -9zM661 417v283q0 15 14 15h92q14 0 14 -15v-685q0 -15 -14 -15h-92q-14 0 -14 15v291h-282v-291q0 -15 -14 -15h-92q-14 0 -14 15v685q0 15 14 15h92q14 0 14 -15v-283
h282z" />
    <glyph glyph-name="Iotatonos" unicode="&#x38a;" horiz-adv-x="486" 
d="M82 556h-66q-9 0 -12 5t2 13l80 131q6 10 18 10h88q9 0 11.5 -5.5t-3.5 -12.5l-100 -132q-6 -9 -18 -9zM404 700v-685q0 -15 -14 -15h-92q-14 0 -14 15v685q0 15 14 15h92q14 0 14 -15z" />
    <glyph glyph-name="Omicrontonos" unicode="&#x38c;" horiz-adv-x="828" 
d="M84 556h-66q-9 0 -12 5t2 13l80 131q6 10 18 10h88q9 0 11.5 -5.5t-3.5 -12.5l-100 -132q-6 -9 -18 -9zM770 266q0 -131 -74 -204.5t-207 -73.5t-207 73.5t-74 204.5v184q0 131 74 204t207 73t207 -73t74 -204v-184zM331 266q0 -80 40 -122t118 -42t118 42t40 122v183
q0 165 -158 165t-158 -165v-183z" />
    <glyph glyph-name="Upsilontonos" unicode="&#x38e;" horiz-adv-x="860" 
d="M96 556h-66q-9 0 -12 5t2 13l80 131q6 10 18 10h88q9 0 11.5 -5.5t-3.5 -12.5l-100 -132q-6 -9 -18 -9zM611 0h-92q-15 0 -15 15v249l-230 433q-4 7 -1 12.5t12 5.5h105q12 0 16 -11l159 -329l158 329q4 11 17 11h105q8 0 11 -5.5t-1 -12.5l-229 -435v-247q0 -15 -15 -15
z" />
    <glyph glyph-name="Omegatonos" unicode="&#x38f;" horiz-adv-x="820" 
d="M400 0h-222q-14 0 -14 15v76q0 15 14 15h58q-64 72 -64 173v169q0 132 75.5 205.5t211.5 73.5q135 0 210.5 -73.5t75.5 -205.5v-169q0 -103 -64 -173h58q14 0 14 -15v-76q0 -15 -14 -15h-222q-15 0 -15 15v65q0 12 12 16q49 13 77.5 58.5t28.5 119.5v174q0 82 -41 124
t-120 42q-80 0 -121 -42t-41 -124v-174q0 -74 28.5 -119.5t77.5 -58.5q12 -4 12 -16v-65q0 -15 -15 -15zM87 556h-66q-9 0 -12 5t2 13l80 131q6 10 18 10h88q9 0 11.5 -5.5t-3.5 -12.5l-100 -132q-6 -9 -18 -9z" />
    <glyph glyph-name="iotadieresistonos" unicode="&#x390;" horiz-adv-x="242" 
d="M164 0h-86q-15 0 -15 15v489q0 14 15 14h86q15 0 15 -14v-489q0 -15 -15 -15zM58 662q0 -24 -14.5 -38.5t-38.5 -14.5t-39 14.5t-15 38.5t15 39t39 15t38.5 -14.5t14.5 -39.5zM126 591h-43q-17 0 -12 16l37 117q3 12 17 12h64q8 0 11 -5t-1 -13l-56 -117q-6 -10 -17 -10z
M315 662q0 -24 -14.5 -38.5t-38.5 -14.5q-23 0 -38 14.5t-15 38.5t14.5 39t38.5 15t38.5 -14.5t14.5 -39.5z" />
    <glyph glyph-name="Alpha" unicode="&#x391;" horiz-adv-x="640" 
d="M117 0h-98q-17 0 -12 17l240 686q5 12 16 12h114q11 0 16 -12l240 -686q5 -17 -12 -17h-98q-14 0 -17 12l-49 151h-274l-49 -151q-4 -12 -17 -12zM318 583l-101 -311h206l-101 311h-4z" />
    <glyph glyph-name="Beta" unicode="&#x392;" horiz-adv-x="645" 
d="M570 519q0 -97 -71 -140q102 -44 102 -165q0 -101 -65 -157.5t-180 -56.5h-260q-14 0 -14 15v685q0 15 14 15h260q101 0 157.5 -51.5t56.5 -144.5zM202 108h153q123 0 123 107q0 49 -31 77.5t-93 28.5h-152v-213zM448 517q0 44 -26.5 67t-69.5 23h-150v-181h150
q44 0 70 23t26 68z" />
    <glyph glyph-name="Gamma" unicode="&#x393;" horiz-adv-x="515" 
d="M188 0h-92q-14 0 -14 15v685q0 15 14 15h393q15 0 15 -15v-82q0 -14 -15 -14h-287v-589q0 -15 -14 -15z" />
    <glyph glyph-name="uni0394" unicode="&#x394;" horiz-adv-x="646" 
d="M626 0h-606q-17 0 -12 17l238 686q4 12 17 12h120q13 0 17 -12l238 -686q5 -17 -12 -17zM262 401l-95 -291h312l-95 290l-59 181h-4z" />
    <glyph glyph-name="Epsilon" unicode="&#x395;" horiz-adv-x="586" 
d="M203 308v-198h321q15 0 15 -14v-81q0 -15 -15 -15h-428q-14 0 -14 15v685q0 15 14 15h414q15 0 15 -15v-81q0 -14 -15 -14h-307v-187h281q15 0 15 -15v-80q0 -15 -15 -15h-281z" />
    <glyph glyph-name="Zeta" unicode="&#x396;" horiz-adv-x="606" 
d="M554 0h-503q-15 0 -15 15v57q0 12 5 19l355 513h-328q-15 0 -15 15v81q0 15 15 15h476q14 0 14 -15v-55q0 -12 -5 -18l-353 -516h354q14 0 14 -14v-82q0 -15 -14 -15z" />
    <glyph glyph-name="Eta" unicode="&#x397;" horiz-adv-x="686" 
d="M484 417v283q0 15 14 15h92q14 0 14 -15v-685q0 -15 -14 -15h-92q-14 0 -14 15v291h-282v-291q0 -15 -14 -15h-92q-14 0 -14 15v685q0 15 14 15h92q14 0 14 -15v-283h282z" />
    <glyph glyph-name="Theta" unicode="&#x398;" horiz-adv-x="684" 
d="M626 266q0 -131 -75 -204.5t-209 -73.5t-209 73.5t-75 204.5v184q0 131 75 204t209 73t209 -73t75 -204v-184zM181 266q0 -80 41 -122t120 -42t120 42t41 122v183q0 165 -161 165t-161 -165v-183zM446 314h-208q-15 0 -15 14v67q0 15 15 15h208q15 0 15 -15v-67
q0 -14 -15 -14z" />
    <glyph glyph-name="Iota" unicode="&#x399;" horiz-adv-x="284" 
d="M202 700v-685q0 -15 -14 -15h-92q-14 0 -14 15v685q0 15 14 15h92q14 0 14 -15z" />
    <glyph glyph-name="Kappa" unicode="&#x39a;" horiz-adv-x="623" 
d="M188 0h-92q-14 0 -14 15v685q0 15 14 15h92q14 0 14 -15v-290l250 296q9 9 18 9h117q10 0 12.5 -5.5t-3.5 -12.5l-265 -301l287 -378q6 -8 3 -13t-12 -5h-117q-13 0 -18 9l-222 299l-50 -54v-239q0 -15 -14 -15z" />
    <glyph glyph-name="Lambda" unicode="&#x39b;" horiz-adv-x="646" 
d="M119 0h-99q-17 0 -12 17l238 687q5 11 17 11h120q12 0 17 -11l238 -687q5 -17 -12 -17h-99q-13 0 -16 12l-186 570h-4l-185 -570q-4 -12 -17 -12z" />
    <glyph glyph-name="Mu" unicode="&#x39c;" horiz-adv-x="860" 
d="M187 0h-91q-14 0 -14 15v685q0 15 14 15h109q12 0 16 -11l122 -227q38 -71 85 -176h4q47 105 85 176l121 227q6 11 17 11h108q15 0 15 -15v-685q0 -15 -15 -15h-91q-14 0 -14 15v201q0 118 8 314l-3 1q-30 -65 -90 -185l-88 -171q-5 -11 -17 -11h-76q-12 0 -17 11
l-88 171q-60 120 -90 185l-3 -1q8 -196 8 -314v-201q0 -15 -15 -15z" />
    <glyph glyph-name="Nu" unicode="&#x39d;" horiz-adv-x="706" 
d="M187 0h-91q-14 0 -14 15v685q0 15 14 15h101q11 0 18 -10l195 -340l100 -181l3 1q-9 128 -9 271v244q0 15 15 15h90q15 0 15 -15v-685q0 -15 -15 -15h-101q-11 0 -17 10l-189 313q-59 95 -107 197l-3 -1q9 -155 9 -275v-229q0 -15 -14 -15z" />
    <glyph glyph-name="Xi" unicode="&#x39e;" horiz-adv-x="582" 
d="M505 604h-429q-14 0 -14 15v81q0 15 14 15h429q15 0 15 -15v-81q0 -15 -15 -15zM484 308h-386q-15 0 -15 15v79q0 15 15 15h386q15 0 15 -15v-79q0 -15 -15 -15zM521 0h-460q-15 0 -15 15v82q0 14 15 14h460q15 0 15 -14v-82q0 -15 -15 -15z" />
    <glyph glyph-name="Omicron" unicode="&#x39f;" horiz-adv-x="678" 
d="M620 266q0 -131 -74 -204.5t-207 -73.5t-207 73.5t-74 204.5v184q0 131 74 204t207 73t207 -73t74 -204v-184zM181 266q0 -80 40 -122t118 -42t118 42t40 122v183q0 165 -158 165t-158 -165v-183z" />
    <glyph glyph-name="Pi" unicode="&#x3a0;" horiz-adv-x="689" 
d="M189 0h-93q-14 0 -14 15v685q0 15 14 15h496q15 0 15 -15v-685q0 -15 -15 -15h-92q-14 0 -14 15v589h-283v-589q0 -15 -14 -15z" />
    <glyph glyph-name="Rho" unicode="&#x3a1;" horiz-adv-x="632" 
d="M96 715h253q118 0 184.5 -65t66.5 -179q0 -116 -66.5 -180.5t-184.5 -64.5h-147v-211q0 -15 -14 -15h-92q-14 0 -14 15v685q0 15 14 15zM202 338h133q73 0 107.5 32.5t34.5 100.5t-34.5 100t-107.5 32h-133v-265z" />
    <glyph glyph-name="Sigma" unicode="&#x3a3;" horiz-adv-x="574" 
d="M53 715h461q15 0 15 -15v-79q0 -15 -15 -15h-299q21 -26 62 -85l99 -141q6 -10 0 -21l-102 -153q-25 -40 -71 -96h311q15 0 15 -14v-81q0 -15 -15 -15h-461q-14 0 -14 15v48q0 12 5 18l200 288l-199 272q-6 7 -6 18v41q0 15 14 15z" />
    <glyph glyph-name="Tau" unicode="&#x3a4;" horiz-adv-x="577" 
d="M27 715h523q15 0 15 -15v-82q0 -14 -15 -14h-201v-589q0 -15 -14 -15h-92q-14 0 -14 15v589h-202q-15 0 -15 14v82q0 15 15 15z" />
    <glyph glyph-name="Upsilon" unicode="&#x3a5;" horiz-adv-x="592" 
d="M342 0h-92q-15 0 -15 15v249l-230 433q-4 7 -1 12.5t12 5.5h105q12 0 16 -11l159 -329l158 329q4 11 17 11h105q8 0 11 -5.5t-1 -12.5l-229 -435v-247q0 -15 -15 -15z" />
    <glyph glyph-name="Phi" unicode="&#x3a6;" horiz-adv-x="866" 
d="M478 -68h-91q-14 0 -14 15v70h-47q-115 0 -192 69t-77 205v130q0 135 76.5 203.5t192.5 68.5h47v66q0 14 14 14h91q15 0 15 -14v-66h47q116 0 192.5 -68.5t76.5 -203.5v-130q0 -136 -77 -205t-192 -69h-47v-70q0 -15 -15 -15zM181 289q0 -82 42 -120t109 -38h41v449h-41
q-151 0 -151 -158v-133zM493 580v-449h41q67 0 109 38t42 120v133q0 158 -151 158h-41z" />
    <glyph glyph-name="Chi" unicode="&#x3a7;" horiz-adv-x="604" 
d="M373 358l213 -340q4 -8 1.5 -13t-10.5 -5h-112q-12 0 -18 11l-145 254l-145 -254q-6 -11 -18 -11h-111q-9 0 -12 5t2 13l213 340l-201 339q-4 7 -1 12.5t12 5.5h108q11 0 17 -11l136 -251l137 251q6 11 17 11h108q8 0 11 -5.5t-1 -12.5z" />
    <glyph glyph-name="Psi" unicode="&#x3a8;" horiz-adv-x="835" 
d="M464 0h-92q-15 0 -15 15v138h-41q-108 0 -185 65.5t-77 184.5v297q0 15 15 15h94q14 0 14 -15v-297q0 -69 42.5 -103t108.5 -34h29v434q0 15 15 15h92q15 0 15 -15v-434h29q66 0 108 34t42 103v297q0 15 15 15h94q14 0 14 -15v-297q0 -119 -76.5 -184.5t-184.5 -65.5h-41
v-138q0 -15 -15 -15z" />
    <glyph glyph-name="uni03A9" unicode="&#x3a9;" horiz-adv-x="723" 
d="M303 0h-222q-14 0 -14 15v76q0 15 14 15h58q-64 72 -64 173v169q0 132 75.5 205.5t211.5 73.5q135 0 210.5 -73.5t75.5 -205.5v-169q0 -103 -64 -173h58q14 0 14 -15v-76q0 -15 -14 -15h-222q-15 0 -15 15v65q0 12 12 16q49 13 77.5 58.5t28.5 119.5v174q0 82 -41 124
t-120 42q-80 0 -121 -42t-41 -124v-174q0 -74 28.5 -119.5t77.5 -58.5q12 -4 12 -16v-65q0 -15 -15 -15z" />
    <glyph glyph-name="Iotadieresis" unicode="&#x3aa;" horiz-adv-x="284" 
d="M188 0h-92q-14 0 -14 15v685q0 15 14 15h92q14 0 14 -15v-685q0 -15 -14 -15zM113 850q0 -28 -18 -46t-45 -18q-28 0 -46 18t-18 46t18 46t46 18q27 0 45 -18t18 -46zM300 850q0 -28 -18.5 -46t-46.5 -18t-46 18t-18 46t18 46t46 18t46.5 -18t18.5 -46z" />
    <glyph glyph-name="Upsilondieresis" unicode="&#x3ab;" horiz-adv-x="592" 
d="M256 850q0 -28 -18 -46t-46 -18t-46 18t-18 46t18 46t46 18t46 -18t18 -46zM465 850q0 -28 -18.5 -46t-46.5 -18t-46 18t-18 46t18 46t46 18t46.5 -18t18.5 -46zM342 0h-92q-15 0 -15 15v249l-230 433q-4 7 -1 12.5t12 5.5h105q12 0 16 -11l159 -329l158 329q4 11 17 11
h105q8 0 11 -5.5t-1 -12.5l-229 -435v-247q0 -15 -15 -15z" />
    <glyph glyph-name="alphatonos" unicode="&#x3ac;" horiz-adv-x="547" 
d="M381 52q-53 -64 -145 -64q-83 0 -137 52.5t-54 161.5v115q0 104 66 158.5t165 54.5q96 0 198 -35q11 -5 11 -16v-464q0 -15 -14 -15h-68q-14 0 -16 13zM162 201q0 -60 22 -85t73 -25q27 0 59 14t53 39v273q-39 10 -96 10q-48 0 -79.5 -28t-31.5 -81v-117zM283 591h-66
q-9 0 -12 5.5t2 12.5l80 131q6 10 18 10h88q9 0 11.5 -5t-3.5 -13l-100 -132q-6 -9 -18 -9z" />
    <glyph glyph-name="epsilontonos" unicode="&#x3ad;" horiz-adv-x="493" 
d="M257 89q79 0 144 53q12 9 21 -2l45 -55q8 -11 -1 -20q-50 -45 -100.5 -61t-113.5 -16q-95 0 -154 47t-59 120q0 86 76 118q-60 35 -60 101q0 68 56 112t146 44q111 0 194 -66q9 -9 1 -21l-42 -54q-8 -13 -21 -3q-58 45 -129 45q-89 0 -89 -62q0 -30 21.5 -45.5
t58.5 -15.5h86q14 0 14 -15v-55q0 -15 -14 -15h-86q-95 0 -95 -64q0 -70 101 -70zM259 591h-66q-9 0 -12 5.5t2 12.5l80 131q6 10 18 10h88q9 0 11.5 -5t-3.5 -13l-100 -132q-6 -9 -18 -9z" />
    <glyph glyph-name="etatonos" unicode="&#x3ae;" horiz-adv-x="562" 
d="M286 591h-66q-9 0 -12 5.5t2 12.5l80 131q6 10 18 10h88q9 0 11.5 -5t-3.5 -13l-100 -132q-6 -9 -18 -9zM163 0h-86q-15 0 -15 15v458q0 13 11 18q90 39 199 39t170.5 -54.5t61.5 -169.5v-291q0 -15 -14 -15h-87q-15 0 -15 15v289q0 67 -29 94.5t-87 27.5q-52 0 -94 -11
v-400q0 -15 -15 -15z" />
    <glyph glyph-name="iotatonos" unicode="&#x3af;" horiz-adv-x="242" 
d="M134 591h-66q-9 0 -12 5.5t2 12.5l80 131q6 10 18 10h88q9 0 11.5 -5t-3.5 -13l-100 -132q-6 -9 -18 -9zM164 0h-86q-15 0 -15 15v489q0 14 15 14h86q15 0 15 -14v-489q0 -15 -15 -15z" />
    <glyph glyph-name="upsilondieresistonos" unicode="&#x3b0;" horiz-adv-x="563" 
d="M504 194q0 -93 -64 -149.5t-158 -56.5q-95 0 -159 56.5t-64 149.5v310q0 14 15 14h87q14 0 14 -14v-310q0 -52 30 -77.5t77 -25.5t76.5 25.5t29.5 77.5v310q0 14 14 14h87q15 0 15 -14v-310zM276 592h-49q-19 0 -12 17l45 129q3 12 17 12h71q8 0 11 -5t-1 -12l-65 -131
q-4 -10 -17 -10zM196 663q0 -25 -15.5 -40.5t-40.5 -15.5q-24 0 -40 15.5t-16 40.5q0 26 15.5 41t40.5 15t40.5 -15t15.5 -41zM478 663q0 -25 -15.5 -40.5t-39.5 -15.5q-25 0 -41 15.5t-16 40.5q0 26 16 41t41 15q24 0 39.5 -15t15.5 -41z" />
    <glyph glyph-name="alpha" unicode="&#x3b1;" horiz-adv-x="547" 
d="M381 52q-53 -64 -145 -64q-83 0 -137 52.5t-54 161.5v115q0 104 66 158.5t165 54.5q96 0 198 -35q11 -5 11 -16v-464q0 -15 -14 -15h-68q-14 0 -16 13zM162 201q0 -60 22 -85t73 -25q27 0 59 14t53 39v273q-39 10 -96 10q-48 0 -79.5 -28t-31.5 -81v-117z" />
    <glyph glyph-name="beta" unicode="&#x3b2;" horiz-adv-x="547" 
d="M482 526q0 -89 -82 -150q108 -47 108 -175q0 -102 -60.5 -156.5t-158.5 -56.5q-55 -2 -111 14v-178q0 -15 -15 -15h-85q-14 0 -14 15v699q0 98 59 151t149 53q92 0 151 -54.5t59 -146.5zM178 106q41 -15 94 -15q61 0 91 27t30 86q0 56 -29 81.5t-94 25.5h-32
q-14 0 -14 15v71q0 14 14 14h33q43 0 70 30t27 79q0 52 -27 77.5t-68 25.5q-45 0 -70 -28.5t-25 -72.5v-416z" />
    <glyph glyph-name="gamma" unicode="&#x3b3;" horiz-adv-x="513" 
d="M300 -190h-86q-15 0 -15 15v187l-187 490q-3 7 0 11.5t11 4.5h94q14 0 17 -11l59 -178q1 -2 28 -89.5t35 -115.5h2q19 70 63 205l58 178q3 11 17 11h93q8 0 11.5 -4.5t0.5 -11.5l-187 -490v-187q0 -15 -14 -15z" />
    <glyph glyph-name="delta" unicode="&#x3b4;" horiz-adv-x="542" 
d="M183 572q0 -30 42.5 -54.5t117.5 -49.5q156 -54 156 -187v-97q0 -94 -67.5 -145t-160.5 -51t-160 51t-67 145v100q0 56 32.5 100t82.5 67q-89 55 -89 127q0 64 54 106.5t154 42.5q95 0 173 -43q13 -7 6 -20l-35 -68q-6 -13 -21 -6q-67 34 -128 34q-41 0 -65.5 -14.5
t-24.5 -37.5zM272 92q45 0 77.5 23t32.5 72v90q0 43 -31 73t-79 37q-49 0 -80 -29t-31 -77v-94q0 -47 32 -71t79 -24z" />
    <glyph glyph-name="epsilon" unicode="&#x3b5;" horiz-adv-x="493" 
d="M257 89q79 0 144 53q12 9 21 -2l45 -55q8 -11 -1 -20q-50 -45 -100.5 -61t-113.5 -16q-95 0 -154 47t-59 120q0 86 76 118q-60 35 -60 101q0 68 56 112t146 44q111 0 194 -66q9 -9 1 -21l-42 -54q-8 -13 -21 -3q-58 45 -129 45q-89 0 -89 -62q0 -30 21.5 -45.5
t58.5 -15.5h86q14 0 14 -15v-55q0 -15 -14 -15h-86q-95 0 -95 -64q0 -70 101 -70z" />
    <glyph glyph-name="zeta" unicode="&#x3b6;" horiz-adv-x="477" 
d="M425 -32q0 -67 -78 -154q-9 -12 -21 -2l-56 44q-10 9 -1 21q43 50 43 76q0 17 -19.5 28t-60.5 25l-37 13.5t-36.5 16t-37.5 21.5t-31.5 27t-28 35.5t-16.5 45t-7 57.5q0 102 68 206t190 183v1h-217q-15 0 -15 15v73q0 15 15 15h379q14 0 14 -15v-48q0 -11 -10 -18
q-144 -87 -226.5 -194t-82.5 -198q0 -54 27.5 -85.5t76.5 -53.5q15 -7 46 -19t47.5 -20t36.5 -21.5t29 -32t9 -42.5z" />
    <glyph glyph-name="eta" unicode="&#x3b7;" horiz-adv-x="562" 
d="M163 0h-86q-15 0 -15 15v458q0 13 11 18q90 39 199 39t170.5 -54.5t61.5 -169.5v-291q0 -15 -14 -15h-87q-15 0 -15 15v289q0 67 -29 94.5t-87 27.5q-52 0 -94 -11v-400q0 -15 -15 -15z" />
    <glyph glyph-name="theta" unicode="&#x3b8;" horiz-adv-x="584" 
d="M526 214q0 -110 -66 -168t-168 -58q-101 0 -167.5 58t-66.5 168v285q0 109 67 168.5t167 59.5q101 0 167.5 -59.5t66.5 -168.5v-285zM174 500v-87h235v87q0 62 -33.5 92.5t-84.5 30.5q-50 0 -83.5 -31t-33.5 -92zM174 210q0 -60 31.5 -88.5t85.5 -28.5q55 0 87 28.5
t32 88.5v103h-236v-103z" />
    <glyph glyph-name="iota" unicode="&#x3b9;" horiz-adv-x="242" 
d="M164 0h-86q-15 0 -15 15v489q0 14 15 14h86q15 0 15 -14v-489q0 -15 -15 -15z" />
    <glyph glyph-name="kappa" unicode="&#x3ba;" horiz-adv-x="506" 
d="M492 0h-101q-13 0 -18 9l-156 205l-41 -44v-155q0 -15 -15 -15h-83q-15 0 -15 15v488q0 15 15 15h83q15 0 15 -15v-193l179 200q6 8 18 8h101q10 0 12.5 -5t-3.5 -13l-189 -205l208 -277q11 -18 -10 -18z" />
    <glyph glyph-name="lambda" unicode="&#x3bb;" horiz-adv-x="563" 
d="M160 0h-87q-15 0 -15 15v266q0 104 61.5 153.5t158.5 49.5q47 0 107 -15v61q0 93 -111 93q-79 0 -129 -42q-13 -10 -21 2l-42 58q-7 12 2 21q71 65 192 65q96 0 159.5 -49.5t63.5 -154.5v-508q0 -15 -15 -15h-87q-14 0 -14 15v350q-48 16 -102 16q-107 0 -107 -102v-264
q0 -15 -14 -15z" />
    <glyph glyph-name="uni03BC" unicode="&#x3bc;" horiz-adv-x="572" 
d="M162 -190h-84q-15 0 -15 15v679q0 14 15 14h86q15 0 15 -14v-298q0 -51 29 -83.5t78 -32.5t78 32.5t29 83.5v298q0 14 15 14h86q15 0 15 -14v-489q0 -15 -15 -15h-63q-13 0 -16 12l-9 41q-15 -29 -48 -47t-72 -18q-73 0 -112 56q3 -42 3 -76v-143q0 -15 -15 -15z" />
    <glyph glyph-name="nu" unicode="&#x3bd;" horiz-adv-x="516" 
d="M310 0h-105q-12 0 -17 12l-175 490q-3 7 0 11.5t11 4.5h93q14 0 17 -11l123 -387h2l123 387q3 11 16 11h94q16 0 11 -16l-176 -490q-5 -12 -17 -12z" />
    <glyph glyph-name="xi" unicode="&#x3be;" horiz-adv-x="469" 
d="M429 -29q0 -69 -77 -156q-9 -13 -21 -3l-56 44q-11 9 -2 21q42 45 42 75q0 8 -5 15t-19 14t-22.5 10.5t-32.5 12.5q-34 12 -53 20.5t-50.5 27t-49 38.5t-31 52.5t-13.5 72.5q0 128 124 166q-106 52 -106 158q0 84 59 136t155 52q107 0 189 -63q13 -7 5 -20l-38 -58
q-8 -13 -21 -3q-60 41 -135 41q-40 0 -69 -22.5t-29 -67.5q0 -46 36 -74.5t92 -28.5h71q14 0 14 -14v-73q0 -15 -14 -15h-86q-57 0 -93.5 -31t-36.5 -81q0 -65 92 -106q15 -7 48 -20t51 -22t40 -23.5t32 -33t10 -41.5z" />
    <glyph glyph-name="omicron" unicode="&#x3bf;" horiz-adv-x="548" 
d="M502 190q0 -93 -62 -147.5t-166 -54.5t-166 54.5t-62 147.5v134q0 94 62 150t166 56t166 -56t62 -150v-134zM163 190q0 -98 111 -98q54 0 82.5 25t28.5 73v134q0 49 -29 75.5t-82 26.5q-54 0 -82.5 -26t-28.5 -76v-134z" />
    <glyph glyph-name="pi" unicode="&#x3c0;" horiz-adv-x="552" 
d="M78 518h396q15 0 15 -14v-489q0 -15 -15 -15h-86q-15 0 -15 15v401h-194v-401q0 -15 -14 -15h-87q-15 0 -15 15v489q0 14 15 14z" />
    <glyph glyph-name="rho" unicode="&#x3c1;" horiz-adv-x="552" 
d="M159 -190h-85q-15 0 -15 15v488q0 107 63 162t157 55q95 0 161 -54.5t66 -161.5v-128q0 -95 -63 -146.5t-164 -51.5q-49 0 -106 27v-190q0 -15 -14 -15zM173 123q48 -31 101 -31t84.5 24.5t31.5 75.5v119q0 116 -110 116q-107 0 -107 -117v-187z" />
    <glyph glyph-name="sigma1" unicode="&#x3c2;" horiz-adv-x="461" 
d="M160 214q0 -25 10.5 -45t34 -35.5t41 -24t51.5 -21.5q33 -13 50.5 -21t39.5 -22.5t32 -32.5t10 -41q0 -71 -78 -158q-9 -11 -21 -2l-56 45q-12 10 -1 21q44 46 44 75q0 8 -5 14t-18 12.5t-23 10.5l-31 12q-34 13 -52 20.5t-50 26t-48.5 38t-30.5 51.5t-14 71v131
q0 93 62 142t146 49q110 0 184 -49q11 -8 3 -20l-40 -62q-8 -11 -20 -4q-57 31 -123 31q-40 0 -68.5 -22.5t-28.5 -66.5v-123z" />
    <glyph glyph-name="sigma" unicode="&#x3c3;" horiz-adv-x="572" 
d="M501 196q0 -97 -62 -152.5t-166 -55.5t-166 55.5t-62 152.5v109q0 98 62 155.5t166 57.5h263q15 0 15 -14v-73q0 -15 -15 -15h-72q37 -47 37 -115v-105zM160 197q0 -104 113 -104t113 104v108q0 109 -113 109t-113 -109v-108z" />
    <glyph glyph-name="tau" unicode="&#x3c4;" horiz-adv-x="457" 
d="M272 0h-86q-15 0 -15 15v401h-140q-15 0 -15 15v73q0 14 15 14h395q15 0 15 -14v-73q0 -15 -15 -15h-139v-401q0 -15 -15 -15z" />
    <glyph glyph-name="upsilon" unicode="&#x3c5;" horiz-adv-x="563" 
d="M504 194q0 -93 -64 -149.5t-158 -56.5q-95 0 -159 56.5t-64 149.5v310q0 14 15 14h87q14 0 14 -14v-310q0 -52 30 -77.5t77 -25.5t76.5 25.5t29.5 77.5v310q0 14 14 14h87q15 0 15 -14v-310z" />
    <glyph glyph-name="phi" unicode="&#x3c6;" horiz-adv-x="755" 
d="M420 -190h-86q-14 0 -14 15v175h-72q-86 0 -144 52t-58 153v109q0 97 60 150.5t152 53.5h62v182q0 15 14 15h86q14 0 14 -15v-182h71q92 0 148 -53.5t56 -150.5v-109q0 -100 -57 -152.5t-137 -52.5h-81v-175q0 -15 -14 -15zM160 207q0 -55 26 -79.5t82 -24.5h52v313h-57
q-103 0 -103 -105v-104zM434 103h52q56 0 82 24.5t26 79.5v104q0 105 -103 105h-57v-313z" />
    <glyph glyph-name="chi" unicode="&#x3c7;" horiz-adv-x="502" 
d="M323 260l161 -242q10 -18 -9 -18h-106q-12 0 -18 10l-100 170l-100 -170q-6 -10 -18 -10h-105q-20 0 -10 18l161 242l-152 241q-4 7 -1 12t11 5h101q11 0 18 -10l95 -167l95 167q7 10 18 10h101q8 0 11 -5t-1 -12z" />
    <glyph glyph-name="psi" unicode="&#x3c8;" horiz-adv-x="768" 
d="M426 -190h-84q-15 0 -15 15v175h-48q-90 0 -155.5 54t-65.5 159v291q0 14 15 14h86q14 0 14 -14v-288q0 -59 30.5 -85.5t94.5 -26.5h29v400q0 14 15 14h84q15 0 15 -14v-400h29q64 0 94.5 26.5t30.5 85.5v288q0 14 14 14h86q15 0 15 -14v-291q0 -105 -65.5 -159
t-155.5 -54h-48v-175q0 -15 -15 -15z" />
    <glyph glyph-name="omega" unicode="&#x3c9;" horiz-adv-x="772" 
d="M525 444l19 75q3 15 18 11q72 -17 117.5 -67.5t45.5 -129.5v-150q0 -92 -59.5 -143.5t-133.5 -51.5q-99 0 -146 84q-47 -84 -146 -84q-75 0 -134 51.5t-59 143.5v150q0 79 45.5 129.5t117.5 67.5q13 3 18 -11l19 -75q3 -14 -10 -17q-34 -9 -54.5 -34t-20.5 -64v-143
q0 -45 25.5 -69.5t56.5 -24.5q39 0 62 23.5t23 70.5v132q0 15 15 15h84q15 0 15 -15v-132q0 -47 23 -70.5t62 -23.5q31 0 56.5 24.5t25.5 69.5v143q0 39 -20.5 64t-54.5 34q-13 3 -10 17z" />
    <glyph glyph-name="iotadieresis" unicode="&#x3ca;" horiz-adv-x="242" 
d="M164 0h-87q-14 0 -14 15v489q0 14 14 14h87q15 0 15 -14v-489q0 -15 -15 -15zM102 654q0 -26 -17 -43t-42 -17t-42.5 17t-17.5 43t17 43.5t43 17.5q25 0 42 -17.5t17 -43.5zM258 654q0 -26 -17.5 -43t-43.5 -17q-25 0 -42 17t-17 43t17 43.5t42 17.5q26 0 43.5 -17.5
t17.5 -43.5z" />
    <glyph glyph-name="upsilondieresis" unicode="&#x3cb;" horiz-adv-x="563" 
d="M504 194q0 -93 -64 -149.5t-158 -56.5q-95 0 -159 56.5t-64 149.5v310q0 14 15 14h87q14 0 14 -14v-310q0 -52 30 -77.5t77 -25.5t76.5 25.5t29.5 77.5v310q0 14 14 14h87q15 0 15 -14v-310zM241 653q0 -28 -17 -44.5t-44 -16.5t-44.5 16.5t-17.5 44.5q0 29 17.5 45.5
t44.5 16.5t44 -16.5t17 -45.5zM446 653q0 -28 -17 -44.5t-44 -16.5t-44.5 16.5t-17.5 44.5q0 29 17 45.5t45 16.5q27 0 44 -16.5t17 -45.5z" />
    <glyph glyph-name="omicrontonos" unicode="&#x3cc;" horiz-adv-x="548" 
d="M279 591h-66q-9 0 -12 5.5t2 12.5l80 131q6 10 18 10h88q9 0 11.5 -5t-3.5 -13l-100 -132q-6 -9 -18 -9zM502 190q0 -93 -62 -147.5t-166 -54.5t-166 54.5t-62 147.5v134q0 94 62 150t166 56t166 -56t62 -150v-134zM163 190q0 -98 111 -98q54 0 82.5 25t28.5 73v134
q0 49 -29 75.5t-82 26.5q-54 0 -82.5 -26t-28.5 -76v-134z" />
    <glyph glyph-name="upsilontonos" unicode="&#x3cd;" horiz-adv-x="563" 
d="M504 194q0 -93 -64 -149.5t-158 -56.5q-95 0 -159 56.5t-64 149.5v310q0 14 15 14h87q14 0 14 -14v-310q0 -52 30 -77.5t77 -25.5t76.5 25.5t29.5 77.5v310q0 14 14 14h87q15 0 15 -14v-310zM287 591h-66q-9 0 -12 5.5t2 12.5l80 131q6 10 18 10h88q9 0 11.5 -5t-3.5 -13
l-100 -132q-6 -9 -18 -9z" />
    <glyph glyph-name="omegatonos" unicode="&#x3ce;" horiz-adv-x="772" 
d="M525 444l19 75q3 15 18 11q72 -17 117.5 -67.5t45.5 -129.5v-150q0 -92 -59.5 -143.5t-133.5 -51.5q-99 0 -146 84q-47 -84 -146 -84q-75 0 -134 51.5t-59 143.5v150q0 79 45.5 129.5t117.5 67.5q13 3 18 -11l19 -75q3 -14 -10 -17q-34 -9 -54.5 -34t-20.5 -64v-143
q0 -45 25.5 -69.5t56.5 -24.5q39 0 62 23.5t23 70.5v132q0 15 15 15h84q15 0 15 -15v-132q0 -47 23 -70.5t62 -23.5q31 0 56.5 24.5t25.5 69.5v143q0 39 -20.5 64t-54.5 34q-13 3 -10 17zM398 591h-66q-9 0 -12 5.5t2 12.5l80 131q6 10 18 10h88q9 0 11.5 -5t-3.5 -13
l-100 -132q-6 -9 -18 -9z" />
    <glyph glyph-name="uni0401" unicode="&#x401;" horiz-adv-x="586" 
d="M273 850q0 -28 -18 -46t-46 -18t-46 18t-18 46t18 46t46 18t46 -18t18 -46zM482 850q0 -28 -18.5 -46t-46.5 -18t-46 18t-18 46t18 46t46 18t46.5 -18t18.5 -46zM203 308v-198h321q15 0 15 -14v-81q0 -15 -15 -15h-428q-14 0 -14 15v685q0 15 14 15h414q15 0 15 -15v-81
q0 -14 -15 -14h-307v-187h281q15 0 15 -15v-80q0 -15 -15 -15h-281z" />
    <glyph glyph-name="uni0402" unicode="&#x402;" horiz-adv-x="720" 
d="M348 497q49 17 109 17q99 0 159.5 -56t60.5 -171v-105q0 -92 -44 -143t-125 -51q-26 0 -48 3q-13 1 -13 16v76q0 7 3.5 11t10.5 3q12 -1 32 -1q33 0 48.5 21t15.5 68v96q0 69 -27.5 97.5t-84.5 28.5q-56 0 -97 -19v-373q0 -15 -15 -15h-90q-15 0 -15 15v590h-202
q-14 0 -14 14v81q0 15 14 15h523q15 0 15 -15v-81q0 -14 -15 -14h-201v-108z" />
    <glyph glyph-name="uni0403" unicode="&#x403;" horiz-adv-x="515" 
d="M188 0h-92q-14 0 -14 15v685q0 15 14 15h393q15 0 15 -15v-82q0 -14 -15 -14h-287v-589q0 -15 -14 -15zM434 919l-125 -133q-7 -8 -18 -8h-73q-21 0 -10 18l103 132q6 9 18 9h96q10 0 12.5 -5.5t-3.5 -12.5z" />
    <glyph glyph-name="uni0404" unicode="&#x404;" horiz-adv-x="596" 
d="M566 61q-95 -74 -230 -74q-120 0 -198 65t-78 191v228q0 125 78 190.5t196 65.5t214 -67q11 -8 3 -20l-47 -68q-7 -12 -21 -4q-65 45 -149 45q-72 0 -112.5 -38t-40.5 -105v-60h231q15 0 15 -14v-82q0 -14 -15 -14h-231v-54q0 -68 40.5 -106.5t113.5 -38.5q93 0 166 53
q13 9 20 -4l47 -68q8 -13 -2 -21z" />
    <glyph glyph-name="uni0405" unicode="&#x405;" horiz-adv-x="621" 
d="M581 203q0 -106 -78 -160.5t-196 -54.5q-73 0 -132.5 23t-122.5 73q-10 10 -3 21l50 70q8 11 20 3q101 -73 193 -76q60 0 102.5 25.5t42.5 73.5q0 26 -12 44.5t-38 30.5t-48.5 18.5t-63.5 14.5q-243 51 -243 219q0 99 75.5 149t191.5 50q119 0 235 -79q13 -8 4 -20
l-48 -69q-7 -12 -21 -3q-85 55 -179 58q-64 0 -100 -23.5t-36 -64.5q0 -19 8 -33.5t19.5 -24t33.5 -18t40.5 -13.5t50.5 -12q36 -8 60.5 -15t57 -19t54.5 -28t42.5 -38t30.5 -53t10 -69z" />
    <glyph glyph-name="uni0406" unicode="&#x406;" horiz-adv-x="284" 
d="M202 700v-685q0 -15 -14 -15h-92q-14 0 -14 15v685q0 15 14 15h92q14 0 14 -15z" />
    <glyph glyph-name="uni0407" unicode="&#x407;" horiz-adv-x="285" 
d="M203 700v-685q0 -15 -15 -15h-91q-15 0 -15 15v685q0 15 15 15h91q15 0 15 -15zM113 850q0 -28 -18 -46t-45 -18q-28 0 -46 18t-18 46t18 46t46 18q27 0 45 -18t18 -46zM300 850q0 -28 -18 -46t-46 -18t-46 18t-18 46t18 46t46 18t46 -18t18 -46z" />
    <glyph glyph-name="uni0408" unicode="&#x408;" horiz-adv-x="516" 
d="M438 243q0 -119 -63.5 -187t-161.5 -68q-109 0 -202 76q-10 7 -3 20l41 68q9 12 21 3q76 -53 142 -53q49 0 77 35t28 107v456q0 15 15 15h92q14 0 14 -15v-457z" />
    <glyph glyph-name="uni0409" unicode="&#x409;" horiz-adv-x="1002" 
d="M236 136q-29 -75 -78.5 -107t-130.5 -32q-15 0 -15 15v83q0 14 14 14q40 2 64 20.5t38 65.5q31 94 53 504q1 16 15 16h390q15 0 15 -15v-243h120q120 0 185.5 -57t65.5 -171q0 -109 -67 -169t-178 -60h-233q-15 0 -15 15v588h-182q-14 -347 -61 -467zM601 345v-232h125
q121 0 121 116t-126 116h-120z" />
    <glyph glyph-name="uni040A" unicode="&#x40a;" horiz-adv-x="989" 
d="M188 0h-92q-14 0 -14 15v685q0 14 14 14h92q15 0 15 -14v-262h265v262q0 14 14 14h92q15 0 15 -14v-261h120q121 0 186 -53.5t65 -160.5t-66.5 -166t-178.5 -59h-233q-14 0 -14 15v311h-265v-311q0 -15 -15 -15zM589 326v-214h125q122 0 122 112q0 102 -126 102h-121z
" />
    <glyph glyph-name="uni040B" unicode="&#x40b;" horiz-adv-x="723" 
d="M345 497q51 17 108 17q99 0 159.5 -56t60.5 -171v-272q0 -15 -15 -15h-89q-13 0 -15 15v266q0 69 -28 97.5t-85 28.5q-55 0 -96 -18v-374q0 -15 -14 -15h-91q-15 0 -15 15v590h-198q-14 0 -14 14v81q0 15 14 15h516q15 0 15 -15v-81q0 -14 -15 -14h-198v-108z" />
    <glyph glyph-name="uni040C" unicode="&#x40c;" horiz-adv-x="623" 
d="M478 919l-125 -133q-7 -8 -18 -8h-73q-21 0 -10 18l103 132q6 9 18 9h96q10 0 12.5 -5.5t-3.5 -12.5zM188 0h-92q-14 0 -14 15v685q0 15 14 15h92q14 0 14 -15v-290l250 296q9 9 18 9h117q10 0 12.5 -5.5t-3.5 -12.5l-265 -301l287 -378q6 -8 3 -13t-12 -5h-117
q-13 0 -18 9l-222 299l-50 -54v-239q0 -15 -14 -15z" />
    <glyph glyph-name="uni040E" unicode="&#x40e;" horiz-adv-x="569" 
d="M246 0h-101q-8 0 -11 5t1 12l95 209l-223 472q-4 8 -1 12.5t11 4.5h102q14 0 18 -12l154 -350l142 350q4 12 17 12h101q8 0 11 -4.5t0 -12.5l-298 -686q-4 -12 -18 -12zM456 906q-8 -62 -52 -99t-119 -37t-119 36t-52 98q-3 12 12 16l63 15q13 3 17 -11q14 -61 79 -61
q67 0 79 61q4 14 17 11l63 -15q14 -3 12 -14z" />
    <glyph glyph-name="uni040F" unicode="&#x40f;" horiz-adv-x="686" 
d="M498 715h92q14 0 14 -15v-685q0 -15 -14 -15h-189v-121q0 -14 -15 -14h-85q-15 0 -15 14v121h-190q-14 0 -14 15v685q0 15 14 15h92q14 0 14 -15v-589h282v589q0 15 14 15z" />
    <glyph glyph-name="uni0410" unicode="&#x410;" horiz-adv-x="640" 
d="M117 0h-98q-17 0 -12 17l240 686q5 12 16 12h114q11 0 16 -12l240 -686q5 -17 -12 -17h-98q-14 0 -17 12l-49 151h-274l-49 -151q-4 -12 -17 -12zM318 583l-101 -311h206l-101 311h-4z" />
    <glyph glyph-name="uni0411" unicode="&#x411;" horiz-adv-x="643" 
d="M202 437h151q128 0 190 -51.5t62 -163.5q0 -110 -66.5 -166t-180.5 -56h-262q-14 0 -14 15v685q0 15 14 15h437q15 0 15 -15v-80q0 -15 -15 -15h-331v-168zM202 110h153q63 0 95 26t32 86q0 55 -30 80.5t-97 25.5h-153v-218z" />
    <glyph glyph-name="uni0412" unicode="&#x412;" horiz-adv-x="645" 
d="M570 519q0 -97 -71 -140q102 -44 102 -165q0 -101 -65 -157.5t-180 -56.5h-260q-14 0 -14 15v685q0 15 14 15h260q101 0 157.5 -51.5t56.5 -144.5zM202 108h153q123 0 123 107q0 49 -31 77.5t-93 28.5h-152v-213zM448 517q0 44 -26.5 67t-69.5 23h-150v-181h150
q44 0 70 23t26 68z" />
    <glyph glyph-name="uni0413" unicode="&#x413;" horiz-adv-x="515" 
d="M188 0h-92q-14 0 -14 15v685q0 15 14 15h393q15 0 15 -15v-82q0 -14 -15 -14h-287v-589q0 -15 -14 -15z" />
    <glyph glyph-name="uni0414" unicode="&#x414;" horiz-adv-x="716" 
d="M120 -135h-90q-15 0 -15 14v218q0 15 15 15h25q35 11 57 63t38.5 174.5t30.5 349.5q1 16 16 16h396q15 0 15 -15v-588h54q15 0 15 -15v-218q0 -14 -15 -14h-90q-15 0 -15 14v121h-423v-121q0 -14 -14 -14zM299 604q-10 -207 -27 -321t-53 -171h267v492h-187z" />
    <glyph glyph-name="uni0415" unicode="&#x415;" horiz-adv-x="586" 
d="M203 308v-198h321q15 0 15 -14v-81q0 -15 -15 -15h-428q-14 0 -14 15v685q0 15 14 15h414q15 0 15 -15v-81q0 -14 -15 -14h-307v-187h281q15 0 15 -15v-80q0 -15 -15 -15h-281z" />
    <glyph glyph-name="uni0416" unicode="&#x416;" horiz-adv-x="930" 
d="M912 0h-116q-11 0 -18 10l-206 298l-48 -56v-237q0 -15 -14 -15h-90q-15 0 -15 15v237l-48 56l-206 -298q-6 -10 -18 -10h-116q-20 0 -9 18l274 380l-249 299q-6 8 -3.5 13t11.5 5h113q14 0 19 -9l232 -303v297q0 15 15 15h90q14 0 14 -15v-297l233 303q5 9 18 9h113
q22 0 9 -18l-249 -299l274 -380q11 -18 -10 -18z" />
    <glyph glyph-name="uni0417" unicode="&#x417;" horiz-adv-x="603" 
d="M534 525q-1 -48 -24.5 -87.5t-65.5 -57.5q52 -21 81 -66t29 -102q0 -107 -74.5 -165.5t-191.5 -58.5q-160 0 -259 87q-9 9 -2 21l47 68q8 13 20 3q76 -66 193 -66q64 0 103 30.5t39 82.5q0 47 -38 74.5t-117 27.5h-86q-14 0 -14 15v76q0 15 14 15h85q67 0 102.5 28
t35.5 71q0 41 -32.5 67.5t-94.5 26.5q-104 0 -175 -57q-12 -10 -21 2l-46 66q-8 11 3 20q89 81 239 81q115 0 183 -59t67 -143z" />
    <glyph glyph-name="uni0418" unicode="&#x418;" horiz-adv-x="706" 
d="M610 0h-91q-14 0 -14 15v229q0 120 9 275l-3 1q-48 -102 -107 -197l-189 -313q-6 -10 -17 -10h-101q-15 0 -15 15v685q0 15 15 15h90q15 0 15 -15v-244q0 -144 -9 -271l3 -1l100 181l195 340q7 10 18 10h101q14 0 14 -15v-685q0 -15 -14 -15z" />
    <glyph glyph-name="uni0419" unicode="&#x419;" horiz-adv-x="706" 
d="M532 906q-8 -62 -52 -99t-119 -37t-119 36t-52 98q-3 12 12 16l63 15q13 3 17 -11q14 -61 79 -61q67 0 79 61q4 14 17 11l63 -15q14 -3 12 -14zM519 0h91q14 0 14 15v685q0 15 -14 15h-101q-11 0 -18 -10l-195 -340l-100 -181l-3 1q9 127 9 271v244q0 15 -15 15h-90
q-15 0 -15 -15v-685q0 -15 15 -15h101q11 0 17 10l189 313q59 95 107 197l3 -1q-9 -155 -9 -275v-229q0 -15 14 -15z" />
    <glyph glyph-name="uni041A" unicode="&#x41a;" horiz-adv-x="623" 
d="M188 0h-92q-14 0 -14 15v685q0 15 14 15h92q14 0 14 -15v-290l250 296q9 9 18 9h117q10 0 12.5 -5.5t-3.5 -12.5l-265 -301l287 -378q6 -8 3 -13t-12 -5h-117q-13 0 -18 9l-222 299l-50 -54v-239q0 -15 -14 -15z" />
    <glyph glyph-name="uni041B" unicode="&#x41b;" horiz-adv-x="686" 
d="M245 224q-24 -122 -74 -173t-142 -54q-15 0 -15 14v83q0 15 14 15q45 3 66.5 33.5t37.5 112.5q22 120 34 445q0 15 15 15h409q14 0 14 -15v-685q0 -15 -14 -15h-92q-14 0 -14 15v588h-202q-10 -244 -37 -379z" />
    <glyph glyph-name="uni041C" unicode="&#x41c;" horiz-adv-x="860" 
d="M187 0h-91q-14 0 -14 15v685q0 15 14 15h109q12 0 16 -11l122 -227q38 -71 85 -176h4q47 105 85 176l121 227q6 11 17 11h108q15 0 15 -15v-685q0 -15 -15 -15h-91q-14 0 -14 15v201q0 118 8 314l-3 1q-30 -65 -90 -185l-88 -171q-5 -11 -17 -11h-76q-12 0 -17 11
l-88 171q-60 120 -90 185l-3 -1q8 -196 8 -314v-201q0 -15 -15 -15z" />
    <glyph glyph-name="uni041D" unicode="&#x41d;" horiz-adv-x="686" 
d="M484 417v283q0 15 14 15h92q14 0 14 -15v-685q0 -15 -14 -15h-92q-14 0 -14 15v291h-282v-291q0 -15 -14 -15h-92q-14 0 -14 15v685q0 15 14 15h92q14 0 14 -15v-283h282z" />
    <glyph glyph-name="uni041E" unicode="&#x41e;" horiz-adv-x="678" 
d="M620 266q0 -131 -74 -204.5t-207 -73.5t-207 73.5t-74 204.5v184q0 131 74 204t207 73t207 -73t74 -204v-184zM181 266q0 -80 40 -122t118 -42t118 42t40 122v183q0 165 -158 165t-158 -165v-183z" />
    <glyph glyph-name="uni041F" unicode="&#x41f;" horiz-adv-x="689" 
d="M189 0h-93q-14 0 -14 15v685q0 15 14 15h496q15 0 15 -15v-685q0 -15 -15 -15h-92q-14 0 -14 15v589h-283v-589q0 -15 -14 -15z" />
    <glyph glyph-name="uni0420" unicode="&#x420;" horiz-adv-x="632" 
d="M96 715h253q118 0 184.5 -65t66.5 -179q0 -116 -66.5 -180.5t-184.5 -64.5h-147v-211q0 -15 -14 -15h-92q-14 0 -14 15v685q0 15 14 15zM202 338h133q73 0 107.5 32.5t34.5 100.5t-34.5 100t-107.5 32h-133v-265z" />
    <glyph glyph-name="uni0421" unicode="&#x421;" horiz-adv-x="593" 
d="M566 61q-94 -73 -230 -73q-120 0 -198 65t-78 190v228q0 125 78 190.5t196 65.5t214 -67q11 -8 3 -20l-47 -68q-7 -12 -21 -4q-65 45 -149 45q-72 0 -112.5 -38t-40.5 -105v-224q0 -68 40.5 -106t113.5 -38q94 0 166 52q13 9 20 -4l47 -68q8 -13 -2 -21z" />
    <glyph glyph-name="uni0422" unicode="&#x422;" horiz-adv-x="577" 
d="M27 715h523q15 0 15 -15v-82q0 -14 -15 -14h-201v-589q0 -15 -14 -15h-92q-14 0 -14 15v589h-202q-15 0 -15 14v82q0 15 15 15z" />
    <glyph glyph-name="uni0423" unicode="&#x423;" horiz-adv-x="569" 
d="M246 0h-101q-8 0 -11 5t1 12l95 209l-223 472q-4 8 -1 12.5t11 4.5h102q14 0 18 -12l154 -350l142 350q4 12 17 12h101q8 0 11 -4.5t0 -12.5l-298 -686q-4 -12 -18 -12z" />
    <glyph glyph-name="uni0424" unicode="&#x424;" horiz-adv-x="866" 
d="M478 -68h-91q-14 0 -14 15v70h-47q-115 0 -192 69t-77 205v130q0 135 76.5 203.5t192.5 68.5h47v66q0 14 14 14h91q15 0 15 -14v-66h47q116 0 192.5 -68.5t76.5 -203.5v-130q0 -136 -77 -205t-192 -69h-47v-70q0 -15 -15 -15zM181 289q0 -82 42 -120t109 -38h41v449h-41
q-151 0 -151 -158v-133zM493 580v-449h41q67 0 109 38t42 120v133q0 158 -151 158h-41z" />
    <glyph glyph-name="uni0425" unicode="&#x425;" horiz-adv-x="604" 
d="M373 358l213 -340q4 -8 1.5 -13t-10.5 -5h-112q-12 0 -18 11l-145 254l-145 -254q-6 -11 -18 -11h-111q-9 0 -12 5t2 13l213 340l-201 339q-4 7 -1 12.5t12 5.5h108q11 0 17 -11l136 -251l137 251q6 11 17 11h108q8 0 11 -5.5t-1 -12.5z" />
    <glyph glyph-name="uni0426" unicode="&#x426;" horiz-adv-x="707" 
d="M654 -131h-86q-15 0 -15 15v116h-457q-14 0 -14 15v685q0 15 14 15h92q14 0 14 -15v-588h276v588q0 15 15 15h91q15 0 15 -15v-588h55q14 0 14 -14v-214q0 -15 -14 -15z" />
    <glyph glyph-name="uni0427" unicode="&#x427;" horiz-adv-x="641" 
d="M544 0h-92q-14 0 -14 15v255q-70 -31 -143 -31q-110 0 -178.5 61t-68.5 182v218q0 15 14 15h93q15 0 15 -15v-213q0 -70 38.5 -103t98.5 -33q71 0 131 35v314q0 15 14 15h92q15 0 15 -15v-685q0 -15 -15 -15z" />
    <glyph glyph-name="uni0428" unicode="&#x428;" horiz-adv-x="957" 
d="M860 0h-764q-14 0 -14 15v685q0 15 14 15h92q15 0 15 -15v-588h215v588q0 15 15 15h91q15 0 15 -15v-588h215v588q0 15 15 15h91q15 0 15 -15v-685q0 -15 -15 -15z" />
    <glyph glyph-name="uni0429" unicode="&#x429;" horiz-adv-x="982" 
d="M928 -131h-85q-15 0 -15 15v116h-732q-14 0 -14 15v685q0 15 14 15h92q15 0 15 -15v-588h214v588q0 15 15 15h92q14 0 14 -15v-588h214v588q0 15 15 15h92q15 0 15 -15v-588h54q15 0 15 -14v-214q0 -15 -15 -15z" />
    <glyph glyph-name="uni042A" unicode="&#x42a;" horiz-adv-x="706" 
d="M429 0h-252q-14 0 -14 15v587h-132q-14 0 -14 15v83q0 15 14 15h239q14 0 14 -15v-232h139q120 0 186.5 -58.5t66.5 -173.5q0 -113 -67.5 -174.5t-179.5 -61.5zM284 355v-242h144q123 0 123 123q0 119 -128 119h-139z" />
    <glyph glyph-name="uni042B" unicode="&#x42b;" horiz-adv-x="893" 
d="M348 0h-252q-14 0 -14 15v685q0 15 14 15h93q14 0 14 -15v-232h139q119 0 186 -61.5t67 -171.5t-65.5 -172.5t-181.5 -62.5zM796 0h-92q-14 0 -14 15v685q0 15 14 15h92q15 0 15 -15v-685q0 -15 -15 -15zM203 355v-242h144q123 0 123 122q0 120 -123 120h-144z" />
    <glyph glyph-name="uni042C" unicode="&#x42c;" horiz-adv-x="625" 
d="M348 0h-252q-14 0 -14 15v685q0 15 14 15h93q14 0 14 -15v-232h139q119 0 186 -61t67 -170q0 -111 -65.5 -174t-181.5 -63zM203 355v-242h144q123 0 123 124q0 118 -123 118h-144z" />
    <glyph glyph-name="uni042D" unicode="&#x42d;" horiz-adv-x="596" 
d="M30 61q-10 8 -2 21l47 68q7 13 20 4q73 -53 166 -53q73 0 113.5 38.5t40.5 106.5v54h-231q-15 0 -15 14v82q0 14 15 14h231v60q0 67 -40.5 105t-112.5 38q-84 0 -149 -45q-14 -8 -21 4l-47 68q-8 12 3 20q96 67 214 67t196 -65.5t78 -190.5v-228q0 -126 -78 -191
t-198 -65q-135 0 -230 74z" />
    <glyph glyph-name="uni042E" unicode="&#x42e;" horiz-adv-x="915" 
d="M856 246q0 -126 -77.5 -192t-191.5 -66t-191.5 66.5t-77.5 192.5l-1 64h-115v-296q0 -15 -15 -15h-91q-14 0 -14 15v685q0 15 14 15h91q15 0 15 -15v-277h115l1 47q0 126 77.5 191.5t191.5 65.5t191.5 -65.5t77.5 -191.5v-224zM441 247q0 -72 41.5 -108.5t104.5 -36.5
t104 36.5t41 108.5v222q0 75 -40.5 109.5t-104.5 34.5q-65 0 -105.5 -34.5t-40.5 -109.5v-222z" />
    <glyph glyph-name="uni042F" unicode="&#x42f;" horiz-adv-x="654" 
d="M54 484q0 109 66.5 170t184.5 61h252q15 0 15 -15v-685q0 -15 -15 -15h-91q-15 0 -15 15v243h-110l-168 -248q-6 -10 -18 -10h-116q-9 0 -12 5t3 13l182 253q-74 20 -116 75.5t-42 137.5zM307 367h144v235h-144q-130 0 -130 -120q0 -115 130 -115z" />
    <glyph glyph-name="uni0430" unicode="&#x430;" horiz-adv-x="520" 
d="M59 477q77 53 196 53q97 0 152.5 -50.5t55.5 -152.5v-292q0 -12 -11 -17q-97 -30 -201 -30q-97 0 -160 40t-63 127q0 79 59.5 119.5t159.5 40.5q40 0 100 -8v19q0 54 -22.5 77.5t-77.5 23.5q-74 0 -128 -32q-12 -9 -20 4l-40 61q-7 11 0 17zM145 156q0 -34 29 -50.5
t77 -16.5q46 0 96 12v113q-54 8 -97 8q-105 0 -105 -66z" />
    <glyph glyph-name="uni0431" unicode="&#x431;" horiz-adv-x="549" 
d="M175 468q52 25 116 25q95 0 154 -53.5t59 -151.5v-89q0 -105 -64.5 -158t-160.5 -53q-93 0 -156.5 53.5t-63.5 158.5v302q0 92 60.5 145t143.5 69q119 21 151 37q14 6 20 -5l37 -63q6 -14 -5 -20q-35 -20 -162 -49q-28 -7 -47 -14t-40 -20t-31.5 -34t-10.5 -50v-30z
M278 92q47 0 77.5 26t30.5 80v88q0 108 -106 108q-59 0 -105 -24v-171q0 -55 29 -81t74 -26z" />
    <glyph glyph-name="uni0432" unicode="&#x432;" horiz-adv-x="531" 
d="M287 0h-209q-15 0 -15 15v489q0 14 15 14h209q86 0 136.5 -38.5t50.5 -100.5q0 -69 -61 -105q79 -34 79 -127q0 -66 -56 -106.5t-149 -40.5zM179 426v-118h103q35 0 55.5 15.5t20.5 44.5q0 58 -77 58h-102zM179 223v-131h103q93 0 93 67q0 64 -93 64h-103z" />
    <glyph glyph-name="uni0433" unicode="&#x433;" horiz-adv-x="415" 
d="M164 -1h-86q-15 0 -15 15v490q0 14 15 14h307q14 0 14 -14v-74q0 -14 -14 -14h-206v-402q0 -15 -15 -15z" />
    <glyph glyph-name="uni0434" unicode="&#x434;" horiz-adv-x="595" 
d="M113 -135h-81q-14 0 -14 14v209q0 14 14 14h22q33 23 51 104.5t35 297.5q2 14 15 14h332q15 0 15 -14v-402h51q15 0 15 -15v-208q0 -14 -15 -14h-81q-15 0 -15 14v121h-329v-121q0 -14 -15 -14zM248 416q-20 -248 -69 -314h208v314h-139z" />
    <glyph glyph-name="uni0435" unicode="&#x435;" horiz-adv-x="524" 
d="M483 325v-101q0 -14 -15 -14h-304v-28q0 -45 28.5 -68.5t77.5 -23.5q73 0 141 46q12 8 20 -3l41 -55q10 -11 -3 -21q-87 -69 -203 -69q-92 0 -155.5 50.5t-63.5 144.5v142q0 103 64 154t156 51q91 0 153.5 -51t62.5 -154zM370 326q0 52 -29 77t-74 25q-103 0 -103 -102
v-26h206v26z" />
    <glyph glyph-name="uni0436" unicode="&#x436;" horiz-adv-x="741" 
d="M718 0h-102q-13 0 -18 10l-126 207l-45 -53v-149q0 -15 -15 -15h-83q-15 0 -15 15v149l-45 53l-126 -207q-5 -10 -18 -10h-102q-20 0 -10 18l181 278l-162 205q-5 7 -3 12t11 5h103q12 0 18 -9l79 -107l74 -104v206q0 14 15 14h83q15 0 15 -14v-206l74 104l79 107
q6 9 18 9h103q9 0 11 -5t-3 -12l-162 -205l181 -278q10 -18 -10 -18z" />
    <glyph glyph-name="uni0437" unicode="&#x437;" horiz-adv-x="491" 
d="M435 374q0 -67 -59 -101q76 -32 76 -118q0 -73 -59 -120t-154 -47q-64 0 -114 16t-100 61q-9 9 -1 20l45 55q9 11 21 2q65 -53 144 -53q101 0 101 70q0 64 -96 64h-85q-14 0 -14 15v55q0 15 14 15h85q38 0 59.5 16t21.5 45q0 63 -89 63q-70 0 -129 -46q-13 -10 -21 3
l-42 54q-9 11 1 21q85 67 194 67q90 0 145.5 -44.5t55.5 -112.5z" />
    <glyph glyph-name="uni0438" unicode="&#x438;" horiz-adv-x="568" 
d="M177 0h-99q-15 0 -15 15v489q0 14 15 14h85q15 0 15 -14v-204q0 -59 -2 -135h1q29 64 95 173l100 171q8 9 18 9h100q15 0 15 -14v-489q0 -15 -15 -15h-85q-15 0 -15 15v201q0 59 2 131h-1q-20 -46 -94 -169l-102 -168q-6 -10 -18 -10z" />
    <glyph glyph-name="uni0439" unicode="&#x439;" horiz-adv-x="568" 
d="M177 0h-99q-15 0 -15 15v489q0 14 15 14h85q15 0 15 -14v-204q0 -59 -2 -135h1q29 64 95 173l100 171q8 9 18 9h100q15 0 15 -14v-489q0 -15 -15 -15h-85q-15 0 -15 15v201q0 59 2 131h-1q-20 -46 -94 -169l-102 -168q-6 -10 -18 -10zM440 720q-8 -62 -49.5 -98.5
t-111.5 -36.5t-111 36t-49 97q-2 15 13 17l56 8q13 1 16 -12q14 -60 75 -60t75 60q3 13 17 12l55 -8q15 -2 14 -15z" />
    <glyph glyph-name="uni043A" unicode="&#x43a;" horiz-adv-x="506" 
d="M492 0h-101q-13 0 -18 9l-156 205l-41 -44v-155q0 -15 -15 -15h-83q-15 0 -15 15v488q0 15 15 15h83q15 0 15 -15v-193l179 200q6 8 18 8h101q10 0 12.5 -5t-3.5 -13l-189 -205l208 -277q11 -18 -10 -18z" />
    <glyph glyph-name="uni043B" unicode="&#x43b;" horiz-adv-x="559" 
d="M210 170q-19 -95 -58 -133.5t-124 -41.5q-14 0 -14 15v73q0 13 14 16q29 2 45.5 24t27.5 79q17 99 25 302q2 14 15 14h340q15 0 15 -14v-489q0 -15 -15 -15h-86q-15 0 -15 15v401h-146q-5 -143 -24 -246z" />
    <glyph glyph-name="uni043C" unicode="&#x43c;" horiz-adv-x="674" 
d="M163 0h-85q-15 0 -15 15v489q0 14 15 14h97q13 0 17 -10l144 -285h2l144 285q4 10 17 10h97q15 0 15 -14v-489q0 -15 -15 -15h-85q-14 0 -14 15v177q0 54 2 150h-1q-37 -84 -53 -116l-65 -129q-4 -10 -17 -10h-52q-13 0 -17 10l-65 129l-53 116h-1q3 -144 3 -150v-177
q0 -15 -15 -15z" />
    <glyph glyph-name="uni043D" unicode="&#x43d;" horiz-adv-x="552" 
d="M164 0h-86q-15 0 -15 15v489q0 14 15 14h86q15 0 15 -14v-184h194v184q0 14 15 14h86q15 0 15 -14v-489q0 -15 -15 -15h-86q-15 0 -15 15v202h-194v-202q0 -15 -15 -15z" />
    <glyph glyph-name="uni043E" unicode="&#x43e;" horiz-adv-x="548" 
d="M502 190q0 -93 -62 -147.5t-166 -54.5t-166 54.5t-62 147.5v134q0 94 62 150t166 56t166 -56t62 -150v-134zM163 190q0 -98 111 -98q54 0 82.5 25t28.5 73v134q0 49 -29 75.5t-82 26.5q-54 0 -82.5 -26t-28.5 -76v-134z" />
    <glyph glyph-name="uni043F" unicode="&#x43f;" horiz-adv-x="552" 
d="M78 518h396q15 0 15 -14v-489q0 -15 -15 -15h-86q-15 0 -15 15v401h-194v-401q0 -15 -14 -15h-87q-15 0 -15 15v489q0 14 15 14z" />
    <glyph glyph-name="uni0440" unicode="&#x440;" horiz-adv-x="550" 
d="M73 494q92 36 202 36q104 0 167 -55t63 -164v-110q0 -97 -62 -155t-159 -58q-55 0 -106 22v-185q0 -15 -15 -15h-86q-15 0 -15 15v653q0 12 11 16zM274 90q113 0 113 110v112q0 62 -29 89t-86 27q-60 0 -94 -14v-296q41 -28 96 -28z" />
    <glyph glyph-name="uni0441" unicode="&#x441;" horiz-adv-x="472" 
d="M447 44q-79 -56 -177 -56q-104 0 -164 55t-60 147v139q0 92 60 146.5t163 54.5q87 0 164 -48q12 -8 4 -21l-39 -60q-8 -11 -21 -4q-50 29 -105 29q-53 0 -81.5 -25t-28.5 -72v-140q0 -46 28.5 -71.5t80.5 -25.5q61 0 116 36q14 8 21 -4l42 -60q8 -12 -3 -20z" />
    <glyph glyph-name="uni0442" unicode="&#x442;" horiz-adv-x="457" 
d="M272 0h-86q-15 0 -15 15v401h-140q-15 0 -15 15v73q0 14 15 14h395q15 0 15 -14v-73q0 -15 -15 -15h-139v-401q0 -15 -15 -15z" />
    <glyph glyph-name="uni0443" unicode="&#x443;" horiz-adv-x="557" 
d="M378 140v364q0 14 15 14h86q15 0 15 -14v-471q0 -233 -223 -233q-120 0 -196 63q-11 8 -3 20l43 61q8 13 19 5q67 -46 136 -46q56 0 84 29.5t25 100.5q-58 -18 -107 -18q-86 0 -150 53.5t-64 150.5v285q0 14 15 14h87q14 0 14 -14v-280q0 -54 32 -79t82 -25q51 -1 90 20z
" />
    <glyph glyph-name="uni0444" unicode="&#x444;" horiz-adv-x="755" 
d="M420 -190h-86q-14 0 -14 15v175h-72q-86 0 -144 52t-58 153v109q0 97 60 150.5t152 53.5h62v182q0 15 14 15h86q14 0 14 -15v-182h71q92 0 148 -53.5t56 -150.5v-109q0 -100 -57 -152.5t-137 -52.5h-81v-175q0 -15 -14 -15zM160 207q0 -55 26 -79.5t82 -24.5h52v313h-57
q-103 0 -103 -105v-104zM434 103h52q56 0 82 24.5t26 79.5v104q0 105 -103 105h-57v-313z" />
    <glyph glyph-name="uni0445" unicode="&#x445;" horiz-adv-x="502" 
d="M323 260l161 -242q10 -18 -9 -18h-106q-12 0 -18 10l-100 170l-100 -170q-6 -10 -18 -10h-105q-20 0 -10 18l161 242l-152 241q-4 7 -1 12t11 5h101q11 0 18 -10l95 -167l95 167q7 10 18 10h101q8 0 11 -5t-1 -12z" />
    <glyph glyph-name="uni0446" unicode="&#x446;" horiz-adv-x="581" 
d="M537 -131h-78q-14 0 -14 15v116h-367q-15 0 -15 15v489q0 14 15 14h86q15 0 15 -14v-400h194v400q0 14 15 14h86q15 0 15 -14v-401h48q15 0 15 -15v-204q0 -15 -15 -15z" />
    <glyph glyph-name="uni0447" unicode="&#x447;" horiz-adv-x="527" 
d="M449 0h-87q-14 0 -14 15v153q-53 -17 -104 -17q-93 0 -148.5 53t-55.5 164v136q0 14 14 14h87q15 0 15 -14v-132q0 -62 23.5 -89t69.5 -27q57 0 99 17v231q0 14 14 14h87q15 0 15 -14v-489q0 -15 -15 -15z" />
    <glyph glyph-name="uni0448" unicode="&#x448;" horiz-adv-x="782" 
d="M704 0h-626q-15 0 -15 15v489q0 14 15 14h85q14 0 14 -14v-400h157v400q0 14 15 14h84q15 0 15 -14v-400h157v400q0 14 14 14h85q15 0 15 -14v-489q0 -15 -15 -15z" />
    <glyph glyph-name="uni0449" unicode="&#x449;" horiz-adv-x="811" 
d="M767 -131h-77q-15 0 -15 15v116h-597q-15 0 -15 15v489q0 14 15 14h85q14 0 14 -14v-400h157v400q0 14 15 14h84q15 0 15 -14v-400h157v400q0 14 14 14h85q15 0 15 -14v-401h48q15 0 15 -15v-204q0 -15 -15 -15z" />
    <glyph glyph-name="uni044A" unicode="&#x44a;" horiz-adv-x="587" 
d="M356 0h-207q-15 0 -15 15v403h-101q-15 0 -15 14v72q0 14 15 14h203q14 0 14 -14v-154h106q93 0 149 -47t56 -130q0 -89 -54.5 -131t-150.5 -42zM250 255v-159h87q107 0 107 79q1 40 -25.5 60t-81.5 20h-87z" />
    <glyph glyph-name="uni044B" unicode="&#x44b;" horiz-adv-x="724" 
d="M285 0h-207q-15 0 -15 15v489q0 14 15 14h86q15 0 15 -14v-154h106q92 0 148.5 -47t56.5 -130q0 -89 -54.5 -131t-150.5 -42zM179 255v-159h86q108 0 108 79q1 41 -26 60.5t-82 19.5h-86zM646 0h-86q-15 0 -15 15v489q0 14 15 14h86q15 0 15 -14v-489q0 -15 -15 -15z" />
    <glyph glyph-name="uni044C" unicode="&#x44c;" horiz-adv-x="516" 
d="M285 0h-207q-15 0 -15 15v489q0 14 15 14h86q15 0 15 -14v-154h106q92 0 148.5 -47t56.5 -130q0 -89 -54.5 -131t-150.5 -42zM179 255v-159h86q108 0 108 79q1 41 -26 60.5t-82 19.5h-86z" />
    <glyph glyph-name="uni044D" unicode="&#x44d;" horiz-adv-x="481" 
d="M208 91q53 0 81.5 25.5t28.5 71.5v33h-175q-14 0 -14 14v58q0 15 14 15h175v22q0 46 -29 71t-82 25q-60 0 -115 -29q-12 -6 -20 5l-39 60q-10 12 4 20q81 48 175 48q100 0 161 -54t61 -146v-141q0 -93 -60.5 -147t-162.5 -54q-103 0 -183 56q-10 7 -3 20l41 59q7 12 21 4
q57 -36 121 -36z" />
    <glyph glyph-name="uni044E" unicode="&#x44e;" horiz-adv-x="744" 
d="M261 328q1 91 60.5 146.5t156.5 55.5q100 0 160 -56.5t60 -148.5v-136q0 -91 -60 -146t-160 -55q-97 0 -156.5 54.5t-60.5 143.5l-1 31h-84v-202q0 -15 -15 -15h-83q-15 0 -15 15v489q0 14 15 14h83q15 0 15 -14v-183h84zM479 92q50 0 76.5 25.5t26.5 72.5v134
q0 48 -26.5 75t-76.5 27t-76.5 -27t-26.5 -75v-134q0 -47 26.5 -72.5t76.5 -25.5z" />
    <glyph glyph-name="uni044F" unicode="&#x44f;" horiz-adv-x="526" 
d="M146 0h-103q-19 0 -8 18l128 178q-60 15 -92 56.5t-32 99.5q0 81 55 123.5t146 42.5h208q15 0 15 -14v-489q0 -15 -15 -15h-86q-15 0 -15 15v171h-61l-122 -176q-6 -10 -18 -10zM156 352q0 -72 87 -72h104v143h-104q-87 0 -87 -71z" />
    <glyph glyph-name="uni0451" unicode="&#x451;" horiz-adv-x="524" 
d="M223 653q0 -28 -17 -44.5t-44 -16.5t-44.5 16.5t-17.5 44.5q0 29 17.5 45.5t44.5 16.5t44 -16.5t17 -45.5zM428 653q0 -28 -17 -44.5t-44 -16.5t-44.5 16.5t-17.5 44.5q0 29 17 45.5t45 16.5q27 0 44 -16.5t17 -45.5zM483 325v-101q0 -14 -15 -14h-304v-28
q0 -45 28.5 -68.5t77.5 -23.5q73 0 141 46q12 8 20 -3l41 -55q10 -11 -3 -21q-87 -69 -203 -69q-92 0 -155.5 50.5t-63.5 144.5v142q0 103 64 154t156 51q91 0 153.5 -51t62.5 -154zM370 326q0 52 -29 77t-74 25q-103 0 -103 -102v-26h206v26z" />
    <glyph glyph-name="uni0452" unicode="&#x452;" horiz-adv-x="565" 
d="M180 495q51 17 109 17q97 0 157.5 -56t60.5 -171v-286q0 -103 -40.5 -151t-121.5 -48q-23 0 -45 3q-14 1 -14 16v73q0 14 16 14q24 -2 31 -2q58 0 58 98v280q0 69 -28.5 98t-85.5 29q-54 0 -97 -19v-375q0 -15 -14 -15h-87q-15 0 -15 15v561h-62q-14 0 -14 14v45
q0 15 14 15h62v50q0 15 15 15h87q14 0 14 -15v-50h117q15 0 15 -15v-45q0 -14 -15 -14h-117v-81z" />
    <glyph glyph-name="uni0453" unicode="&#x453;" horiz-adv-x="415" 
d="M164 -1h-86q-15 0 -15 15v490q0 14 15 14h307q14 0 14 -14v-74q0 -14 -14 -14h-206v-402q0 -15 -15 -15zM229 591h-66q-9 0 -12 5.5t2 12.5l80 131q6 10 18 10h88q9 0 11.5 -5t-3.5 -13l-100 -132q-6 -9 -18 -9z" />
    <glyph glyph-name="uni0454" unicode="&#x454;" horiz-adv-x="480" 
d="M272 91q64 0 121 36q14 8 21 -4l41 -59q7 -13 -3 -20q-80 -56 -183 -56q-102 0 -162.5 54t-60.5 147v141q0 92 61 146t161 54q94 0 175 -48q14 -8 4 -20l-39 -60q-8 -11 -20 -5q-55 29 -115 29q-53 0 -82 -25t-29 -71v-22h175q14 0 14 -15v-58q0 -14 -14 -14h-175v-33
q0 -46 28.5 -71.5t81.5 -25.5z" />
    <glyph glyph-name="uni0455" unicode="&#x455;" horiz-adv-x="484" 
d="M453 154q0 -81 -59 -123.5t-153 -42.5q-114 0 -203 65q-12 7 -4 20l38 65q7 13 20 4q70 -51 151 -51q41 0 67 15t26 43q0 27 -24.5 39t-68.5 20q-28 5 -50 11t-52.5 19t-50.5 29.5t-34.5 44t-14.5 62.5q0 78 61.5 117.5t150.5 39.5t174 -46q13 -7 5 -20l-38 -64
q-8 -11 -20 -5q-61 33 -127 33q-43 0 -67 -15t-24 -40q0 -28 25.5 -40t85.5 -24q39 -7 65 -15t57.5 -25t47.5 -46t16 -70z" />
    <glyph glyph-name="uni0456" unicode="&#x456;" horiz-adv-x="242" 
d="M165 0h-87q-15 0 -15 15v489q0 14 15 14h87q14 0 14 -14v-489q0 -15 -14 -15zM187 654q0 -28 -18.5 -47t-46.5 -19t-47 19t-19 47t19 46.5t47 18.5t46.5 -18.5t18.5 -46.5z" />
    <glyph glyph-name="uni0457" unicode="&#x457;" horiz-adv-x="242" 
d="M164 0h-87q-14 0 -14 15v489q0 14 14 14h87q15 0 15 -14v-489q0 -15 -15 -15zM102 654q0 -26 -17 -43t-42 -17t-42.5 17t-17.5 43t17 43.5t43 17.5q25 0 42 -17.5t17 -43.5zM258 654q0 -26 -17.5 -43t-43.5 -17q-25 0 -42 17t-17 43t17 43.5t42 17.5q26 0 43.5 -17.5
t17.5 -43.5z" />
    <glyph glyph-name="uni0458" unicode="&#x458;" horiz-adv-x="250" 
d="M187 -8q0 -92 -43.5 -143t-123.5 -51q-27 0 -50 3q-14 2 -14 16v74q0 15 16 15q24 -2 33 -2q34 0 50 21.5t16 69.5v509q0 14 14 14h87q15 0 15 -14v-512zM195 653q0 -28 -19 -47t-47 -19t-46.5 19t-18.5 47t18.5 46.5t46.5 18.5q29 0 47.5 -18.5t18.5 -46.5z" />
    <glyph glyph-name="uni0459" unicode="&#x459;" horiz-adv-x="834" 
d="M209 172q-20 -97 -58.5 -135t-122.5 -41q-14 0 -14 14v74q0 13 14 15q28 2 44.5 24t27.5 79q18 97 26 302q2 14 16 14h340q15 0 15 -14v-154h105q93 0 149.5 -47.5t56.5 -129.5q0 -89 -54.5 -131t-151.5 -42h-206q-15 0 -15 15v401h-146q-7 -140 -26 -244zM497 255v-159
h86q106 0 107 79q1 40 -25.5 60t-81.5 20h-86z" />
    <glyph glyph-name="uni045A" unicode="&#x45a;" horiz-adv-x="819" 
d="M164 0h-86q-15 0 -15 15v489q0 14 15 14h86q15 0 15 -14v-169h191v169q0 14 15 14h86q15 0 15 -14v-168h103q94 0 149.5 -44.5t55.5 -126.5t-54.5 -123.5t-150.5 -41.5h-204q-15 0 -15 15v217h-191v-217q0 -15 -15 -15zM486 240v-144h84q107 0 107 75q0 36 -25.5 52.5
t-81.5 16.5h-84z" />
    <glyph glyph-name="uni045B" unicode="&#x45b;" horiz-adv-x="565" 
d="M180 495q51 17 109 17q97 0 157.5 -56t60.5 -171v-270q0 -15 -15 -15h-87q-14 0 -14 15v267q0 69 -28.5 98t-85.5 29q-54 0 -97 -19v-375q0 -15 -14 -15h-87q-15 0 -15 15v561h-62q-14 0 -14 14v45q0 15 14 15h62v50q0 15 15 15h87q14 0 14 -15v-50h117q15 0 15 -15v-45
q0 -14 -15 -14h-117v-81z" />
    <glyph glyph-name="uni045C" unicode="&#x45c;" horiz-adv-x="506" 
d="M492 0h-101q-13 0 -18 9l-156 205l-41 -44v-155q0 -15 -15 -15h-83q-15 0 -15 15v488q0 15 15 15h83q15 0 15 -15v-193l179 200q6 8 18 8h101q10 0 12.5 -5t-3.5 -13l-189 -205l208 -277q11 -18 -10 -18zM273 591h-66q-9 0 -12 5.5t2 12.5l80 131q6 10 18 10h88
q9 0 11.5 -5t-3.5 -13l-100 -132q-6 -9 -18 -9z" />
    <glyph glyph-name="uni045D" unicode="&#x45d;" horiz-adv-x="568" 
d="M177 0h-99q-15 0 -15 15v489q0 14 15 14h85q15 0 15 -14v-204q0 -59 -2 -135h1q29 64 95 173l100 171q8 9 18 9h100q15 0 15 -14v-489q0 -15 -15 -15h-85q-15 0 -15 15v201q0 59 2 131h-1q-20 -46 -94 -169l-102 -168q-6 -10 -18 -10zM332 591h-66q-12 0 -18 9l-100 132
q-6 8 -3.5 13t11.5 5h88q12 0 18 -10l80 -131q5 -7 2 -12.5t-12 -5.5z" />
    <glyph glyph-name="uni045E" unicode="&#x45e;" horiz-adv-x="557" 
d="M436 720q-8 -62 -49.5 -98.5t-111.5 -36.5t-111 36t-49 97q-2 15 13 17l56 8q13 1 16 -12q14 -60 75 -60t75 60q3 13 17 12l55 -8q15 -2 14 -15zM378 140v364q0 14 15 14h86q15 0 15 -14v-471q0 -233 -223 -233q-120 0 -196 63q-11 8 -3 20l43 61q8 13 19 5
q67 -46 136 -46q56 0 84 29.5t25 100.5q-58 -18 -107 -18q-86 0 -150 53.5t-64 150.5v285q0 14 15 14h87q14 0 14 -14v-280q0 -54 32 -79t82 -25q51 -1 90 20z" />
    <glyph glyph-name="uni045F" unicode="&#x45f;" horiz-adv-x="552" 
d="M388 518h86q15 0 15 -14v-489q0 -15 -15 -15h-145v-116q0 -15 -15 -15h-77q-15 0 -15 15v116h-144q-15 0 -15 15v489q0 14 15 14h86q15 0 15 -14v-400h194v400q0 14 15 14z" />
    <glyph glyph-name="uni0490" unicode="&#x490;" horiz-adv-x="503" 
d="M188 0h-92q-14 0 -14 15v685q0 15 14 15h280v147q0 14 15 14h85q15 0 15 -14v-244q0 -14 -15 -14h-274v-589q0 -15 -14 -15z" />
    <glyph glyph-name="uni0491" unicode="&#x491;" horiz-adv-x="415" 
d="M294 518v107q0 15 15 15h76q14 0 14 -15v-195q0 -14 -14 -14h-206v-402q0 -15 -15 -15h-86q-15 0 -15 15v490q0 14 15 14h216z" />
    <glyph glyph-name="Wgrave" unicode="&#x1e80;" horiz-adv-x="968" 
d="M321 0h-105q-13 0 -16 13l-189 685q-5 17 13 17h98q13 0 16 -13l83 -332q22 -86 48 -226h3q24 113 61 243l86 305q3 13 16 13h98q13 0 16 -13l87 -305q33 -116 60 -243h3q20 114 48 226l83 332q3 13 15 13h99q18 0 13 -17l-189 -685q-3 -13 -16 -13h-105q-13 0 -16 13
l-93 315q-32 107 -52 224h-4q-20 -113 -51 -224l-94 -315q-3 -13 -16 -13zM433 786l-125 133q-6 7 -3.5 12.5t12.5 5.5h96q12 0 18 -9l103 -132q11 -18 -10 -18h-73q-11 0 -18 8z" />
    <glyph glyph-name="wgrave" unicode="&#x1e81;" horiz-adv-x="766" 
d="M271 0h-100q-13 0 -16 13l-141 489q-5 16 11 16h90q13 0 16 -12l38 -164q6 -29 27.5 -117.5t23.5 -97.5h2q10 46 49 198l48 174q3 12 16 12h93q13 0 16 -12l49 -174q30 -119 48 -198h3l51 215l37 164q3 12 17 12h89q17 0 12 -16l-141 -489q-3 -13 -16 -13h-100
q-13 0 -16 13l-56 203q-26 98 -37 155h-4q-14 -66 -38 -155l-55 -203q-3 -13 -16 -13zM434 591h-66q-12 0 -18 9l-100 132q-6 8 -3.5 13t11.5 5h88q12 0 18 -10l80 -131q5 -7 2 -12.5t-12 -5.5z" />
    <glyph glyph-name="Wacute" unicode="&#x1e82;" horiz-adv-x="968" 
d="M321 0h-105q-13 0 -16 13l-189 685q-5 17 13 17h98q13 0 16 -13l83 -332q22 -86 48 -226h3q24 113 61 243l86 305q3 13 16 13h98q13 0 16 -13l87 -305q33 -116 60 -243h3q20 114 48 226l83 332q3 13 15 13h99q18 0 13 -17l-189 -685q-3 -13 -16 -13h-105q-13 0 -16 13
l-93 315q-32 107 -52 224h-4q-20 -113 -51 -224l-94 -315q-3 -13 -16 -13zM644 919l-125 -133q-7 -8 -18 -8h-73q-21 0 -10 18l103 132q6 9 18 9h96q10 0 12.5 -5.5t-3.5 -12.5z" />
    <glyph glyph-name="wacute" unicode="&#x1e83;" horiz-adv-x="766" 
d="M271 0h-100q-13 0 -16 13l-141 489q-5 16 11 16h90q13 0 16 -12l38 -164q6 -29 27.5 -117.5t23.5 -97.5h2q10 46 49 198l48 174q3 12 16 12h93q13 0 16 -12l49 -174q30 -119 48 -198h3l51 215l37 164q3 12 17 12h89q17 0 12 -16l-141 -489q-3 -13 -16 -13h-100
q-13 0 -16 13l-56 203q-26 98 -37 155h-4q-14 -66 -38 -155l-55 -203q-3 -13 -16 -13zM388 591h-66q-9 0 -12 5.5t2 12.5l80 131q6 10 18 10h88q9 0 11.5 -5t-3.5 -13l-100 -132q-6 -9 -18 -9z" />
    <glyph glyph-name="Wdieresis" unicode="&#x1e84;" horiz-adv-x="968" 
d="M428 870q0 -28 -18 -46t-46 -18t-46 18t-18 46t18 46t46 18t46 -18t18 -46zM668 870q0 -28 -18.5 -46t-46.5 -18t-46 18t-18 46t18 46t46 18t46.5 -18t18.5 -46zM321 0h-105q-13 0 -16 13l-189 685q-5 17 13 17h98q13 0 16 -13l83 -332q22 -86 48 -226h3q24 113 61 243
l86 305q3 13 16 13h98q13 0 16 -13l87 -305q33 -116 60 -243h3q20 114 48 226l83 332q3 13 15 13h99q18 0 13 -17l-189 -685q-3 -13 -16 -13h-105q-13 0 -16 13l-93 315q-32 107 -52 224h-4q-20 -113 -51 -224l-94 -315q-3 -13 -16 -13z" />
    <glyph glyph-name="wdieresis" unicode="&#x1e85;" horiz-adv-x="766" 
d="M331 668q0 -28 -17 -44.5t-44 -16.5t-44.5 16.5t-17.5 44.5q0 29 17.5 45.5t44.5 16.5t44 -16.5t17 -45.5zM555 668q0 -28 -17 -44.5t-44 -16.5t-44.5 16.5t-17.5 44.5q0 29 17 45.5t45 16.5q27 0 44 -16.5t17 -45.5zM271 0h-100q-13 0 -16 13l-141 489q-5 16 11 16h90
q13 0 16 -12l38 -164q6 -29 27.5 -117.5t23.5 -97.5h2q10 46 49 198l48 174q3 12 16 12h93q13 0 16 -12l49 -174q30 -119 48 -198h3l51 215l37 164q3 12 17 12h89q17 0 12 -16l-141 -489q-3 -13 -16 -13h-100q-13 0 -16 13l-56 203q-26 98 -37 155h-4q-14 -66 -38 -155
l-55 -203q-3 -13 -16 -13z" />
    <glyph glyph-name="Ygrave" unicode="&#x1ef2;" horiz-adv-x="592" 
d="M342 0h-92q-15 0 -15 15v249l-230 433q-4 7 -1 12.5t12 5.5h105q12 0 16 -11l159 -329l158 329q4 11 17 11h105q8 0 11 -5.5t-1 -12.5l-229 -435v-247q0 -15 -15 -15zM255 786l-125 133q-6 7 -3.5 12.5t12.5 5.5h96q12 0 18 -9l103 -132q11 -18 -10 -18h-73q-11 0 -18 8z
" />
    <glyph glyph-name="ygrave" unicode="&#x1ef3;" horiz-adv-x="558" 
d="M378 140v364q0 14 15 14h86q15 0 15 -14v-471q0 -233 -223 -233q-120 0 -196 63q-11 8 -3 20l43 61q8 13 19 5q67 -46 136 -46q56 0 84 29.5t25 100.5q-58 -18 -107 -18q-86 0 -150 53.5t-64 150.5v285q0 14 15 14h87q14 0 14 -14v-280q0 -54 32 -79t82 -25q51 -1 90 20z
M331 591h-66q-12 0 -18 9l-100 132q-6 8 -3.5 13t11.5 5h88q12 0 18 -10l80 -131q5 -7 2 -12.5t-12 -5.5z" />
    <glyph glyph-name="endash" unicode="&#x2013;" horiz-adv-x="599" 
d="M537 337v-78q0 -14 -14 -14h-446q-15 0 -15 14v78q0 15 15 15h446q14 0 14 -15z" />
    <glyph glyph-name="emdash" unicode="&#x2014;" horiz-adv-x="984" 
d="M922 337v-78q0 -14 -15 -14h-830q-15 0 -15 14v78q0 15 15 15h830q15 0 15 -15z" />
    <glyph glyph-name="quoteleft" unicode="&#x2018;" horiz-adv-x="244" 
d="M39 482l74 221q3 12 17 12h69q16 0 13 -17l-57 -220q-3 -13 -15 -13h-88q-18 0 -13 17z" />
    <glyph glyph-name="quoteright" unicode="&#x2019;" horiz-adv-x="243" 
d="M216 698l-74 -221q-3 -12 -17 -12h-70q-17 0 -12 17l56 220q3 13 16 13h88q18 0 13 -17z" />
    <glyph glyph-name="quotesinglbase" unicode="&#x201a;" horiz-adv-x="238" 
d="M187 108l-73 -221q-3 -12 -17 -12h-70q-16 0 -13 17l57 220q3 13 16 13h88q17 0 12 -17z" />
    <glyph glyph-name="quotedblleft" unicode="&#x201c;" horiz-adv-x="427" 
d="M140 465h-88q-18 0 -13 17l74 220q3 13 17 13h70q18 0 13 -17l-57 -220q-3 -13 -16 -13zM322 465h-88q-18 0 -13 17l74 220q3 13 17 13h70q17 0 12 -17l-56 -220q-3 -13 -16 -13z" />
    <glyph glyph-name="quotedblright" unicode="&#x201d;" horiz-adv-x="424" 
d="M125 465h-70q-16 0 -13 17l57 220q3 13 16 13h88q18 0 13 -17l-74 -220q-3 -13 -17 -13zM307 465h-70q-18 0 -13 17l57 220q3 13 16 13h88q8 0 11.5 -5t0.5 -12l-73 -220q-3 -13 -17 -13z" />
    <glyph glyph-name="quotedblbase" unicode="&#x201e;" horiz-adv-x="420" 
d="M97 -125h-70q-16 0 -13 16l57 221q3 13 16 13h88q18 0 13 -17l-74 -221q-3 -12 -17 -12zM279 -125h-70q-18 0 -13 16l57 221q3 13 16 13h88q8 0 11.5 -5t0.5 -12l-73 -221q-3 -12 -17 -12z" />
    <glyph glyph-name="dagger" unicode="&#x2020;" horiz-adv-x="564" 
d="M324 -139h-83q-15 0 -15 15v539h-155q-15 0 -15 15v75q0 15 15 15h155v210q0 15 15 15h83q15 0 15 -15v-210h154q15 0 15 -15v-75q0 -15 -15 -15h-154v-539q0 -15 -15 -15z" />
    <glyph glyph-name="daggerdbl" unicode="&#x2021;" horiz-adv-x="564" 
d="M324 -139h-83q-15 0 -15 15v211h-155q-15 0 -15 15v75q0 15 15 15h155v223h-155q-15 0 -15 15v75q0 15 15 15h155v210q0 15 15 15h83q15 0 15 -15v-210h154q15 0 15 -15v-75q0 -15 -15 -15h-154v-223h154q15 0 15 -15v-75q0 -15 -15 -15h-154v-211q0 -15 -15 -15z" />
    <glyph glyph-name="bullet" unicode="&#x2022;" horiz-adv-x="396" 
d="M198 207q-54 0 -89.5 36t-35.5 91q0 54 35.5 89.5t89.5 35.5t89.5 -35t35.5 -90t-35.5 -91t-89.5 -36z" />
    <glyph glyph-name="ellipsis" unicode="&#x2026;" horiz-adv-x="663" 
d="M193 68q0 -32 -21 -52.5t-53 -20.5q-33 0 -53 20.5t-20 52.5q0 33 20 53.5t53 20.5q32 0 53 -20.5t21 -53.5zM406 68q0 -32 -21 -52.5t-53 -20.5t-52.5 20.5t-20.5 52.5q0 33 20.5 53.5t52.5 20.5t53 -20.5t21 -53.5zM618 68q0 -32 -21 -52.5t-53 -20.5t-52.5 20.5
t-20.5 52.5q0 33 20.5 53.5t52.5 20.5t53 -20.5t21 -53.5z" />
    <glyph glyph-name="perthousand" unicode="&#x2030;" horiz-adv-x="1085" 
d="M1050 122q0 -64 -40 -97.5t-95 -33.5t-95 33.5t-40 97.5v113q0 64 39.5 97t95.5 33q57 0 96 -33t39 -97v-113zM863 128q0 -31 15 -45.5t37 -14.5t37 14.5t15 45.5v99q0 31 -15 45.5t-37 14.5t-37 -14.5t-15 -45.5v-99zM312 477q0 -64 -40 -97.5t-96 -33.5q-55 0 -95 33.5
t-40 97.5v113q0 65 39.5 97.5t95.5 32.5q57 0 96.5 -32.5t39.5 -97.5v-113zM194 0h-72q-9 0 -12 5t2 13l440 681q6 10 18 10h73q8 0 11 -5.5t-2 -12.5l-440 -682q-5 -9 -18 -9zM125 483q0 -31 15 -45.5t36 -14.5q22 0 37 14.5t15 45.5v99q0 32 -15 46.5t-37 14.5
q-21 0 -36 -14.5t-15 -46.5v-99zM728 122q0 -64 -40 -97.5t-95 -33.5t-95 33.5t-40 97.5v113q0 64 39.5 97t95.5 33q57 0 96 -33t39 -97v-113zM541 128q0 -31 15 -45.5t37 -14.5q21 0 36.5 14.5t15.5 45.5v99q0 31 -15.5 45.5t-36.5 14.5q-22 0 -37 -14.5t-15 -45.5v-99z
" />
    <glyph glyph-name="guilsinglleft" unicode="&#x2039;" horiz-adv-x="332" 
d="M281 71h-91q-12 0 -17 9l-135 201q-6 10 0 20l135 201q5 9 17 9h91q20 0 9 -18l-137 -202l137 -202q11 -18 -9 -18z" />
    <glyph glyph-name="guilsinglright" unicode="&#x203a;" horiz-adv-x="332" 
d="M142 71h-91q-20 0 -9 18l137 202l-137 202q-11 18 9 18h91q12 0 17 -9l135 -201q6 -10 0 -20l-135 -201q-5 -9 -17 -9z" />
    <glyph glyph-name="fraction" unicode="&#x2044;" horiz-adv-x="205" 
d="M392 697l-495 -688q-6 -9 -18 -9h-59q-9 0 -12 5t2 13l496 688q6 9 17 9h60q9 0 11.5 -5.5t-2.5 -12.5z" />
    <glyph glyph-name="zero.sups" unicode="&#x2070;" horiz-adv-x="356" 
d="M321 545q0 -67 -42.5 -103.5t-100.5 -36.5t-100.5 36.5t-42.5 103.5v118q0 67 42.5 103.5t100.5 36.5t100.5 -36.5t42.5 -103.5v-118zM117 548q0 -34 18 -49.5t43 -15.5t43 15.5t18 49.5v112q0 34 -18 49.5t-43 15.5t-43 -15.5t-18 -49.5v-112z" />
    <glyph glyph-name="four.sups" unicode="&#x2074;" horiz-adv-x="343" 
d="M268 410h-52q-15 0 -15 15v59h-167q-15 0 -15 15v34q0 9 5 18l128 237q8 10 17 10h54q8 0 11 -5t-1 -13l-118 -218h86l1 60q2 15 15 15h51q15 0 15 -15v-60h25q15 0 15 -15v-48q0 -15 -15 -15h-25v-59q0 -15 -15 -15z" />
    <glyph glyph-name="five.sups" unicode="&#x2075;" horiz-adv-x="339" 
d="M314 537q0 -63 -40.5 -97.5t-107.5 -34.5q-81 0 -131 52q-9 10 2 21l26 34q8 8 21 -1q36 -29 81 -29q30 0 48 14.5t19 42.5q0 57 -64 57q-41 0 -66 -23q-9 -8 -20 -5l-33 10q-13 3 -12 17l7 188q0 15 15 15h216q15 0 15 -15v-46q0 -15 -15 -15h-163l-2 -74q27 19 70 19
q56 0 95 -34t39 -96z" />
    <glyph glyph-name="six.sups" unicode="&#x2076;" horiz-adv-x="343" 
d="M316 537q0 -59 -39 -95.5t-99 -36.5q-64 0 -103 37t-39 97v135q0 60 41 94.5t102 34.5q70 0 123 -45q11 -8 3 -20l-27 -34q-10 -13 -20 -3q-38 27 -76 27q-30 0 -47.5 -15.5t-17.5 -41.5v-38q28 26 68 26q55 0 93 -32.5t38 -89.5zM117 538q0 -25 16 -40t41 -15
q28 0 44.5 15t16.5 40q0 23 -16.5 37t-43.5 14q-26 0 -42 -14t-16 -37z" />
    <glyph glyph-name="seven.sups" unicode="&#x2077;" horiz-adv-x="313" 
d="M128 410h-59q-8 0 -11 5t0 12l138 293h-162q-14 0 -14 14v49q0 15 14 15h246q15 0 15 -15v-34q0 -10 -4 -18l-146 -310q-4 -11 -17 -11z" />
    <glyph glyph-name="eight.sups" unicode="&#x2078;" horiz-adv-x="350" 
d="M319 527q0 -58 -39.5 -90t-104.5 -32t-104.5 32t-39.5 90q0 63 54 88q-46 27 -46 80q0 49 37.5 78.5t98.5 29.5t98 -29.5t37 -78.5q0 -53 -45 -80q54 -23 54 -88zM118 691q0 -19 15 -31.5t42 -12.5t42 12.5t15 31.5q0 18 -15 29t-42 11t-42 -11t-15 -29zM111 528
q0 -22 17 -34.5t47 -12.5q64 0 64 47q0 21 -16.5 33t-47.5 12q-30 0 -47 -12t-17 -33z" />
    <glyph glyph-name="nine.sups" unicode="&#x2079;" horiz-adv-x="344" 
d="M27 674q0 57 39 93t101 36q63 0 102 -36.5t39 -95.5v-137q0 -60 -40.5 -94.5t-101.5 -34.5q-73 0 -123 45q-12 9 -3 21l25 36q10 12 21 2q36 -27 78 -27q30 0 47 14.5t17 40.5v39q-26 -26 -71 -26q-54 0 -92 33t-38 91zM228 672q0 24 -16.5 40t-43.5 16q-26 0 -43 -15.5
t-17 -38.5q0 -24 16 -38.5t44 -14.5t44 14t16 37z" />
    <glyph glyph-name="zero.sinf" unicode="&#x2080;" horiz-adv-x="356" 
d="M321 35q0 -67 -42.5 -103.5t-100.5 -36.5t-100.5 36.5t-42.5 103.5v118q0 67 42.5 103.5t100.5 36.5t100.5 -36.5t42.5 -103.5v-118zM117 38q0 -34 18 -49.5t43 -15.5t43 15.5t18 49.5v112q0 34 -18 49.5t-43 15.5t-43 -15.5t-18 -49.5v-112z" />
    <glyph glyph-name="one.sinf" unicode="&#x2081;" horiz-adv-x="225" 
d="M162 -100h-52q-15 0 -15 15v276l-36 -26q-11 -8 -19 4l-25 35q-8 12 3 20l83 58q7 6 18 6h43q15 0 15 -15v-358q0 -15 -15 -15z" />
    <glyph glyph-name="two.sinf" unicode="&#x2082;" horiz-adv-x="327" 
d="M283 -100h-244q-15 0 -15 15v42q0 11 8 18l116 109q21 21 31.5 32.5t20.5 29.5t10 33q0 38 -47 38q-42 0 -77 -33q-12 -11 -21 1l-27 37q-7 12 1 20q55 51 129 51q56 0 89.5 -30.5t33.5 -80.5q0 -40 -20.5 -73.5t-70.5 -81.5q-32 -31 -56 -49h139q15 0 15 -14v-49
q0 -15 -15 -15z" />
    <glyph glyph-name="three.sinf" unicode="&#x2083;" horiz-adv-x="329" 
d="M302 24q0 -59 -39.5 -94.5t-100.5 -34.5q-78 1 -138 53q-10 9 -2 20l28 34q9 10 20 1q36 -31 90 -31q28 0 45 15.5t17 45.5q0 25 -17.5 39.5t-47.5 14.5q-16 0 -31 -3q-14 -2 -18 10l-8 18q-4 11 4 21l54 60q4 5 13 13t10 9h-127q-14 0 -14 15v43q0 15 14 15h221
q15 0 15 -15v-27q0 -8 -8 -18l-85 -92h8q43 -1 70 -33t27 -79z" />
    <glyph glyph-name="four.sinf" unicode="&#x2084;" horiz-adv-x="343" 
d="M268 -100h-52q-15 0 -15 15v59h-167q-15 0 -15 15v34q0 9 5 18l128 237q8 10 17 10h54q8 0 11 -5t-1 -13l-118 -218h86l1 60q2 15 15 15h51q15 0 15 -15v-60h25q15 0 15 -15v-48q0 -15 -15 -15h-25v-59q0 -15 -15 -15z" />
    <glyph glyph-name="five.sinf" unicode="&#x2085;" horiz-adv-x="339" 
d="M314 27q0 -63 -40.5 -97.5t-107.5 -34.5q-82 0 -131 54q-9 10 2 21l26 32q8 8 21 -1q36 -29 81 -29q30 0 48 14.5t19 42.5q0 57 -64 57q-41 0 -66 -23q-9 -8 -20 -5l-33 10q-13 3 -12 17l7 188q0 15 15 15h216q15 0 15 -15v-46q0 -15 -15 -15h-163l-2 -74q27 19 70 19
q56 0 95 -34t39 -96z" />
    <glyph glyph-name="six.sinf" unicode="&#x2086;" horiz-adv-x="343" 
d="M316 27q0 -59 -39 -95.5t-99 -36.5q-64 0 -103 37t-39 97v135q0 60 40.5 94.5t100.5 34.5q70 0 121 -45q11 -8 3 -20l-27 -34q-8 -13 -20 -3q-36 27 -74 27q-29 0 -46 -15.5t-17 -41.5v-38q28 26 68 26q55 0 93 -32.5t38 -89.5zM117 28q0 -25 16 -40t41 -15q28 0 44.5 15
t16.5 40q0 23 -16.5 37t-43.5 14q-26 0 -42 -14t-16 -37z" />
    <glyph glyph-name="seven.sinf" unicode="&#x2087;" horiz-adv-x="313" 
d="M128 -100h-59q-8 0 -11 5t0 12l138 293h-162q-14 0 -14 14v49q0 15 14 15h246q15 0 15 -15v-34q0 -10 -4 -18l-146 -310q-4 -11 -17 -11z" />
    <glyph glyph-name="eight.sinf" unicode="&#x2088;" horiz-adv-x="350" 
d="M319 17q0 -58 -39.5 -90t-104.5 -32t-104.5 32t-39.5 90q0 63 54 88q-46 27 -46 80q0 49 37.5 78.5t98.5 29.5t98 -29.5t37 -78.5q0 -53 -45 -80q54 -23 54 -88zM118 181q0 -19 15 -31.5t42 -12.5t42 12.5t15 31.5q0 18 -15 29t-42 11t-42 -11t-15 -29zM111 18
q0 -22 17 -34.5t47 -12.5q64 0 64 47q0 21 -16.5 33t-47.5 12q-30 0 -47 -12t-17 -33z" />
    <glyph glyph-name="nine.sinf" unicode="&#x2089;" horiz-adv-x="344" 
d="M27 161q0 59 39 95.5t99 36.5q64 0 103 -37t39 -97v-135q0 -60 -40.5 -94.5t-100.5 -34.5q-70 0 -121 45q-11 8 -3 20l27 34q8 13 20 3q36 -27 74 -27q29 0 46 15.5t17 41.5v38q-28 -26 -68 -26q-55 0 -93 32.5t-38 89.5zM226 160q0 25 -16 40t-41 15q-27 0 -44 -15
t-17 -40q0 -23 16.5 -37t43.5 -14q26 0 42 14t16 37z" />
    <glyph glyph-name="Euro" unicode="&#x20ac;" horiz-adv-x="656" 
d="M369 102q99 0 181 54q11 8 20 -4l47 -69q8 -12 -3 -20q-100 -75 -244 -75q-116 0 -193.5 63.5t-79.5 186.5l-1 3h-43q-14 0 -14 15v52q0 15 14 15h44v59h-44q-14 0 -14 14v53q0 14 14 14h44v10q1 124 78 189t192 65q130 0 237 -67q12 -8 4 -21l-47 -68q-7 -10 -21 -4
q-80 46 -172 46q-68 0 -106 -37t-39 -103l1 -10h212q14 0 14 -14v-53q0 -14 -14 -14h-213v-59h213q14 0 14 -15v-52q0 -15 -14 -15h-212l-1 -2q2 -65 40 -101t106 -36z" />
    <glyph glyph-name="uni20BD" unicode="&#x20bd;" horiz-adv-x="647" 
d="M611 472q0 -109 -65 -170t-180 -61h-144v-70h168q15 0 15 -14v-58q0 -15 -15 -15h-168v-69q0 -15 -14 -15h-86q-15 0 -15 15v69h-59q-15 0 -15 15v58q0 14 15 14h59v529q0 15 15 15h244q115 0 180 -64.5t65 -178.5zM494 478q0 68 -34.5 100t-107.5 32h-130v-265h130
q73 0 107.5 32.5t34.5 100.5z" />
    <glyph glyph-name="uni2113" unicode="&#x2113;" horiz-adv-x="411" 
d="M375 44q-57 -54 -127 -54q-81 0 -122.5 53.5t-41.5 141.5v24q-6 -3 -31 -13q-17 -7 -17 12v65q0 13 11 18q12 5 37 18v209q0 106 40 157.5t110 51.5q69 0 108.5 -49.5t39.5 -131.5q0 -93 -50 -161t-152 -127v-61q0 -56 20 -84t49 -28q37 0 71 32q13 12 21 -1l36 -51
q8 -11 -2 -21zM180 518v-155q54 34 79.5 74t25.5 97q0 99 -51 99q-54 0 -54 -115z" />
    <glyph glyph-name="uni2116" unicode="&#x2116;" horiz-adv-x="1110" 
d="M1060 466q0 -80 -51 -127.5t-136 -47.5t-136 47.5t-51 127.5v80q0 82 51 131.5t136 49.5t136 -49.5t51 -131.5v-80zM185 0h-90q-15 0 -15 15v685q0 15 15 15h100q11 0 18 -10l195 -340l100 -181l3 1q-9 128 -9 271v244q0 15 15 15h90q15 0 15 -15v-685q0 -15 -15 -15
h-101q-11 0 -17 10l-189 313q-50 81 -107 197l-3 -1q9 -155 9 -275v-229q0 -15 -14 -15zM788 467q0 -39 22 -60.5t63 -21.5t63 21.5t22 60.5v78q0 42 -22 65t-63 23t-63 -23t-22 -65v-78zM1027 152h-301q-15 0 -15 15v64q0 15 15 15h301q15 0 15 -15v-64q0 -15 -15 -15z" />
    <glyph glyph-name="trademark" unicode="&#x2122;" horiz-adv-x="648" 
d="M334 415h-37q-8 0 -8 8v284q0 8 8 8h42q7 0 11 -7l84 -190l83 190q3 7 11 7h43q7 0 7 -8v-284q0 -8 -7 -8h-37q-8 0 -8 8v101l4 102h-2l-26 -68l-42 -87q-3 -7 -10 -7h-33q-7 0 -10 7l-42 87l-25 68h-2l4 -102v-101q0 -8 -8 -8zM168 415h-40q-7 0 -7 8v242h-81q-8 0 -8 8
v34q0 8 8 8h217q7 0 7 -8v-34q0 -8 -7 -8h-81v-242q0 -8 -8 -8z" />
    <glyph glyph-name="estimated" unicode="&#x212e;" horiz-adv-x="841" 
d="M221 141q35 -39 92 -62t114 -23q179 0 247 108q2 3 6 3h79q7 0 3 -6q-54 -86 -146 -129.5t-190 -43.5q-157 0 -268.5 104.5t-111.5 253.5q0 157 111.5 269t268.5 112q158 0 269.5 -111.5t111.5 -269.5v-31q0 -5 -5 -5h-581v-169zM633 381v201q-90 78 -206 78
q-120 0 -206 -86v-193h412z" />
    <glyph glyph-name="onethird" unicode="&#x2153;" horiz-adv-x="859" 
d="M177 327h-52q-15 0 -15 15v276l-36 -26q-11 -8 -19 4l-25 35q-8 12 3 20l83 58q8 6 18 6h43q15 0 15 -15v-358q0 -15 -15 -15zM668 697l-495 -688q-6 -9 -18 -9h-59q-9 0 -12 5t2 13l496 688q6 9 17 9h60q9 0 11.5 -5.5t-2.5 -12.5zM819 124q0 -59 -39.5 -94.5
t-100.5 -34.5q-78 1 -138 53q-10 10 -2 20l28 34q9 10 20 1q36 -31 90 -31q28 0 45 15.5t17 45.5q0 25 -17.5 39.5t-47.5 14.5q-16 0 -31 -3q-14 -2 -18 10l-8 18q-4 11 4 21l54 60q4 5 13 13t10 9h-127q-14 0 -14 15v43q0 15 14 15h221q15 0 15 -15v-27q0 -8 -8 -18
l-85 -92h8q43 -1 70 -33t27 -79z" />
    <glyph glyph-name="twothirds" unicode="&#x2154;" horiz-adv-x="940" 
d="M296 327h-244q-15 0 -15 15v42q0 11 8 18l116 109q21 21 31.5 32.5t20.5 29.5t10 33q0 38 -47 38q-42 0 -77 -33q-12 -11 -21 1l-27 37q-7 12 1 20q55 51 129 51q56 0 89.5 -30.5t33.5 -80.5q0 -40 -20.5 -73.5t-70.5 -81.5q-32 -31 -56 -49h139q15 0 15 -14v-49
q0 -15 -15 -15zM749 697l-495 -688q-6 -9 -18 -9h-59q-9 0 -12 5t2 13l496 688q6 9 17 9h60q9 0 11.5 -5.5t-2.5 -12.5zM902 124q0 -59 -39.5 -94.5t-100.5 -34.5q-78 1 -138 53q-10 9 -2 20l28 34q9 10 20 1q36 -31 90 -31q28 0 45 15.5t17 45.5q0 25 -17.5 39.5
t-47.5 14.5q-16 0 -31 -3q-14 -2 -18 10l-8 18q-4 11 4 21l54 60q4 5 12.5 13t10.5 9h-127q-14 0 -14 15v43q0 15 14 15h221q15 0 15 -15v-27q0 -8 -8 -18l-85 -92h8q43 -1 70 -33t27 -79z" />
    <glyph glyph-name="oneeighth" unicode="&#x215b;" horiz-adv-x="903" 
d="M177 327h-52q-15 0 -15 15v276l-36 -26q-11 -8 -19 4l-25 35q-8 12 3 20l83 58q8 6 18 6h43q15 0 15 -15v-358q0 -15 -15 -15zM675 697l-495 -688q-6 -9 -18 -9h-59q-9 0 -12 5t2 13l496 688q6 9 17 9h60q9 0 11.5 -5.5t-2.5 -12.5zM866 117q0 -58 -39.5 -90t-104.5 -32
t-104.5 32t-39.5 90q0 63 54 88q-46 27 -46 80q0 49 37.5 78.5t98.5 29.5t98 -29.5t37 -78.5q0 -53 -45 -80q54 -23 54 -88zM665 281q0 -19 15 -31.5t42 -12.5t42 12.5t15 31.5q0 18 -15 29t-42 11t-42 -11t-15 -29zM658 118q0 -22 17 -34.5t47 -12.5q64 0 64 47
q0 21 -16.5 33t-47.5 12q-30 0 -47 -12t-17 -33z" />
    <glyph glyph-name="threeeighths" unicode="&#x215c;" horiz-adv-x="926" 
d="M313 451q0 -59 -39.5 -94.5t-100.5 -34.5q-78 1 -138 53q-9 9 -2 20l28 34q9 10 20 1q36 -31 90 -31q28 0 45 15.5t17 45.5q0 25 -17.5 39.5t-47.5 14.5q-16 0 -31 -3q-14 -2 -18 10l-8 18q-4 11 4 21l54 60q4 5 12.5 12.5t10.5 9.5h-127q-14 0 -14 15v43q0 15 14 15h221
q15 0 15 -15v-27q0 -8 -8 -18l-85 -92h8q43 -1 70 -33t27 -79zM749 697l-495 -688q-6 -9 -18 -9h-59q-9 0 -12 5t2 13l496 688q6 9 17 9h60q9 0 11.5 -5.5t-2.5 -12.5zM891 117q0 -58 -39.5 -90t-104.5 -32t-104.5 32t-39.5 90q0 63 54 88q-46 27 -46 80q0 49 37.5 78.5
t98.5 29.5t98 -29.5t37 -78.5q0 -53 -45 -80q54 -23 54 -88zM690 281q0 -19 15 -31.5t42 -12.5t42 12.5t15 31.5q0 18 -15 29t-42 11t-42 -11t-15 -29zM683 118q0 -22 17 -34.5t47 -12.5q64 0 64 47q0 21 -16.5 33t-47.5 12q-30 0 -47 -12t-17 -33z" />
    <glyph glyph-name="fiveeighths" unicode="&#x215d;" horiz-adv-x="936" 
d="M322 454q0 -63 -40.5 -97.5t-107.5 -34.5q-81 0 -131 52q-9 10 2 21l26 34q8 8 21 -1q36 -29 81 -29q30 0 48 14.5t19 42.5q0 57 -64 57q-41 0 -66 -23q-9 -8 -20 -5l-33 10q-13 3 -12 17l7 188q0 15 15 15h216q15 0 15 -15v-46q0 -15 -15 -15h-163l-2 -74q27 19 70 19
q56 0 95 -34t39 -96zM757 697l-495 -688q-6 -9 -18 -9h-59q-9 0 -12 5t2 13l496 688q6 9 17 9h60q9 0 11.5 -5.5t-2.5 -12.5zM901 117q0 -58 -39.5 -90t-104.5 -32t-104.5 32t-39.5 90q0 63 54 88q-46 27 -46 80q0 49 37.5 78.5t98.5 29.5t98 -29.5t37 -78.5q0 -53 -45 -80
q54 -23 54 -88zM700 281q0 -19 15 -31.5t42 -12.5t42 12.5t15 31.5q0 18 -15 29t-42 11t-42 -11t-15 -29zM693 118q0 -22 17 -34.5t47 -12.5q64 0 64 47q0 21 -16.5 33t-47.5 12q-30 0 -47 -12t-17 -33z" />
    <glyph glyph-name="seveneighths" unicode="&#x215e;" horiz-adv-x="835" 
d="M139 327h-59q-8 0 -11 5t0 12l138 293h-162q-14 0 -14 14v49q0 15 14 15h246q15 0 15 -15v-34q0 -10 -4 -18l-146 -310q-4 -11 -17 -11zM672 697l-495 -688q-6 -9 -18 -9h-59q-9 0 -12 5t2 13l496 688q6 9 17 9h60q9 0 11.5 -5.5t-2.5 -12.5zM800 117q0 -58 -39.5 -90
t-104.5 -32t-104.5 32t-39.5 90q0 63 54 88q-46 27 -46 80q0 49 37.5 78.5t98.5 29.5t98 -29.5t37 -78.5q0 -53 -45 -80q54 -23 54 -88zM599 281q0 -19 15 -31.5t42 -12.5t42 12.5t15 31.5q0 18 -15 29t-42 11t-42 -11t-15 -29zM592 118q0 -22 17 -34.5t47 -12.5q64 0 64 47
q0 21 -16.5 33t-47.5 12q-30 0 -47 -12t-17 -33z" />
    <glyph glyph-name="arrowleft" unicode="&#x2190;" horiz-adv-x="658" 
d="M185 399h414q15 0 15 -15v-67q0 -15 -15 -15h-412l96 -85q12 -10 1 -21l-42 -42q-12 -12 -21 -1l-170 162q-7 8 -7 18v35q0 10 7 18l170 170q10 11 21 0l42 -42q10 -10 0 -21z" />
    <glyph glyph-name="arrowup" unicode="&#x2191;" horiz-adv-x="470" 
d="M268 637l171 -169q11 -10 0 -21l-41 -41q-10 -10 -21 0l-96 96v-412q0 -15 -14 -15h-68q-15 0 -15 15v412l-92 -91q-10 -11 -21 0l-40 40q-11 11 0 21l167 165q7 8 17 8h35q11 0 18 -8z" />
    <glyph glyph-name="arrowright" unicode="&#x2192;" horiz-adv-x="658" 
d="M373 513l43 42q10 12 21 1l169 -162q8 -10 8 -18v-35q0 -8 -8 -18l-169 -170q-11 -11 -21 0l-43 42q-11 11 0 21l100 94h-414q-15 0 -15 15v67q0 15 15 15h411l-96 85q-12 10 -1 21z" />
    <glyph glyph-name="arrowdown" unicode="&#x2193;" horiz-adv-x="471" 
d="M282 209l96 95q10 12 21 0l41 -40q10 -12 -1 -21l-170 -170q-7 -7 -18 -7h-35q-10 0 -17 7l-167 165q-11 11 -1 21l41 41q10 10 21 0l92 -91v412q0 15 15 15h68q14 0 14 -15v-412z" />
    <glyph glyph-name="arrowboth" unicode="&#x2194;" horiz-adv-x="805" 
d="M521 517l42 42q11 11 21 1l169 -163q8 -7 8 -18v-34q0 -11 -8 -18l-169 -171q-10 -10 -21 0l-42 43q-11 10 0 21l99 94h-435l100 -94q10 -11 0 -21l-43 -43q-10 -10 -21 0l-169 171q-8 8 -8 18v34q0 10 8 18l169 163q11 9 21 -1l43 -42q10 -12 -1 -21l-96 -85h429l-96 85
q-11 10 0 21z" />
    <glyph glyph-name="arrowupdn" unicode="&#x2195;" horiz-adv-x="502" 
d="M297 564v-415l96 95q11 12 21 0l41 -40q10 -12 -1 -21l-170 -170q-7 -7 -18 -7h-35q-10 0 -18 7l-166 165q-11 11 -1 21l41 41q11 10 21 0l92 -91v415l-92 -91q-10 -11 -21 0l-41 41q-10 10 1 21l166 165q8 7 18 7h35q11 0 18 -7l170 -170q11 -9 1 -21l-41 -40
q-10 -12 -21 0z" />
    <glyph glyph-name="uni2196" unicode="&#x2196;" horiz-adv-x="534" 
d="M204 475l292 -292q10 -11 0 -21l-47 -48q-11 -10 -21 0l-292 292v-136q0 -14 -15 -14h-57q-15 0 -15 14v240q0 11 7 18l25 26q8 7 18 7h235q15 0 15 -14v-58q0 -14 -15 -14h-130z" />
    <glyph glyph-name="uni2197" unicode="&#x2197;" horiz-adv-x="535" 
d="M201 561h235q11 0 18 -7l25 -26q7 -7 7 -18v-240q0 -14 -15 -14h-57q-15 0 -15 14v136l-291 -292q-12 -10 -21 0l-47 48q-12 10 0 21l291 292h-130q-14 0 -14 14v58q0 14 14 14z" />
    <glyph glyph-name="uni2198" unicode="&#x2198;" horiz-adv-x="536" 
d="M398 273v128q0 14 14 14h59q14 0 14 -14v-234q0 -11 -7 -18l-25 -26q-7 -7 -18 -7h-241q-14 0 -14 15v58q0 15 14 15h136l-291 290q-11 12 0 21l47 48q9 12 21 0z" />
    <glyph glyph-name="uni2199" unicode="&#x2199;" horiz-adv-x="536" 
d="M451 563l47 -48q10 -10 0 -21l-291 -290h135q15 0 15 -15v-58q0 -15 -15 -15h-241q-10 0 -18 7l-25 26q-7 7 -7 18v234q0 14 15 14h58q15 0 15 -14v-128l291 290q10 12 21 0z" />
    <glyph glyph-name="partialdiff" unicode="&#x2202;" horiz-adv-x="546" 
d="M115 646v67q0 14 14 14q187 -4 276.5 -104.5t89.5 -326.5v-52q0 -120 -60 -187t-167 -67q-100 0 -164 69.5t-64 181.5q0 107 59.5 173.5t150.5 66.5q76 0 132 -51q-11 91 -77.5 144t-175.5 57q-14 0 -14 15zM153 240q0 -148 115 -148q114 0 114 148q0 139 -118 139
q-52 0 -81.5 -36t-29.5 -103z" />
    <glyph glyph-name="emptyset" unicode="&#x2205;" horiz-adv-x="617" 
d="M111 87l-27 24q-12 10 -2 21l34 38q-62 72 -62 166q0 104 75 178t179 74q76 0 143 -44l34 38q10 10 20 1l28 -24q11 -9 2 -21l-34 -38q62 -72 62 -164q0 -104 -75 -178.5t-180 -74.5q-79 0 -142 44l-34 -38q-10 -12 -21 -2zM489 336q0 63 -36 110l-239 -265
q43 -26 94 -26q75 0 128 53t53 128zM128 336q0 -61 37 -111l238 266q-42 25 -95 25q-74 0 -127 -53t-53 -127z" />
    <glyph glyph-name="product" unicode="&#x220f;" horiz-adv-x="646" 
d="M81 -124v854q0 15 14 15h456q14 0 14 -15v-854q0 -15 -14 -15h-95q-15 0 -15 15v757h-236v-757q0 -15 -15 -15h-95q-14 0 -14 15z" />
    <glyph glyph-name="summation" unicode="&#x2211;" horiz-adv-x="537" 
d="M483 -139h-431q-15 0 -15 15v56q0 9 5 17l219 353l-219 355q-5 8 -5 17v56q0 15 15 15h431q15 0 15 -15v-75q0 -15 -15 -15h-297l176 -296q5 -10 5 -18v-48q0 -6 -5 -18l-176 -294h297q15 0 15 -15v-75q0 -15 -15 -15z" />
    <glyph glyph-name="minus" unicode="&#x2212;" 
d="M514 280h-428q-14 0 -14 15v79q0 14 14 14h428q14 0 14 -14v-79q0 -15 -14 -15z" />
    <glyph glyph-name="radical" unicode="&#x221a;" horiz-adv-x="578" 
d="M328 -139h-89q-13 0 -16 13l-124 426h-66q-15 0 -15 15v77q0 15 15 15h138q13 0 16 -13l70 -268q18 -74 24 -116h3q2 10 9.5 50.5t13.5 64.5l146 607q3 13 16 13h82q17 0 12 -17l-220 -854q-3 -13 -15 -13z" />
    <glyph glyph-name="infinity" unicode="&#x221e;" horiz-adv-x="717" 
d="M358 255q-73 -93 -147 -93q-67 0 -115 45.5t-48 125.5t48 125.5t115 45.5q77 0 147 -96q73 96 148 96q67 0 115 -45.5t48 -125.5t-48 -125.5t-115 -45.5q-73 0 -148 93zM138 333q0 -39 21 -57.5t53 -18.5q9 0 19 3.5t17 7.5t18 14t15 14.5l17 19t16 17.5q-3 3 -16 17.5
l-17 19t-15 14.5t-18 14t-17 7.5t-19 3.5q-32 0 -53 -18.5t-21 -57.5zM403 333q3 -3 16 -17.5l17 -19t15 -14.5t18 -14t17 -7.5t19 -3.5q32 0 53 18.5t21 57.5t-21 57.5t-53 18.5q-9 0 -19 -3.5t-17 -7.5t-18 -14t-15 -14.5l-17 -19t-16 -17.5z" />
    <glyph glyph-name="integral" unicode="&#x222b;" horiz-adv-x="421" 
d="M154 555q0 95 51 145.5t130 50.5q27 0 60 -3q13 -1 13 -15v-73q0 -15 -15 -15q-28 2 -37 2q-89 0 -89 -93v-501q0 -95 -51 -145.5t-130 -50.5q-28 0 -59 3q-14 1 -14 15v73q0 15 16 15q28 -2 37 -2q88 0 88 93v501z" />
    <glyph glyph-name="approxequal" unicode="&#x2248;" 
d="M529 423q-45 -65 -132 -65q-38 0 -102 26q-52 21 -75 21q-46 0 -73 -25q-11 -11 -21 -2l-51 45q-12 8 -3 20q44 64 131 64q39 0 101 -26q51 -22 76 -22q45 0 73 26q11 10 21 1l51 -43q10 -9 4 -20zM529 230q-46 -66 -132 -66q-40 0 -102 27q-52 21 -75 21q-46 0 -73 -25
q-11 -11 -21 -2l-51 45q-12 8 -3 20q44 64 131 64q41 0 101 -27q53 -21 76 -21q45 0 73 26q10 9 21 1l51 -44q11 -8 4 -19z" />
    <glyph glyph-name="notequal" unicode="&#x2260;" 
d="M528 467v-79q0 -15 -14 -15h-130l-48 -82h178q14 0 14 -15v-79q0 -14 -14 -14h-241l-43 -76q-7 -10 -18 -10h-77q-8 0 -11.5 5.5t1.5 12.5l40 68h-79q-14 0 -14 14v79q0 15 14 15h141l48 82h-189q-14 0 -14 15v79q0 14 14 14h251l43 75q6 9 18 9h77q8 0 11 -5t-1 -12
l-39 -67h68q14 0 14 -14z" />
    <glyph glyph-name="lessequal" unicode="&#x2264;" 
d="M521 251v-93q0 -8 -5.5 -11t-12.5 1l-427 206q-11 6 -11 16v54q0 10 11 17l427 206q7 4 12.5 0.5t5.5 -11.5v-92q0 -13 -11 -18l-297 -129l297 -129q11 -5 11 -17zM521 98v-75q0 -15 -15 -15h-426q-15 0 -15 15v75q0 15 15 15h426q15 0 15 -15z" />
    <glyph glyph-name="greaterequal" unicode="&#x2265;" 
d="M524 354l-428 -206q-7 -4 -12 -1t-5 11v93q0 12 11 17l296 129l-296 129q-11 5 -11 18v92q0 8 5 11.5t12 -0.5l428 -206q11 -5 11 -17v-54q0 -10 -11 -16zM520 8h-427q-14 0 -14 15v75q0 15 14 15h427q15 0 15 -15v-75q0 -15 -15 -15z" />
    <glyph glyph-name="lozenge" unicode="&#x25ca;" horiz-adv-x="556" 
d="M244 715h68q11 0 18 -10l197 -337q6 -11 0 -21l-197 -337q-7 -10 -18 -10h-68q-11 0 -18 10l-197 337q-6 10 0 21l197 337q7 10 18 10zM142 357l136 -243l136 243l-136 244z" />
    <glyph glyph-name="idotaccent" horiz-adv-x="242" 
d="M164 0h-86q-15 0 -15 15v489q0 14 15 14h86q15 0 15 -14v-489q0 -15 -15 -15zM187 654q0 -27 -18 -45.5t-46 -18.5t-46.5 18.5t-18.5 45.5q0 28 18.5 46t46.5 18t46 -18t18 -46z" />
    <glyph glyph-name="a.ss01" horiz-adv-x="547" 
d="M381 52q-53 -64 -145 -64q-83 0 -137 52.5t-54 161.5v115q0 104 66 158.5t165 54.5q96 0 198 -35q11 -5 11 -16v-464q0 -15 -14 -15h-68q-14 0 -16 13zM162 201q0 -60 22 -85t73 -25q27 0 59 14t53 39v273q-39 10 -96 10q-48 0 -79.5 -28t-31.5 -81v-117z" />
    <glyph glyph-name="aacute.ss01" horiz-adv-x="547" 
d="M284 591h-66q-9 0 -12 5.5t2 12.5l80 131q6 10 18 10h88q9 0 11.5 -5t-3.5 -13l-100 -132q-6 -9 -18 -9zM381 52q-53 -64 -145 -64q-83 0 -137 52.5t-54 161.5v115q0 104 66 158.5t165 54.5q96 0 198 -35q11 -5 11 -16v-464q0 -15 -14 -15h-68q-14 0 -16 13zM162 201
q0 -60 22 -85t73 -25q27 0 59 14t53 39v273q-39 10 -96 10q-48 0 -79.5 -28t-31.5 -81v-117z" />
    <glyph glyph-name="abreve.ss01" horiz-adv-x="547" 
d="M439 720q-8 -62 -49.5 -98.5t-111.5 -36.5t-111 36t-49 97q-2 15 13 17l56 8q13 1 16 -12q13 -60 75 -60t75 60q3 13 17 12l55 -8q15 -2 14 -15zM381 52q-53 -64 -145 -64q-83 0 -137 52.5t-54 161.5v115q0 104 66 158.5t165 54.5q96 0 198 -35q11 -5 11 -16v-464
q0 -15 -14 -15h-68q-14 0 -16 13zM162 201q0 -60 22 -85t73 -25q27 0 59 14t53 39v273q-39 10 -96 10q-48 0 -79.5 -28t-31.5 -81v-117z" />
    <glyph glyph-name="acircumflex.ss01" horiz-adv-x="547" 
d="M197 591h-71q-21 0 -8 18l113 132q7 9 18 9h59q12 0 18 -9l112 -132q13 -18 -7 -18h-71q-12 0 -18 8l-63 75l-65 -75q-8 -8 -17 -8zM381 52q-53 -64 -145 -64q-83 0 -137 52.5t-54 161.5v115q0 104 66 158.5t165 54.5q96 0 198 -35q11 -5 11 -16v-464q0 -15 -14 -15h-68
q-14 0 -16 13zM162 201q0 -60 22 -85t73 -25q27 0 59 14t53 39v273q-39 10 -96 10q-48 0 -79.5 -28t-31.5 -81v-117z" />
    <glyph glyph-name="adieresis.ss01" horiz-adv-x="547" 
d="M237 653q0 -28 -17 -44.5t-44 -16.5t-44.5 16.5t-17.5 44.5q0 29 17.5 45.5t44.5 16.5t44 -16.5t17 -45.5zM442 653q0 -28 -17 -44.5t-44 -16.5t-44.5 16.5t-17.5 44.5q0 29 17 45.5t45 16.5q27 0 44 -16.5t17 -45.5zM381 52q-53 -64 -145 -64q-83 0 -137 52.5t-54 161.5
v115q0 104 66 158.5t165 54.5q96 0 198 -35q11 -5 11 -16v-464q0 -15 -14 -15h-68q-14 0 -16 13zM162 201q0 -60 22 -85t73 -25q27 0 59 14t53 39v273q-39 10 -96 10q-48 0 -79.5 -28t-31.5 -81v-117z" />
    <glyph glyph-name="agrave.ss01" horiz-adv-x="547" 
d="M332 591h-66q-12 0 -18 9l-100 132q-6 8 -3.5 13t11.5 5h88q12 0 18 -10l80 -131q5 -7 2 -12.5t-12 -5.5zM381 52q-53 -64 -145 -64q-83 0 -137 52.5t-54 161.5v115q0 104 66 158.5t165 54.5q96 0 198 -35q11 -5 11 -16v-464q0 -15 -14 -15h-68q-14 0 -16 13zM162 201
q0 -60 22 -85t73 -25q27 0 59 14t53 39v273q-39 10 -96 10q-48 0 -79.5 -28t-31.5 -81v-117z" />
    <glyph glyph-name="amacron.ss01" horiz-adv-x="547" 
d="M132 613v60q0 14 15 14h263q14 0 14 -14v-60q0 -15 -14 -15h-263q-15 0 -15 15zM381 52q-53 -64 -145 -64q-83 0 -137 52.5t-54 161.5v115q0 104 66 158.5t165 54.5q96 0 198 -35q11 -5 11 -16v-464q0 -15 -14 -15h-68q-14 0 -16 13zM162 201q0 -60 22 -85t73 -25
q27 0 59 14t53 39v273q-39 10 -96 10q-48 0 -79.5 -28t-31.5 -81v-117z" />
    <glyph glyph-name="aogonek.ss01" horiz-adv-x="547" 
d="M509 -183q-40 -19 -96 -19q-48 0 -76 23.5t-28 62.5q0 64 84 116l-12 52q-53 -61 -147 -61q-80 0 -134.5 52.5t-54.5 158.5v115q0 105 66 159.5t169 54.5q89 0 194 -36q11 -5 11 -16v-463q0 -8 -5 -11.5t-20 -8.5q-51 -19 -51 -66q0 -36 38 -36q13 0 41 6q16 3 18 -10
l12 -55q3 -14 -9 -18zM162 201q0 -56 21.5 -81t68.5 -25q71 0 117 49v273q-42 11 -90 11q-53 0 -85 -28t-32 -82v-117z" />
    <glyph glyph-name="aring.ss01" horiz-adv-x="547" 
d="M391 674q0 -50 -31 -79.5t-81 -29.5q-52 0 -85 30t-33 80t33 80.5t85 30.5q49 0 80.5 -31t31.5 -81zM228 674q0 -20 14 -33t36 -13t34.5 13t12.5 33q0 23 -12.5 36t-34.5 13q-23 0 -36.5 -13.5t-13.5 -35.5zM381 52q-53 -64 -145 -64q-83 0 -137 52.5t-54 161.5v115
q0 104 66 158.5t165 54.5q96 0 198 -35q11 -5 11 -16v-464q0 -15 -14 -15h-68q-14 0 -16 13zM162 201q0 -60 22 -85t73 -25q27 0 59 14t53 39v273q-39 10 -96 10q-48 0 -79.5 -28t-31.5 -81v-117z" />
    <glyph glyph-name="atilde.ss01" horiz-adv-x="547" 
d="M450 663q-11 -32 -36.5 -59t-59.5 -27q-27 0 -75 26q-42 23 -57 23q-20 0 -38 -32q-7 -13 -20 -7l-47 27q-12 6 -7 19q13 33 37 58t57 25q29 0 75 -26q46 -23 62 -23q17 0 34 32q7 13 20 7l47 -27q11 -6 8 -16zM381 52q-53 -64 -145 -64q-83 0 -137 52.5t-54 161.5v115
q0 104 66 158.5t165 54.5q96 0 198 -35q11 -5 11 -16v-464q0 -15 -14 -15h-68q-14 0 -16 13zM162 201q0 -60 22 -85t73 -25q27 0 59 14t53 39v273q-39 10 -96 10q-48 0 -79.5 -28t-31.5 -81v-117z" />
    <glyph glyph-name="ae.ss01" horiz-adv-x="841" 
d="M786 57q-80 -69 -197 -69q-65 0 -117 54l-4 -27q0 -15 -14 -15h-53q-15 0 -15 13l-6 33q-53 -58 -147 -58q-82 0 -135 52.5t-53 161.5v115q0 104 65.5 158.5t163.5 54.5q93 0 155 -46q75 46 158 46q89 0 151 -51t62 -154v-101q0 -14 -15 -14h-303v-62q16 -29 39.5 -43.5
t67.5 -14.5q73 0 139 46q11 8 20 -3l41 -55q8 -11 -3 -21zM162 201q0 -60 21.5 -85t71.5 -25q27 0 58 15t52 41v245q-24 35 -95 35q-46 0 -77 -28t-31 -81v-117zM482 392v-92h205v26q0 52 -28.5 77t-73.5 25q-67 0 -103 -36z" />
    <glyph glyph-name="uni0414.loclBGR" horiz-adv-x="696" 
d="M123 -135h-89q-15 0 -15 14v219q0 15 15 15h47l181 589q3 13 16 13h141q14 0 17 -13l180 -589h47q14 0 14 -15v-219q0 -14 -14 -14h-95q-15 0 -15 14v121h-415v-121q0 -14 -15 -14zM347 582l-139 -469h281l-138 469h-4z" />
    <glyph glyph-name="uni041B.loclBGR" horiz-adv-x="646" 
d="M119 0h-99q-17 0 -12 17l238 687q5 11 17 11h120q12 0 17 -11l238 -687q5 -17 -12 -17h-99q-13 0 -16 12l-186 570h-4l-185 -570q-4 -12 -17 -12z" />
    <glyph glyph-name="uni0432.loclBGR" horiz-adv-x="547" 
d="M508 210q0 -110 -60 -165t-164 -57q-104 -1 -209 36q-12 4 -12 16v483q0 101 58.5 152.5t151.5 51.5q92 0 150.5 -53t58.5 -142q0 -93 -79 -151q105 -53 105 -171zM179 108q37 -16 91 -16q61 0 91 28.5t30 90.5q0 111 -119 106q-41 -2 -93 -11v-198zM179 524v-122
q37 3 93 12q42 6 68 34.5t26 76.5q0 50 -26 74.5t-67 24.5q-44 0 -69 -28t-25 -72z" />
    <glyph glyph-name="uni0433.loclBGR" horiz-adv-x="472" 
d="M435 55q-83 -67 -209 -67q-95 0 -145.5 39t-50.5 110q0 64 42.5 103t137.5 71q56 19 82 34.5t26 39.5q0 43 -75 43q-78 0 -135 -37q-14 -8 -20 6l-32 62q-6 13 4 20q75 51 182 51q91 0 140 -38.5t49 -106.5q0 -67 -45 -102.5t-144 -71.5q-96 -33 -96 -72q0 -48 87 -48
q77 0 150 50q13 8 20 -5l35 -62q7 -12 -3 -19z" />
    <glyph glyph-name="uni0434.loclBGR" horiz-adv-x="549" 
d="M487 33q0 -233 -222 -233q-115 0 -195 62q-10 7 -3 20l42 62q8 13 20 4q62 -45 135 -45q58 0 84 30t24 104q-50 -22 -111 -22q-94 0 -155 53t-61 154v94q0 111 63.5 162.5t167.5 51.5q108 0 200 -39q11 -4 11 -17v-441zM162 222q0 -105 110 -105q69 0 99 25v273
q-33 11 -93 11q-56 0 -86 -24.5t-30 -85.5v-94z" />
    <glyph glyph-name="uni0436.loclBGR" horiz-adv-x="741" 
d="M718 0h-102q-13 0 -18 10l-126 207l-45 -53v-149q0 -15 -15 -15h-83q-15 0 -15 15v149l-45 53l-126 -207q-5 -10 -18 -10h-102q-20 0 -10 18l181 278l-162 205q-5 7 -3 12t11 5h103q12 0 18 -9l79 -107l74 -104v402q0 15 15 15h83q15 0 15 -15v-402l74 104l79 107
q6 9 18 9h103q9 0 11 -5t-3 -12l-162 -205l181 -278q10 -18 -10 -18z" />
    <glyph glyph-name="uni0438.loclBGR" horiz-adv-x="556" 
d="M392 518h87q15 0 15 -14v-458q0 -13 -11 -18q-91 -40 -196 -40q-107 0 -168 55t-61 170v291q0 14 15 14h87q14 0 14 -14v-289q0 -67 28.5 -95t84.5 -28t91 12v400q0 14 14 14z" />
    <glyph glyph-name="uni0439.loclBGR" horiz-adv-x="556" 
d="M443 720q-8 -62 -49.5 -98.5t-111.5 -36.5t-111 36t-49 97q-2 15 13 17l56 8q13 1 16 -12q13 -60 75 -60t75 60q3 13 17 12l55 -8q15 -2 14 -15zM392 518h87q15 0 15 -14v-458q0 -13 -11 -18q-91 -40 -196 -40q-107 0 -168 55t-61 170v291q0 14 15 14h87q14 0 14 -14
v-289q0 -67 28.5 -95t84.5 -28t91 12v400q0 14 14 14z" />
    <glyph glyph-name="uni045D.loclBGR" horiz-adv-x="556" 
d="M332 591h-66q-12 0 -18 9l-100 132q-6 8 -3.5 13t11.5 5h88q12 0 18 -10l80 -131q5 -7 2 -12.5t-12 -5.5zM392 518h87q15 0 15 -14v-458q0 -13 -11 -18q-91 -40 -196 -40q-107 0 -168 55t-61 170v291q0 14 15 14h87q14 0 14 -14v-289q0 -67 28.5 -95t84.5 -28t91 12v400
q0 14 14 14z" />
    <glyph glyph-name="uni043A.loclBGR" horiz-adv-x="509" 
d="M497 0h-106q-14 0 -19 9l-157 206l-35 -36v-164q0 -15 -15 -15h-86q-15 0 -15 15v685q0 15 15 15h86q15 0 15 -15v-380l176 191q6 7 18 7h103q10 0 12 -5t-4 -12l-193 -205l214 -278q5 -8 3 -13t-12 -5z" />
    <glyph glyph-name="uni043B.loclBGR" horiz-adv-x="517" 
d="M14 17l175 490q5 11 16 11h106q12 0 17 -11l176 -490q5 -17 -11 -17h-94q-13 0 -16 12l-123 387h-2l-123 -387q-3 -12 -17 -12h-93q-8 0 -11 5t0 12z" />
    <glyph glyph-name="uni043F.loclBGR" horiz-adv-x="562" 
d="M163 0h-86q-15 0 -15 15v458q0 13 11 18q90 39 199 39t170.5 -54.5t61.5 -169.5v-291q0 -15 -14 -15h-87q-15 0 -15 15v289q0 67 -29 94.5t-87 27.5q-52 0 -94 -11v-400q0 -15 -15 -15z" />
    <glyph glyph-name="uni0442.loclBGR" horiz-adv-x="824" 
d="M400 484q74 46 151 46q97 0 156 -55.5t59 -157.5v-302q0 -15 -14 -15h-87q-14 0 -14 15v306q0 104 -103 104q-50 0 -88 -25q13 -39 13 -81v-304q0 -15 -15 -15h-86q-15 0 -15 15v306q0 105 -99 105q-43 0 -80 -11v-400q0 -15 -15 -15h-86q-15 0 -15 15v458q0 13 12 18
q89 39 181 39q86 0 145 -46z" />
    <glyph glyph-name="uni0446.loclBGR" horiz-adv-x="587" 
d="M543 -131h-78q-15 0 -15 15v135q-73 -31 -156 -31q-236 0 -236 229v287q0 14 15 14h86q15 0 15 -14v-288q0 -66 29 -95t90 -29q49 0 83 16v396q0 14 15 14h86q15 0 15 -14v-386h51q15 0 15 -14v-220q0 -15 -15 -15z" />
    <glyph glyph-name="uni0448.loclBGR" horiz-adv-x="824" 
d="M425 35q-77 -47 -151 -47q-97 0 -156.5 55.5t-59.5 157.5v303q0 14 15 14h86q15 0 15 -14v-306q0 -106 103 -106q48 0 88 26q-13 35 -13 81v305q0 14 14 14h87q14 0 14 -14v-306q0 -107 100 -107q43 0 80 13v400q0 14 14 14h87q14 0 14 -14v-458q0 -14 -11 -18
q-93 -40 -181 -40q-87 0 -145 47z" />
    <glyph glyph-name="uni0449.loclBGR" horiz-adv-x="849" 
d="M805 -131h-78q-14 0 -14 15v135q-77 -31 -147 -31q-86 0 -146 46q-73 -46 -148 -46q-97 0 -155.5 55.5t-58.5 158.5v302q0 14 15 14h86q15 0 15 -14v-306q0 -106 101 -106q47 0 87 26q-14 34 -14 81v305q0 14 14 14h86q15 0 15 -14v-306q0 -106 100 -106q40 0 76 19v393
q0 14 14 14h87q14 0 14 -14v-382h51q15 0 15 -15v-223q0 -15 -15 -15z" />
    <glyph glyph-name="uni044C.loclBGR" horiz-adv-x="517" 
d="M491 173q0 -88 -58.5 -135.5t-153.5 -49.5q-103 -2 -205 36q-12 4 -12 17v463q0 14 15 14h85q14 0 14 -14v-163q56 13 109 13q93 0 149.5 -48.5t56.5 -132.5zM176 107q32 -14 88 -14q112 0 112 80q0 81 -108 81q-51 0 -92 -13v-134z" />
    </font>
</defs>
</svg>
